{
.appVersion = "3150";
copyright = "Copyright © 2010-2023 by Frank Adebiaye. Certains droits réservés";
customParameters = (
{
name = "Disable autohinting for glyphs";
value = (
.notdef
);
},
{
name = license;

glyphs = (
{
glyphname = A;
lastChange = "2023-01-12 10:02:56 +0000";
layers = (
{
anchors = (
{
name = bottom;
position = "{320, 0}";
},
{
name = ogonek;
position = "{583, 0}";
},
{
name = top;
position = "{320, 650}";
}
);
layerId = "DEEA460D-B437-4534-881A-9FF6A59DEC7E";
paths = (
{
closed = 1;
nodes = (
"505 210 LINE",
"505 222 LINE",
"135 222 LINE",
"135 210 LINE"
);
},
{
closed = 1;
nodes = (
"360 650 LINE",
"280 650 LINE",
"50 0 LINE",
"63 0 LINE",
"289 638 LINE",
"352 638 LINE",
"577 0 LINE",
"590 0 LINE"
);
}
);
width = 640;
},
{
anchors = (
{
name = bottom;
position = "{320, 0}";
},
{
name = ogonek;
position = "{548, 0}";
},
{
name = top;
position = "{320, 650}";
}
);
layerId = "F6EE3598-E048-4269-B54C-F84174B7F0FB";
paths = (
{
closed = 1;
nodes = (
"455 158 LINE",
"455 273 LINE",
"185 273 LINE",
"185 158 LINE"
);
},
{
closed = 1;
nodes = (
"405 650 LINE",
"244 650 LINE",
"50 0 LINE",
"171 0 LINE",
"328 546 LINE",
"324 546 LINE",
"475 0 LINE",
"590 0 LINE"
);
}
);
width = 640;
},
{
anchors = (
{
name = bottom;
position = "{360, 0}";
},
{
name = ogonek;
position = "{588, 0}";
},
{
name = top;
position = "{360, 649}";
}
);
associatedMasterId = "DEEA460D-B437-4534-881A-9FF6A59DEC7E";
layerId = "C74F8EAE-EFC3-457F-AF5B-383AD615C193";
name = "Apr 28 21, 11:32";
paths = (
{
closed = 1;
nodes = (
"555 210 LINE",
"555 222 LINE",
"165 222 LINE",
"165 210 LINE"
);
},
{
closed = 1;
nodes = (
"400 650 LINE",
"320 650 LINE",
"90 0 LINE",
"103 0 LINE",
"329 638 LINE",
"392 638 LINE",
"617 0 LINE",
"630 0 LINE"
);
}
);
width = 720;
}
);
leftKerningGroup = A;
note = A;
rightKerningGroup = A;
unicode = 0041;
},
{
glyphname = AE;
lastChange = "2023-01-12 08:32:11 +0000";
layers = (
{
layerId = "DEEA460D-B437-4534-881A-9FF6A59DEC7E";
paths = (
{
closed = 1;
nodes = (
"63 0 LINE",
"377 649 LINE",
"362 638 LINE",
"442 638 LINE",
"442 650 LINE",
"364 650 LINE",
"50 0 LINE"
);
},
{
closed = 1;
nodes = (
"435 210 LINE",
"435 222 LINE",
"162 222 LINE",
"162 210 LINE"
);
},
{
closed = 1;
nodes = (
"695 0 LINE",
"695 12 LINE",
"435 12 LINE",
"435 0 LINE"
);
},
{
closed = 1;
nodes = (
"645 318 LINE",
"645 330 LINE",
"435 330 LINE",
"435 318 LINE"
);
},
{
closed = 1;
nodes = (
"695 638 LINE",
"695 650 LINE",
"385 650 LINE",
"385 638 LINE"
);
},
{
closed = 1;
nodes = (
"441 0 LINE",
"441 650 LINE",
"429 650 LINE",
"429 0 LINE"
);
}
);
width = 795;
},
{
layerId = "F6EE3598-E048-4269-B54C-F84174B7F0FB";
paths = (
{
closed = 1;
nodes = (
"171 0 LINE",
"350 541 LINE",
"302 529 LINE",
"452 529 LINE",
"452 649 LINE",
"264 649 LINE",
"50 0 LINE"
);
},
{
closed = 1;
nodes = (
"455 158 LINE",
"455 273 LINE",
"185 273 LINE",
"185 158 LINE"
);
},
{
closed = 1;
nodes = (
"705 0 LINE",
"705 120 LINE",
"385 120 LINE",
"385 0 LINE"
);
},
{
closed = 1;
nodes = (
"655 264 LINE",
"655 384 LINE",
"385 384 LINE",
"385 264 LINE"
);
},
{
closed = 1;
nodes = (
"705 529 LINE",
"705 649 LINE",
"385 649 LINE",
"385 529 LINE"
);
},
{
closed = 1;
nodes = (
"505 0 LINE",
"505 650 LINE",
"385 650 LINE",
"385 0 LINE"
);
}
);
width = 795;
}
);
leftKerningGroup = A;
leftMetricsKey = A;
rightKerningGroup = E;
rightMetricsKey = E;
unicode = 00C6;
},
{
glyphname = B;
lastChange = "2023-01-12 08:32:11 +0000";
layers = (
{
anchors = (
{
name = bottom;
position = "{318, 0}";
},
{
name = ogonek;
position = "{115, 0}";
},
{
name = top;
position = "{318, 649}";
},
{
name = topleft;
position = "{-24, 649}";
}
);
layerId = "DEEA460D-B437-4534-881A-9FF6A59DEC7E";
paths = (
{
closed = 1;
nodes = (
"315 0 LINE SMOOTH",
"443 0 OFFCURVE",
"532 93 OFFCURVE",
"532 218 CURVE SMOOTH",
"532 297 OFFCURVE",
"495 375 OFFCURVE",
"419 413 CURVE",
"418 400 LINE",
"473 372 OFFCURVE",
"520 306 OFFCURVE",
"520 218 CURVE SMOOTH",
"520 100 OFFCURVE",
"436 12 OFFCURVE",
"315 12 CURVE SMOOTH",
"120 12 LINE",
"120 0 LINE"
);
},
{
closed = 1;
nodes = (
"215 220 LINE SMOOTH",
"344 220 OFFCURVE",
"430 306 OFFCURVE",
"430 435 CURVE SMOOTH",
"430 564 OFFCURVE",
"344 650 OFFCURVE",
"215 650 CURVE SMOOTH",
"120 650 LINE",
"120 638 LINE",
"215 638 LINE SMOOTH",
"338 638 OFFCURVE",
"418 558 OFFCURVE",
"418 435 CURVE SMOOTH",
"418 312 OFFCURVE",
"338 232 OFFCURVE",
"215 232 CURVE SMOOTH",
"120 232 LINE",
"120 220 LINE"
);
},
{
closed = 1;
nodes = (
"132 0 LINE",
"132 650 LINE",
"120 650 LINE",
"120 0 LINE"
);
}
);
width = 582;
},
{
anchors = (
{
name = bottom;
position = "{308, 0}";
},
{
name = top;
position = "{308, 649}";
}
);
associatedMasterId = "DEEA460D-B437-4534-881A-9FF6A59DEC7E";
components = (
{
name = I;
}
);
layerId = "493F76FD-B66E-480A-BF66-27D6E8DD5422";
name = "Jan 22 21, 10:58";
paths = (
{
closed = 1;
nodes = (
"419 218 LINE",
"419 158 OFFCURVE",
"379 119 OFFCURVE",
"318 120 CURVE",
"323 0 LINE",
"451 3 OFFCURVE",
"536 90 OFFCURVE",
"536 218 CURVE"
);
},
{
closed = 1;
nodes = (
"315 434 LINE",
"315 377 OFFCURVE",
"277 339 OFFCURVE",
"220 339 CURVE SMOOTH",
"100 339 LINE",
"100 219 LINE",
"220 219 LINE SMOOTH",
"349 219 OFFCURVE",
"435 305 OFFCURVE",
"435 434 CURVE"
);
},
{
closed = 1;
nodes = (
"100 0 LINE",
"323 0 LINE",
"323 120 LINE",
"100 120 LINE"
);
},
{
closed = 1;
nodes = (
"537 349 OFFCURVE",
"452 436 OFFCURVE",
"323 436 CURVE",
"318 316 LINE",
"379 316 OFFCURVE",
"419 277 OFFCURVE",
"419 218 CURVE",
"536 218 LINE"
);
},
{
closed = 1;
nodes = (
"435 563 OFFCURVE",
"349 649 OFFCURVE",
"220 649 CURVE SMOOTH",
"100 649 LINE",
"100 529 LINE",
"220 529 LINE SMOOTH",
"277 529 OFFCURVE",
"315 491 OFFCURVE",
"315 434 CURVE",
"435 434 LINE"
);
}
);
width = 616;
},
{
anchors = (
{
name = bottom;
position = "{308, 0}";
},
{
name = ogonek;
position = "{168, 0}";
},
{
name = top;
position = "{308, 650}";
},
{
name = topleft;
position = "{10, 649}";
}
);
layerId = "F6EE3598-E048-4269-B54C-F84174B7F0FB";
paths = (
{
closed = 1;
nodes = (
"320 0 LINE SMOOTH",
"465 0 OFFCURVE",
"532 109 OFFCURVE",
"532 218 CURVE SMOOTH",
"532 297 OFFCURVE",
"495 369 OFFCURVE",
"420 406 CURVE",
"383 293 LINE",
"406 274 OFFCURVE",
"417 246 OFFCURVE",
"417 218 CURVE SMOOTH",
"417 169 OFFCURVE",
"383 115 OFFCURVE",
"315 115 CURVE SMOOTH",
"120 115 LINE",
"120 0 LINE"
);
},
{
closed = 1;
nodes = (
"220 220 LINE SMOOTH",
"349 220 OFFCURVE",
"435 306 OFFCURVE",
"435 435 CURVE SMOOTH",
"435 564 OFFCURVE",
"349 650 OFFCURVE",
"220 650 CURVE SMOOTH",
"100 650 LINE",
"100 540 LINE",
"230 540 LINE SMOOTH",
"287 540 OFFCURVE",
"330 492 OFFCURVE",
"330 435 CURVE SMOOTH",
"330 378 OFFCURVE",
"287 330 OFFCURVE",
"230 330 CURVE SMOOTH",
"100 330 LINE",
"100 220 LINE"
);
},
{
closed = 1;
nodes = (
"220 0 LINE",
"220 650 LINE",
"100 650 LINE",
"100 0 LINE"
);
}
);
width = 582;
},
{
anchors = (
{
name = bottom;
position = "{308, 0}";
},
{
name = top;
position = "{308, 649}";
}
);
associatedMasterId = "F6EE3598-E048-4269-B54C-F84174B7F0FB";
components = (
{
name = I;
}
);
layerId = "0C68A3D6-9474-4694-99A9-809226D4FD13";
name = "Jan 22 21, 10:58";
paths = (
{
closed = 1;
nodes = (
"419 218 LINE",
"419 158 OFFCURVE",
"379 119 OFFCURVE",
"318 120 CURVE",
"323 0 LINE",
"451 3 OFFCURVE",
"536 90 OFFCURVE",
"536 218 CURVE"
);
},
{
closed = 1;
nodes = (
"315 434 LINE",
"315 377 OFFCURVE",
"277 339 OFFCURVE",
"220 339 CURVE SMOOTH",
"100 339 LINE",
"100 219 LINE",
"220 219 LINE SMOOTH",
"349 219 OFFCURVE",
"435 305 OFFCURVE",
"435 434 CURVE"
);
},
{
closed = 1;
nodes = (
"100 0 LINE",
"323 0 LINE",
"323 120 LINE",
"100 120 LINE"
);
},
{
closed = 1;
nodes = (
"537 349 OFFCURVE",
"452 436 OFFCURVE",
"323 436 CURVE",
"318 316 LINE",
"379 316 OFFCURVE",
"419 277 OFFCURVE",
"419 218 CURVE",
"536 218 LINE"
);
},
{
closed = 1;
nodes = (
"435 563 OFFCURVE",
"349 649 OFFCURVE",
"220 649 CURVE SMOOTH",
"100 649 LINE",
"100 529 LINE",
"220 529 LINE SMOOTH",
"277 529 OFFCURVE",
"315 491 OFFCURVE",
"315 434 CURVE",
"435 434 LINE"
);
}
);
width = 616;
},
{
anchors = (
{
name = bottom;
position = "{308, 0}";
},
{
name = top;
position = "{308, 649}";
}
);
associatedMasterId = "F6EE3598-E048-4269-B54C-F84174B7F0FB";
components = (
{
name = I;
}
);
layerId = "2A49255B-9144-4A8C-B04A-74DCD7C43F38";
name = "Apr 30 21, 13:19";
paths = (
{
closed = 1;
nodes = (
"220 219 LINE SMOOTH",
"349 219 OFFCURVE",
"435 305 OFFCURVE",
"435 434 CURVE",
"315 434 LINE",
"315 377 OFFCURVE",
"277 334 OFFCURVE",
"220 334 CURVE SMOOTH",
"100 334 LINE",
"100 219 LINE"
);
},
{
closed = 1;
nodes = (
"435 434 LINE",
"435 563 OFFCURVE",
"349 649 OFFCURVE",
"220 649 CURVE SMOOTH",
"100 649 LINE",
"100 534 LINE",
"220 534 LINE SMOOTH",
"277 534 OFFCURVE",
"315 491 OFFCURVE",
"315 434 CURVE"
);
},
{
closed = 1;
nodes = (
"320 0 LINE SMOOTH",
"465 0 OFFCURVE",
"537 109 OFFCURVE",
"537 218 CURVE SMOOTH",
"537 297 OFFCURVE",
"500 375 OFFCURVE",
"424 413 CURVE",
"415 357 LINE",
"383 293 LINE",
"406 274 OFFCURVE",
"417 246 OFFCURVE",
"417 218 CURVE SMOOTH",
"417 169 OFFCURVE",
"383 115 OFFCURVE",
"315 115 CURVE SMOOTH",
"120 115 LINE",
"120 0 LINE"
);
}
);
width = 627;
}
);
leftMetricsKey = H;
note = B;
rightKerningGroup = B;
rightMetricsKey = A;
unicode = 0042;
},
{
glyphname = C;
lastChange = "2023-01-12 15:19:36 +0000";
layers = (
{
anchors = (
{
name = bottom;
position = "{410, 0}";
},
{
name = top;
position = "{410, 650}";
}
);
layerId = "DEEA460D-B437-4534-881A-9FF6A59DEC7E";
paths = (
{
closed = 1;
nodes = (
"515 0 LINE",
"515 12 LINE",
"395 12 LINE SMOOTH",
"213 12 OFFCURVE",
"92 137 OFFCURVE",
"92 325 CURVE",
"80 325 LINE",
"80 130 OFFCURVE",
"206 0 OFFCURVE",
"395 0 CURVE SMOOTH"
);
},
{
closed = 1;
nodes = (
"92 325 LINE",
"92 515 OFFCURVE",
"214 638 OFFCURVE",
"395 638 CURVE SMOOTH",
"515 638 LINE",
"515 650 LINE",
"395 650 LINE SMOOTH",
"206 650 OFFCURVE",
"80 519 OFFCURVE",
"80 325 CURVE"
);
}
);
width = 565;
},
{
anchors = (
{
name = bottom;
position = "{410, 0}";
},
{
name = top;
position = "{410, 649}";
}
);
layerId = "F6EE3598-E048-4269-B54C-F84174B7F0FB";
paths = (
{
closed = 1;
nodes = (
"515 0 LINE",
"515 115 LINE",
"405 115 LINE SMOOTH",
"282 115 OFFCURVE",
"200 202 OFFCURVE",
"200 325 CURVE",
"80 325 LINE",
"80 130 OFFCURVE",
"206 0 OFFCURVE",
"395 0 CURVE SMOOTH"
);
},
{
closed = 1;
nodes = (
"200 325 LINE",
"200 447 OFFCURVE",
"282 535 OFFCURVE",
"405 535 CURVE SMOOTH",
"515 535 LINE",
"515 650 LINE",
"395 650 LINE SMOOTH",
"206 650 OFFCURVE",
"80 519 OFFCURVE",
"80 325 CURVE"
);
}
);
width = 565;
}
);
leftKerningGroup = O;
leftMetricsKey = O;
note = C;
rightKerningGroup = C;
rightMetricsKey = A;
unicode = 0043;
},
{
glyphname = D;
lastChange = "2023-01-12 13:41:06 +0000";
layers = (
{
anchors = (
{
name = bottom;
position = "{323, 0}";
},
{
name = center;
position = "{323, 325}";
},
{
name = top;
position = "{220, 649}";
}
);
layerId = "DEEA460D-B437-4534-881A-9FF6A59DEC7E";
paths = (
{
closed = 1;
nodes = (
"132 650 LINE",
"120 650 LINE",
"120 0 LINE",
"132 0 LINE"
);
},
{
closed = 1;
nodes = (
"429 0 OFFCURVE",
"555 130 OFFCURVE",
"555 325 CURVE",
"543 325 LINE",
"543 137 OFFCURVE",
"422 12 OFFCURVE",
"240 12 CURVE SMOOTH",
"120 12 LINE",
"120 0 LINE",
"240 0 LINE SMOOTH"
);
},
{
closed = 1;
nodes = (
"555 519 OFFCURVE",
"429 650 OFFCURVE",
"240 650 CURVE SMOOTH",
"120 650 LINE",
"120 638 LINE",
"240 638 LINE SMOOTH",
"421 638 OFFCURVE",
"543 515 OFFCURVE",
"543 325 CURVE",
"555 325 LINE"
);
}
);
width = 635;
},
{
anchors = (
{
name = bottom;
position = "{317, 0}";
},
{
name = center;
position = "{317, 325}";
},
{
name = top;
position = "{317, 649}";
}
);
associatedMasterId = "DEEA460D-B437-4534-881A-9FF6A59DEC7E";
layerId = "CD0FDFE0-9797-48EE-A9CC-23CF1BC8FAA7";
name = "Jan 26 21, 09:56";
paths = (
{
closed = 1;
nodes = (
"409 0 OFFCURVE",
"535 130 OFFCURVE",
"535 325 CURVE",
"523 325 LINE",
"523 137 OFFCURVE",
"402 12 OFFCURVE",
"220 12 CURVE SMOOTH",
"100 12 LINE",
"100 0 LINE",
"220 0 LINE SMOOTH"
);
},
{
closed = 1;
nodes = (
"535 519 OFFCURVE",
"409 650 OFFCURVE",
"220 650 CURVE SMOOTH",
"100 650 LINE",
"100 638 LINE",
"220 638 LINE SMOOTH",
"401 638 OFFCURVE",
"523 515 OFFCURVE",
"523 325 CURVE",
"535 325 LINE"
);
},
{
closed = 1;
nodes = (
"166 0 LINE",
"166 650 LINE",
"154 650 LINE",
"154 0 LINE"
);
}
);
width = 625;
},
{
anchors = (
{
name = bottom;
position = "{323, 0}";
},
{
name = center;
position = "{323, 325}";
},
{
name = top;
position = "{220, 649}";
}
);
layerId = "F6EE3598-E048-4269-B54C-F84174B7F0FB";
paths = (
{
closed = 1;
nodes = (
"220 650 LINE",
"100 650 LINE",
"100 0 LINE",
"220 0 LINE"
);
},
{
closed = 1;
nodes = (
"419 0 OFFCURVE",
"555 130 OFFCURVE",
"555 325 CURVE",
"435 325 LINE",
"435 202 OFFCURVE",
"353 115 OFFCURVE",
"230 115 CURVE SMOOTH",
"120 115 LINE",
"120 0 LINE",
"230 0 LINE SMOOTH"
);
},
{
closed = 1;
nodes = (
"555 519 OFFCURVE",
"419 650 OFFCURVE",
"230 650 CURVE SMOOTH",
"120 650 LINE",
"120 535 LINE",
"230 535 LINE SMOOTH",
"353 535 OFFCURVE",
"435 447 OFFCURVE",
"435 325 CURVE",
"555 325 LINE"
);
}
);
width = 635;
},
{
anchors = (
{
name = bottom;
position = "{317, 0}";
},
{
name = center;
position = "{317, 325}";
},
{
name = top;
position = "{317, 649}";
}
);
associatedMasterId = "F6EE3598-E048-4269-B54C-F84174B7F0FB";
layerId = "2CCC84C1-298B-443F-8DD3-B1FFC8FFA039";
name = "Jan 26 21, 09:56";
paths = (
{
closed = 1;
nodes = (
"409 0 OFFCURVE",
"535 130 OFFCURVE",
"535 325 CURVE",
"415 325 LINE",
"415 202 OFFCURVE",
"333 115 OFFCURVE",
"210 115 CURVE SMOOTH",
"100 115 LINE",
"100 0 LINE",
"220 0 LINE SMOOTH"
);
},
{
closed = 1;
nodes = (
"535 519 OFFCURVE",
"409 650 OFFCURVE",
"220 650 CURVE SMOOTH",
"100 650 LINE",
"100 535 LINE",
"210 535 LINE SMOOTH",
"333 535 OFFCURVE",
"415 447 OFFCURVE",
"415 325 CURVE",
"535 325 LINE"
);
},
{
closed = 1;
nodes = (
"220 0 LINE",
"220 650 LINE",
"100 650 LINE",
"100 0 LINE"
);
}
);
width = 625;
}
);
leftMetricsKey = H;
note = D;
rightKerningGroup = O;
rightMetricsKey = O;
unicode = 0044;
},
{
glyphname = Eth;
lastChange = "2023-01-12 08:32:11 +0000";
layers = (
{
layerId = "DEEA460D-B437-4534-881A-9FF6A59DEC7E";
paths = (
{
closed = 1;
nodes = (
"316 318 LINE",
"316 330 LINE",
"120 330 LINE",
"120 318 LINE"
);
},
{
closed = 1;
nodes = (
"152 650 LINE",
"140 650 LINE",
"140 0 LINE",
"152 0 LINE"
);
},
{
closed = 1;
nodes = (
"449 0 OFFCURVE",
"575 130 OFFCURVE",
"575 325 CURVE",
"563 325 LINE",
"563 137 OFFCURVE",
"442 12 OFFCURVE",
"260 12 CURVE SMOOTH",
"140 12 LINE",
"140 0 LINE",
"260 0 LINE SMOOTH"
);
},
{
closed = 1;
nodes = (
"575 519 OFFCURVE",
"449 650 OFFCURVE",
"260 650 CURVE SMOOTH",
"140 650 LINE",
"140 638 LINE",
"260 638 LINE SMOOTH",
"441 638 OFFCURVE",
"563 515 OFFCURVE",
"563 325 CURVE",
"575 325 LINE"
);
}
);
width = 655;
},
{
layerId = "F6EE3598-E048-4269-B54C-F84174B7F0FB";
paths = (
{
closed = 1;
nodes = (
"330 264 LINE",
"330 384 LINE",
"100 384 LINE",
"100 264 LINE"
);
},
{
closed = 1;
nodes = (
"220 650 LINE",
"100 650 LINE",
"100 0 LINE",
"220 0 LINE"
);
},
{
closed = 1;
nodes = (
"449 0 OFFCURVE",
"575 130 OFFCURVE",
"575 325 CURVE",
"455 325 LINE",
"455 202 OFFCURVE",
"373 115 OFFCURVE",
"250 115 CURVE SMOOTH",
"140 115 LINE",
"140 0 LINE",
"260 0 LINE SMOOTH"
);
},
{
closed = 1;
nodes = (
"575 519 OFFCURVE",
"449 650 OFFCURVE",
"260 650 CURVE SMOOTH",
"140 650 LINE",
"140 535 LINE",
"250 535 LINE SMOOTH",
"373 535 OFFCURVE",
"455 447 OFFCURVE",
"455 325 CURVE",
"575 325 LINE"
);
}
);
width = 655;
}
);
leftMetricsKey = H;
rightKerningGroup = O;
rightMetricsKey = O;
unicode = 00D0;
},
{
glyphname = Dcroat;
lastChange = "2023-01-12 08:32:11 +0000";
layers = (
{
layerId = "DEEA460D-B437-4534-881A-9FF6A59DEC7E";
paths = (
{
closed = 1;
nodes = (
"316 318 LINE",
"316 330 LINE",
"120 330 LINE",
"120 318 LINE"
);
},
{
closed = 1;
nodes = (
"152 650 LINE",
"140 650 LINE",
"140 0 LINE",
"152 0 LINE"
);
},
{
closed = 1;
nodes = (
"449 0 OFFCURVE",
"575 130 OFFCURVE",
"575 325 CURVE",
"563 325 LINE",
"563 137 OFFCURVE",
"442 12 OFFCURVE",
"260 12 CURVE SMOOTH",
"140 12 LINE",
"140 0 LINE",
"260 0 LINE SMOOTH"
);
},
{
closed = 1;
nodes = (
"575 519 OFFCURVE",
"449 650 OFFCURVE",
"260 650 CURVE SMOOTH",
"140 650 LINE",
"140 638 LINE",
"260 638 LINE SMOOTH",
"441 638 OFFCURVE",
"563 515 OFFCURVE",
"563 325 CURVE",
"575 325 LINE"
);
}
);
width = 655;
},
{
layerId = "F6EE3598-E048-4269-B54C-F84174B7F0FB";
paths = (
{
closed = 1;
nodes = (
"330 264 LINE",
"330 384 LINE",
"100 384 LINE",
"100 264 LINE"
);
},
{
closed = 1;
nodes = (
"220 650 LINE",
"100 650 LINE",
"100 0 LINE",
"220 0 LINE"
);
},
{
closed = 1;
nodes = (
"449 0 OFFCURVE",
"575 130 OFFCURVE",
"575 325 CURVE",
"455 325 LINE",
"455 202 OFFCURVE",
"373 115 OFFCURVE",
"250 115 CURVE SMOOTH",
"140 115 LINE",
"140 0 LINE",
"260 0 LINE SMOOTH"
);
},
{
closed = 1;
nodes = (
"575 519 OFFCURVE",
"449 650 OFFCURVE",
"260 650 CURVE SMOOTH",
"140 650 LINE",
"140 535 LINE",
"250 535 LINE SMOOTH",
"373 535 OFFCURVE",
"455 447 OFFCURVE",
"455 325 CURVE",
"575 325 LINE"
);
}
);
width = 655;
}
);
rightKerningGroup = O;
unicode = 0110;
},
{
glyphname = E;
lastChange = "2023-01-12 08:32:11 +0000";
layers = (
{
anchors = (
{
name = bottom;
position = "{275, 0}";
},
{
name = ogonek;
position = "{403, 0}";
},
{
name = "placement accent";
position = "{237, 712}";
},
{
name = top;
position = "{275, 650}";
},
{
name = topleft;
position = "{40, 650}";
}
);
guideLines = (
{
position = "{408, 330}";
}
);
layerId = "DEEA460D-B437-4534-881A-9FF6A59DEC7E";
paths = (
{
closed = 1;
nodes = (
"420 638 LINE",
"420 650 LINE",
"120 650 LINE",
"120 638 LINE"
);
},
{
closed = 1;
nodes = (
"420 0 LINE",
"420 12 LINE",
"120 12 LINE",
"120 0 LINE"
);
},
{
closed = 1;
nodes = (
"370 318 LINE",
"370 330 LINE",
"120 330 LINE",
"120 318 LINE"
);
},
{
closed = 1;
nodes = (
"132 0 LINE",
"132 650 LINE",
"120 650 LINE",
"120 0 LINE"
);
}
);
width = 520;
},
{
anchors = (
{
name = bottom;
position = "{265, 0}";
},
{
name = ogonek;
position = "{388, 0}";
},
{
name = "placement accent";
position = "{217, 712}";
},
{
name = top;
position = "{265, 649}";
},
{
name = topleft;
position = "{20, 649}";
}
);
guideLines = (
{
position = "{410, 382}";
}
);
layerId = "F6EE3598-E048-4269-B54C-F84174B7F0FB";
paths = (
{
closed = 1;
nodes = (
"430 535 LINE",
"430 650 LINE",
"100 650 LINE",
"100 535 LINE"
);
},
{
closed = 1;
nodes = (
"430 0 LINE",
"430 115 LINE",
"100 115 LINE",
"100 0 LINE"
);
},
{
closed = 1;
nodes = (
"380 267 LINE",
"380 382 LINE",
"100 382 LINE",
"100 267 LINE"
);
},
{
closed = 1;
nodes = (
"220 0 LINE",
"220 650 LINE",
"100 650 LINE",
"100 0 LINE"
);
}
);
width = 520;
}
);
leftMetricsKey = H;
note = E;
rightKerningGroup = E;
unicode = 0045;
},
{
glyphname = F;
lastChange = "2023-01-12 09:59:31 +0000";
layers = (
{
anchors = (
{
name = bottom;
position = "{260, 0}";
},
{
name = top;
position = "{260, 650}";
}
);
guideLines = (
{
position = "{444, 122}";
}
);
layerId = "DEEA460D-B437-4534-881A-9FF6A59DEC7E";
paths = (
{
closed = 1;
nodes = (
"420 638 LINE",
"420 650 LINE",
"120 650 LINE",
"120 638 LINE"
);
},
{
closed = 1;
nodes = (
"420 314 LINE",
"420 326 LINE",
"120 326 LINE",
"120 314 LINE"
);
},
{
closed = 1;
nodes = (
"132 0 LINE",
"132 650 LINE",
"120 650 LINE",
"120 0 LINE"
);
}
);
width = 520;
},
{
anchors = (
{
name = bottom;
position = "{260, 0}";
},
{
name = top;
position = "{260, 650}";
}
);
guideLines = (
{
position = "{444, 122}";
},
{
position = "{419, 382}";
}
);
layerId = "F6EE3598-E048-4269-B54C-F84174B7F0FB";
paths = (
{
closed = 1;
nodes = (
"430 535 LINE",
"430 650 LINE",
"100 650 LINE",
"100 535 LINE"
);
},
{
closed = 1;
nodes = (
"430 262 LINE",
"430 377 LINE",
"100 377 LINE",
"100 262 LINE"
);
},
{
closed = 1;
nodes = (
"220 0 LINE",
"220 650 LINE",
"100 650 LINE",
"100 0 LINE"
);
}
);
width = 520;
}
);
leftMetricsKey = H;
note = F;
rightKerningGroup = F;
unicode = 0046;
},
{
glyphname = G;
lastChange = "2023-01-12 08:32:11 +0000";
layers = (
{
anchors = (
{
name = bottom;
position = "{405, 0}";
},
{
name = top;
position = "{405, 649}";
}
);
layerId = "DEEA460D-B437-4534-881A-9FF6A59DEC7E";
paths = (
{
closed = 1;
nodes = (
"525 0 LINE",
"525 330 LINE",
"513 330 LINE",
"513 0 LINE"
);
},
{
closed = 1;
nodes = (
"525 0 LINE",
"525 12 LINE",
"395 12 LINE SMOOTH",
"213 12 OFFCURVE",
"92 137 OFFCURVE",
"92 325 CURVE",
"80 325 LINE",
"80 130 OFFCURVE",
"206 0 OFFCURVE",
"395 0 CURVE SMOOTH"
);
},
{
closed = 1;
nodes = (
"92 325 LINE",
"92 515 OFFCURVE",
"214 638 OFFCURVE",
"395 638 CURVE SMOOTH",
"515 638 LINE",
"515 650 LINE",
"395 650 LINE SMOOTH",
"206 650 OFFCURVE",
"80 519 OFFCURVE",
"80 325 CURVE"
);
}
);
width = 605;
},
{
anchors = (
{
name = bottom;
position = "{405, 0}";
},
{
name = top;
position = "{405, 649}";
}
);
layerId = "F6EE3598-E048-4269-B54C-F84174B7F0FB";
paths = (
{
closed = 1;
nodes = (
"525 0 LINE",
"525 330 LINE",
"405 330 LINE",
"405 0 LINE"
);
},
{
closed = 1;
nodes = (
"525 0 LINE",
"525 115 LINE",
"405 115 LINE SMOOTH",
"282 115 OFFCURVE",
"200 202 OFFCURVE",
"200 325 CURVE",
"80 325 LINE",
"80 130 OFFCURVE",
"206 0 OFFCURVE",
"395 0 CURVE SMOOTH"
);
},
{
closed = 1;
nodes = (
"200 325 LINE",
"200 447 OFFCURVE",
"282 535 OFFCURVE",
"405 535 CURVE SMOOTH",
"515 535 LINE",
"515 650 LINE",
"395 650 LINE SMOOTH",
"206 650 OFFCURVE",
"80 519 OFFCURVE",
"80 325 CURVE"
);
}
);
width = 605;
}
);
leftKerningGroup = O;
leftMetricsKey = O;
note = G;
rightKerningGroup = G;
rightMetricsKey = O;
unicode = 0047;
},
{
glyphname = H;
lastChange = "2023-01-12 14:04:06 +0000";
layers = (
{
anchors = (
{
name = bottom;
position = "{318, 0}";
},
{
name = center;
position = "{318, 325}";
},
{
name = top;
position = "{318, 650}";
},
{
name = topleft;
position = "{20, 650}";
}
);
layerId = "DEEA460D-B437-4534-881A-9FF6A59DEC7E";
paths = (
{
closed = 1;
nodes = (
"515 320 LINE",
"515 332 LINE",
"120 332 LINE",
"120 320 LINE"
);
},
{
closed = 1;
nodes = (
"132 0 LINE",
"132 650 LINE",
"120 650 LINE",
"120 0 LINE"
);
},
{
closed = 1;
nodes = (
"515 0 LINE",
"515 650 LINE",
"503 650 LINE",
"503 0 LINE"
);
}
);
width = 635;
},
{
anchors = (
{
name = bottom;
position = "{318, 0}";
},
{
name = center;
position = "{318, 325}";
},
{
name = top;
position = "{318, 650}";
},
{
name = topleft;
position = "{20, 650}";
}
);
guideLines = (
{
position = "{318, 268}";
}
);
layerId = "F6EE3598-E048-4269-B54C-F84174B7F0FB";
paths = (
{
closed = 1;
nodes = (
"469 268 LINE",
"469 383 LINE",
"167 383 LINE",
"167 268 LINE"
);
},
{
closed = 1;
nodes = (
"220 0 LINE",
"220 650 LINE",
"100 650 LINE",
"100 0 LINE"
);
},
{
closed = 1;
nodes = (
"535 0 LINE",
"535 650 LINE",
"415 650 LINE",
"415 0 LINE"
);
}
);
width = 635;
}
);
note = H;
unicode = 0048;
},
{
glyphname = Hbar;
lastChange = "2023-01-12 08:32:11 +0000";
layers = (
{
anchors = (
{
name = bottom;
position = "{318, 0}";
},
{
name = center;
position = "{318, 325}";
},
{
name = ogonek;
position = "{508, 0}";
},
{
name = top;
position = "{318, 650}";
},
{
name = topleft;
position = "{30, 650}";
}
);
layerId = "DEEA460D-B437-4534-881A-9FF6A59DEC7E";
paths = (
{
closed = 1;
nodes = (
"30 520 LINE",
"605 520 LINE",
"605 532 LINE",
"30 532 LINE"
);
},
{
closed = 1;
nodes = (
"515 320 LINE",
"515 332 LINE",
"120 332 LINE",
"120 320 LINE"
);
},
{
closed = 1;
nodes = (
"132 0 LINE",
"132 650 LINE",
"120 650 LINE",
"120 0 LINE"
);
},
{
closed = 1;
nodes = (
"515 0 LINE",
"515 650 LINE",
"503 650 LINE",
"503 0 LINE"
);
}
);
width = 635;
},
{
anchors = (
{
name = bottom;
position = "{318, 0}";
},
{
name = center;
position = "{318, 325}";
},
{
name = ogonek;
position = "{493, 0}";
},
{
name = top;
position = "{318, 650}";
},
{
name = topleft;
position = "{30, 650}";
}
);
layerId = "F6EE3598-E048-4269-B54C-F84174B7F0FB";
paths = (
{
closed = 1;
nodes = (
"30 476 LINE",
"605 476 LINE",
"605 576 LINE",
"30 576 LINE"
);
},
{
closed = 1;
nodes = (
"469 268 LINE",
"469 383 LINE",
"166 383 LINE",
"166 268 LINE"
);
},
{
closed = 1;
nodes = (
"220 0 LINE",
"220 650 LINE",
"100 650 LINE",
"100 0 LINE"
);
},
{
closed = 1;
nodes = (
"535 0 LINE",
"535 650 LINE",
"415 650 LINE",
"415 0 LINE"
);
}
);
width = 635;
}
);
unicode = 0126;
},
{
glyphname = I;
lastChange = "2023-01-12 08:32:11 +0000";
layers = (
{
anchors = (
{
name = bottom;
position = "{150, 0}";
},
{
name = ogonek;
position = "{149, 0}";
},
{
name = top;
position = "{150, 649}";
},
{
name = topleft;
position = "{10, 649}";
}
);
layerId = "DEEA460D-B437-4534-881A-9FF6A59DEC7E";
paths = (
{
closed = 1;
nodes = (
"156 0 LINE",
"156 650 LINE",
"144 650 LINE",
"144 0 LINE"
);
}
);
width = 300;
},
{
anchors = (
{
name = bottom;
position = "{150, 0}";
},
{
name = ogonek;
position = "{168, 0}";
},
{
name = top;
position = "{150, 649}";
},
{
name = topleft;
position = "{10, 649}";
}
);
layerId = "F6EE3598-E048-4269-B54C-F84174B7F0FB";
paths = (
{
closed = 1;
nodes = (
"210 0 LINE",
"210 650 LINE",
"90 650 LINE",
"90 0 LINE"
);
}
);
width = 300;
}
);
note = I;
unicode = 0049;
},
{
glyphname = IJ;
lastChange = "2023-01-12 08:32:11 +0000";
layers = (
{
layerId = "DEEA460D-B437-4534-881A-9FF6A59DEC7E";
paths = (
{
closed = 1;
nodes = (
"132 300 LINE",
"132 649 LINE",
"120 649 LINE",
"120 300 LINE"
);
},
{
closed = 1;
nodes = (
"349 -10 OFFCURVE",
"416 54 OFFCURVE",
"416 150 CURVE SMOOTH",
"416 649 LINE",
"404 649 LINE",
"404 150 LINE SMOOTH",
"404 60 OFFCURVE",
"343 2 OFFCURVE",
"268 2 CURVE SMOOTH",
"193 2 OFFCURVE",
"132 60 OFFCURVE",
"132 150 CURVE SMOOTH",
"132 181 LINE",
"120 181 LINE",
"120 150 LINE SMOOTH",
"120 54 OFFCURVE",
"187 -10 OFFCURVE",
"268 -10 CURVE SMOOTH"
);
}
);
width = 536;
},
{
layerId = "F6EE3598-E048-4269-B54C-F84174B7F0FB";
paths = (
{
closed = 1;
nodes = (
"220 300 LINE",
"220 649 LINE",
"100 649 LINE",
"100 300 LINE"
);
},
{
closed = 1;
nodes = (
"369 -20 OFFCURVE",
"436 44 OFFCURVE",
"436 140 CURVE SMOOTH",
"436 649 LINE",
"316 649 LINE",
"316 145 LINE SMOOTH",
"316 116 OFFCURVE",
"297 97 OFFCURVE",
"268 97 CURVE SMOOTH",
"239 97 OFFCURVE",
"220 116 OFFCURVE",
"220 145 CURVE SMOOTH",
"220 200 LINE",
"100 200 LINE",
"100 140 LINE SMOOTH",
"100 44 OFFCURVE",
"167 -20 OFFCURVE",
"268 -20 CURVE SMOOTH"
);
}
);
width = 536;
}
);
leftMetricsKey = H;
rightMetricsKey = H;
unicode = "0132,0133";
},
{
glyphname = J;
lastChange = "2023-01-12 14:03:32 +0000";
layers = (
{
anchors = (
{
name = bottom;
position = "{218, 0}";
},
{
name = top;
position = "{360, 650}";
}
);
guideLines = (
{
position = "{544, -10}";
}
);
layerId = "DEEA460D-B437-4534-881A-9FF6A59DEC7E";
paths = (
{
closed = 1;
nodes = (
"299 -10 OFFCURVE",
"366 54 OFFCURVE",
"366 150 CURVE SMOOTH",
"366 650 LINE",
"354 650 LINE",
"354 150 LINE SMOOTH",
"354 60 OFFCURVE",
"293 2 OFFCURVE",
"218 2 CURVE SMOOTH",
"143 2 OFFCURVE",
"82 60 OFFCURVE",
"82 150 CURVE SMOOTH",
"82 276 LINE",
"70 276 LINE",
"70 150 LINE SMOOTH",
"70 54 OFFCURVE",
"137 -10 OFFCURVE",
"218 -10 CURVE SMOOTH"
);
}
);
width = 486;
},
{
anchors = (
{
name = bottom;
position = "{218, 0}";
},
{
name = top;
position = "{326, 650}";
}
);
layerId = "F6EE3598-E048-4269-B54C-F84174B7F0FB";
paths = (
{
closed = 1;
nodes = (
"319 -20 OFFCURVE",
"386 44 OFFCURVE",
"386 140 CURVE SMOOTH",
"386 650 LINE",
"266 650 LINE",
"266 145 LINE SMOOTH",
"266 116 OFFCURVE",
"247 97 OFFCURVE",
"218 97 CURVE SMOOTH",
"189 97 OFFCURVE",
"170 116 OFFCURVE",
"170 145 CURVE SMOOTH",
"170 276 LINE",
"50 276 LINE",
"50 140 LINE SMOOTH",
"50 44 OFFCURVE",
"117 -20 OFFCURVE",
"218 -20 CURVE SMOOTH"
);
}
);
width = 486;
},
{
anchors = (
{
name = bottom;
position = "{268, 0}";
},
{
name = top;
position = "{268, 649}";
}
);
associatedMasterId = "DEEA460D-B437-4534-881A-9FF6A59DEC7E";
layerId = "739E8D2C-FC35-44F6-B6C0-5384DD1EA6F2";
name = "Apr 28 21, 16:49";
paths = (
{
closed = 1;
nodes = (
"369 -20 OFFCURVE",
"436 44 OFFCURVE",
"436 140 CURVE SMOOTH",
"436 649 LINE",
"316 649 LINE",
"316 145 LINE SMOOTH",
"316 116 OFFCURVE",
"297 97 OFFCURVE",
"268 97 CURVE SMOOTH",
"239 97 OFFCURVE",
"220 116 OFFCURVE",
"220 145 CURVE SMOOTH",
"220 276 LINE",
"100 276 LINE",
"100 140 LINE SMOOTH",
"100 44 OFFCURVE",
"167 -20 OFFCURVE",
"268 -20 CURVE SMOOTH"
);
}
);
width = 536;
}
);
leftKerningGroup = J;
note = J;
rightMetricsKey = H;
unicode = 004A;
},
{
glyphname = K;
lastChange = "2023-01-12 08:32:11 +0000";
layers = (
{
anchors = (
{
name = bottom;
position = "{308, 0}";
},
{
name = top;
position = "{308, 649}";
}
);
guideLines = (
{
position = "{370, 318}";
},
{
angle = 90;
position = "{517, 649}";
}
);
layerId = "DEEA460D-B437-4534-881A-9FF6A59DEC7E";
paths = (
{
closed = 1;
nodes = (
"379 306 LINE",
"522 650 LINE",
"509 650 LINE",
"366 306 LINE"
);
},
{
closed = 1;
nodes = (
"378 306 LINE",
"378 318 LINE",
"120 318 LINE",
"120 306 LINE"
);
},
{
closed = 1;
nodes = (
"540 0 LINE",
"384 318 LINE",
"379 318 LINE",
"370 318 LINE",
"529 0 LINE"
);
},
{
closed = 1;
nodes = (
"132 0 LINE",
"132 650 LINE",
"120 650 LINE",
"120 0 LINE"
);
}
);
width = 590;
},
{
associatedMasterId = "DEEA460D-B437-4534-881A-9FF6A59DEC7E";
guideLines = (
{
position = "{339, 252}";
}
);
layerId = "E41AD72B-150C-40D3-9A8F-8EC23E8E92C7";
name = "Jan 21 21, 21:58";
paths = (
{
closed = 1;
nodes = (
"370 198 LINE",
"370 318 LINE",
"100 318 LINE",
"100 198 LINE"
);
},
{
closed = 1;
nodes = (
"520 649 LINE",
"404 649 LINE",
"219 252 LINE",
"335 252 LINE"
);
},
{
closed = 1;
nodes = (
"417 0 LINE",
"535 0 LINE",
"344 389 LINE",
"310 213 LINE"
);
},
{
closed = 1;
nodes = (
"166 0 LINE",
"166 650 LINE",
"154 650 LINE",
"154 0 LINE"
);
}
);
width = 615;
},
{
anchors = (
{
name = bottom;
position = "{308, 0}";
},
{
name = top;
position = "{308, 649}";
}
);
guideLines = (
{
position = "{370, 318}";
}
);
layerId = "F6EE3598-E048-4269-B54C-F84174B7F0FB";
paths = (
{
closed = 1;
nodes = (
"352 253 LINE",
"517 650 LINE",
"398 650 LINE",
"233 253 LINE"
);
},
{
closed = 1;
nodes = (
"370 203 LINE",
"370 318 LINE",
"100 318 LINE",
"100 203 LINE"
);
},
{
closed = 1;
nodes = (
"540 0 LINE",
"380 326 LINE",
"339 318 LINE",
"259 318 LINE",
"418 0 LINE"
);
},
{
closed = 1;
nodes = (
"220 0 LINE",
"220 650 LINE",
"100 650 LINE",
"100 0 LINE"
);
}
);
width = 590;
},
{
associatedMasterId = "F6EE3598-E048-4269-B54C-F84174B7F0FB";
guideLines = (
{
position = "{339, 252}";
}
);
layerId = "D1F4E6CB-F967-4E57-8A64-097CC3E10496";
name = "Jan 21 21, 21:58";
paths = (
{
closed = 1;
nodes = (
"370 198 LINE",
"370 318 LINE",
"100 318 LINE",
"100 198 LINE"
);
},
{
closed = 1;
nodes = (
"520 649 LINE",
"404 649 LINE",
"219 252 LINE",
"335 252 LINE"
);
},
{
closed = 1;
nodes = (
"417 0 LINE",
"535 0 LINE",
"344 389 LINE",
"310 213 LINE"
);
},
{
closed = 1;
nodes = (
"220 0 LINE",
"220 650 LINE",
"100 650 LINE",
"100 0 LINE"
);
}
);
width = 615;
},
{
anchors = (
{
name = bottom;
position = "{308, 0}";
},
{
name = top;
position = "{308, 649}";
}
);
associatedMasterId = "DEEA460D-B437-4534-881A-9FF6A59DEC7E";
guideLines = (
{
position = "{370, 318}";
},
{
angle = 90;
position = "{517, 649}";
}
);
layerId = "12871F14-B6E8-45A7-AB1F-99428582EA34";
name = "Apr 28 21, 17:54";
paths = (
{
closed = 1;
nodes = (
"280 306 LINE",
"522 649 LINE",
"507 649 LINE",
"265 306 LINE"
);
},
{
closed = 1;
nodes = (
"275 306 LINE",
"275 318 LINE",
"120 318 LINE",
"120 306 LINE"
);
},
{
closed = 1;
nodes = (
"540 0 LINE",
"281 318 LINE",
"264 318 LINE",
"526 0 LINE"
);
},
{
closed = 1;
nodes = (
"132 0 LINE",
"132 650 LINE",
"120 650 LINE",
"120 0 LINE"
);
}
);
width = 630;
},
{
anchors = (
{
name = bottom;
position = "{308, 0}";
},
{
name = top;
position = "{308, 649}";
}
);
associatedMasterId = "DEEA460D-B437-4534-881A-9FF6A59DEC7E";
guideLines = (
{
position = "{370, 318}";
},
{
angle = 90;
position = "{517, 649}";
}
);
layerId = "205E11A7-008B-4891-A0AC-EED37A5BF00B";
name = "Apr 28 21, 17:55";
paths = (
{
closed = 1;
nodes = (
"380 306 LINE",
"522 649 LINE",
"509 649 LINE",
"367 306 LINE"
);
},
{
closed = 1;
nodes = (
"375 306 LINE",
"375 318 LINE",
"120 318 LINE",
"120 306 LINE"
);
},
{
closed = 1;
nodes = (
"540 0 LINE",
"381 318 LINE",
"367 318 LINE",
"529 0 LINE"
);
},
{
closed = 1;
nodes = (
"132 0 LINE",
"132 650 LINE",
"120 650 LINE",
"120 0 LINE"
);
}
);
width = 630;
}
);
leftMetricsKey = H;
note = K;
rightKerningGroup = X;
rightMetricsKey = A;
unicode = 004B;
},
{
glyphname = L;
lastChange = "2023-01-12 08:32:11 +0000";
layers = (
{
anchors = (
{
name = bottom;
position = "{283, 0}";
},
{
name = center;
position = "{283, 325}";
},
{
name = top;
position = "{126, 649}";
},
{
name = topright;
position = "{545, 649}";
}
);
layerId = "DEEA460D-B437-4534-881A-9FF6A59DEC7E";
paths = (
{
closed = 1;
nodes = (
"485 0 LINE",
"485 12 LINE",
"120 12 LINE",
"120 0 LINE"
);
},
{
closed = 1;
nodes = (
"132 0 LINE",
"132 650 LINE",
"120 650 LINE",
"120 0 LINE"
);
}
);
width = 535;
},
{
anchors = (
{
name = bottom;
position = "{283, 0}";
},
{
name = center;
position = "{283, 325}";
},
{
name = top;
position = "{160, 649}";
},
{
name = topright;
position = "{545, 649}";
}
);
layerId = "F6EE3598-E048-4269-B54C-F84174B7F0FB";
paths = (
{
closed = 1;
nodes = (
"485 0 LINE",
"485 120 LINE",
"100 120 LINE",
"100 0 LINE"
);
},
{
closed = 1;
nodes = (
"220 0 LINE",
"220 650 LINE",
"100 650 LINE",
"100 0 LINE"
);
}
);
width = 535;
}
);
leftMetricsKey = H;
note = L;
rightKerningGroup = L;
rightMetricsKey = A;
unicode = 004C;
},
{
glyphname = Lslash;
lastChange = "2023-01-12 08:32:11 +0000";
layers = (
{
anchors = (
{
name = bottom;
position = "{283, 0}";
},
{
name = center;
position = "{283, 325}";
},
{
name = top;
position = "{126, 649}";
},
{
name = topright;
position = "{545, 649}";
}
);
layerId = "DEEA460D-B437-4534-881A-9FF6A59DEC7E";
paths = (
{
closed = 1;
nodes = (
"325 433 LINE",
"325 448 LINE",
"50 240 LINE",
"50 224 LINE"
);
},
{
closed = 1;
nodes = (
"485 0 LINE",
"485 12 LINE",
"120 12 LINE",
"120 0 LINE"
);
},
{
closed = 1;
nodes = (
"132 0 LINE",
"132 650 LINE",
"120 650 LINE",
"120 0 LINE"
);
}
);
width = 535;
},
{
anchors = (
{
name = bottom;
position = "{283, 0}";
},
{
name = center;
position = "{283, 325}";
},
{
name = top;
position = "{160, 649}";
},
{
name = topright;
position = "{545, 649}";
}
);
layerId = "F6EE3598-E048-4269-B54C-F84174B7F0FB";
paths = (
{
closed = 1;
nodes = (
"325 372 LINE",
"325 510 LINE",
"50 302 LINE",
"50 163 LINE"
);
},
{
closed = 1;
nodes = (
"485 0 LINE",
"485 120 LINE",
"100 120 LINE",
"100 0 LINE"
);
},
{
closed = 1;
nodes = (
"220 0 LINE",
"220 650 LINE",
"100 650 LINE",
"100 0 LINE"
);
}
);
width = 535;
}
);
rightKerningGroup = L;
rightMetricsKey = L;
unicode = 0141;
},
{
glyphname = M;
lastChange = "2023-01-12 08:32:11 +0000";
layers = (
{
anchors = (
{
name = bottom;
position = "{418, 0}";
},
{
name = ogonek;
position = "{684, 0}";
},
{
name = top;
position = "{418, 650}";
},
{
name = topleft;
position = "{526, 649}";
}
);
layerId = "F6EE3598-E048-4269-B54C-F84174B7F0FB";
paths = (
{
closed = 1;
nodes = (
"463 267 LINE",
"463 382 LINE",
"418 382 LINE",
"220 650 LINE",
"145 650 LINE",
"145 535 LINE",
"170 535 LINE",
"368 267 LINE"
);
},
{
closed = 1;
nodes = (
"666 535 LINE",
"691 535 LINE",
"691 650 LINE",
"616 650 LINE",
"418 382 LINE",
"373 382 LINE",
"373 267 LINE",
"468 267 LINE"
);
},
{
closed = 1;
nodes = (
"220 0 LINE",
"220 650 LINE",
"100 650 LINE",
"100 0 LINE"
);
},
{
closed = 1;
nodes = (
"736 0 LINE",
"736 650 LINE",
"616 650 LINE",
"616 0 LINE"
);
}
);
width = 836;
},
{
anchors = (
{
name = bottom;
position = "{425, 0}";
},
{
name = top;
position = "{425, 649}";
}
);
associatedMasterId = "F6EE3598-E048-4269-B54C-F84174B7F0FB";
layerId = "B34FFD73-1B20-4B15-8C5D-151A591951A4";
name = "Apr 29 21, 08:42";
paths = (
{
closed = 1;
nodes = (
"217 0 LINE",
"217 472 LINE",
"214 471 LINE",
"366 266 LINE",
"484 266 LINE",
"636 471 LINE",
"633 472 LINE",
"633 0 LINE",
"750 0 LINE",
"750 649 LINE",
"633 649 LINE",
"372 296 LINE",
"478 296 LINE",
"217 649 LINE",
"100 649 LINE",
"100 0 LINE"
);
}
);
width = 850;
},
{
associatedMasterId = "DEEA460D-B437-4534-881A-9FF6A59DEC7E";
components = (
{
name = I;
},
{
name = I;
transform = "{1, 0, 0, 1, 584, 0}";
}
);
guideLines = (
{
position = "{129, 546}";
},
{
position = "{292, 310}";
},
{
position = "{564, 322}";
},
{
angle = 90;
position = "{200, 693}";
},
{
angle = 90;
position = "{636, 721}";
}
);
layerId = "841E1447-6349-49E4-919E-460D9DC54B6C";
name = "Apr 29 21, 08:51";
paths = (
{
closed = 1;
nodes = (
"439 266 LINE",
"439 381 LINE",
"394 381 LINE",
"196 649 LINE",
"121 649 LINE",
"121 534 LINE",
"146 534 LINE",
"344 266 LINE"
);
},
{
closed = 1;
nodes = (
"666 534 LINE",
"691 534 LINE",
"691 649 LINE",
"616 649 LINE",
"418 381 LINE",
"373 381 LINE",
"373 266 LINE",
"468 266 LINE"
);
}
);
width = 836;
},
{
anchors = (
{
name = bottom;
position = "{418, 0}";
},
{
name = ogonek;
position = "{699, 0}";
},
{
name = top;
position = "{418, 650}";
},
{
name = topleft;
position = "{560, 649}";
}
);
guideLines = (
{
position = "{119, 546}";
},
{
position = "{592, 310}";
}
);
layerId = "DEEA460D-B437-4534-881A-9FF6A59DEC7E";
paths = (
{
closed = 1;
nodes = (
"435 311 LINE",
"435 323 LINE",
"385 323 LINE",
"201 650 LINE",
"120 650 LINE",
"120 638 LINE",
"194 638 LINE",
"378 311 LINE"
);
},
{
closed = 1;
nodes = (
"642 638 LINE",
"716 638 LINE",
"716 650 LINE",
"635 650 LINE",
"451 323 LINE",
"401 323 LINE",
"401 311 LINE",
"458 311 LINE"
);
},
{
closed = 1;
nodes = (
"132 0 LINE",
"132 650 LINE",
"120 650 LINE",
"120 0 LINE"
);
},
{
closed = 1;
nodes = (
"716 0 LINE",
"716 650 LINE",
"704 650 LINE",
"704 0 LINE"
);
}
);
width = 836;
}
);
leftMetricsKey = H;
note = M;
rightMetricsKey = H;
unicode = 004D;
},
{
glyphname = N;
lastChange = "2023-01-12 12:13:52 +0000";
layers = (
{
anchors = (
{
name = bottom;
position = "{318, 0}";
},
{
name = top;
position = "{318, 650}";
}
);
layerId = "DEEA460D-B437-4534-881A-9FF6A59DEC7E";
paths = (
{
closed = 1;
nodes = (
"515 311 LINE",
"515 323 LINE",
"441 323 LINE",
"200 650 LINE",
"120 650 LINE",
"120 638 LINE",
"194 638 LINE",
"435 311 LINE"
);
},
{
closed = 1;
nodes = (
"132 0 LINE",
"132 650 LINE",
"120 650 LINE",
"120 0 LINE"
);
},
{
closed = 1;
nodes = (
"515 0 LINE",
"515 650 LINE",
"503 650 LINE",
"503 0 LINE"
);
}
);
width = 635;
},
{
anchors = (
{
name = bottom;
position = "{318, 0}";
},
{
name = top;
position = "{318, 650}";
}
);
layerId = "F6EE3598-E048-4269-B54C-F84174B7F0FB";
paths = (
{
closed = 1;
nodes = (
"460 267 LINE",
"460 382 LINE",
"415 382 LINE",
"220 650 LINE",
"145 650 LINE",
"145 535 LINE",
"170 535 LINE",
"365 267 LINE"
);
},
{
closed = 1;
nodes = (
"220 0 LINE",
"220 650 LINE",
"100 650 LINE",
"100 0 LINE"
);
},
{
closed = 1;
nodes = (
"535 0 LINE",
"535 650 LINE",
"415 650 LINE",
"415 0 LINE"
);
}
);
width = 635;
}
);
leftMetricsKey = H;
note = N;
rightMetricsKey = H;
unicode = 004E;
},
{
glyphname = Eng;
lastChange = "2023-01-12 08:32:11 +0000";
layers = (
{
anchors = (
{
name = bottom;
position = "{126, 0}";
},
{
name = ogonek;
position = "{125, 0}";
},
{
name = top;
position = "{126, 649}";
},
{
name = topleft;
position = "{-14, 649}";
}
);
layerId = "DEEA460D-B437-4534-881A-9FF6A59DEC7E";
paths = (
{
closed = 1;
nodes = (
"515 310 LINE",
"515 322 LINE",
"441 322 LINE",
"200 649 LINE",
"120 649 LINE",
"120 637 LINE",
"194 637 LINE",
"435 310 LINE"
);
},
{
closed = 1;
nodes = (
"515 -200 LINE",
"515 649 LINE",
"503 649 LINE",
"503 -200 LINE"
);
},
{
closed = 1;
nodes = (
"359 -200 LINE",
"515 -200 LINE",
"515 -188 LINE",
"359 -188 LINE"
);
},
{
closed = 1;
nodes = (
"132 0 LINE",
"132 650 LINE",
"120 650 LINE",
"120 0 LINE"
);
}
);
width = 635;
},
{
anchors = (
{
name = bottom;
position = "{160, 0}";
},
{
name = ogonek;
position = "{178, 0}";
},
{
name = top;
position = "{160, 649}";
},
{
name = topleft;
position = "{20, 649}";
}
);
layerId = "F6EE3598-E048-4269-B54C-F84174B7F0FB";
paths = (
{
closed = 1;
nodes = (
"463 266 LINE",
"463 381 LINE",
"418 381 LINE",
"220 649 LINE",
"145 649 LINE",
"145 534 LINE",
"170 534 LINE",
"368 266 LINE"
);
},
{
closed = 1;
nodes = (
"535 -200 LINE",
"535 649 LINE",
"415 649 LINE",
"415 -200 LINE"
);
},
{
closed = 1;
nodes = (
"319 -200 LINE",
"535 -200 LINE",
"535 -90 LINE",
"319 -90 LINE"
);
},
{
closed = 1;
nodes = (
"220 0 LINE",
"220 650 LINE",
"100 650 LINE",
"100 0 LINE"
);
}
);
width = 635;
}
);
leftMetricsKey = N;
rightMetricsKey = N;
unicode = 014A;
},
{
glyphname = O;
lastChange = "2023-01-12 17:15:30 +0000";
layers = (
{
anchors = (
{
name = bottom;
position = "{420, 0}";
},
{
name = center;
position = "{420, 324}";
},
{
name = ogonek;
position = "{746, 10}";
},
{
name = top;
position = "{420, 648}";
},
{
name = topleft;
position = "{33, 649}";
},
{
name = topright;
position = "{807, 649}";
}
);
guideLines = (
{
position = "{420, -16}";
},
{
angle = 90;
position = "{420, 141}";
}
);
layerId = "DEEA460D-B437-4534-881A-9FF6A59DEC7E";
paths = (
{
closed = 1;
nodes = (
"608 -16 OFFCURVE",
"760 136 OFFCURVE",
"760 324 CURVE SMOOTH",
"760 512 OFFCURVE",
"608 664 OFFCURVE",
"420 664 CURVE SMOOTH",
"232 664 OFFCURVE",
"80 512 OFFCURVE",
"80 324 CURVE SMOOTH",
"80 136 OFFCURVE",
"232 -16 OFFCURVE",
"420 -16 CURVE SMOOTH"
);
},
{
closed = 1;
nodes = (
"238 -4 OFFCURVE",
"92 142 OFFCURVE",
"92 324 CURVE SMOOTH",
"92 506 OFFCURVE",
"238 652 OFFCURVE",
"420 652 CURVE SMOOTH",
"602 652 OFFCURVE",
"748 506 OFFCURVE",
"748 324 CURVE SMOOTH",
"748 142 OFFCURVE",
"599 -4 OFFCURVE",
"420 -4 CURVE SMOOTH"
);
}
);
width = 840;
},
{
anchors = (
{
name = bottom;
position = "{420, 0}";
},
{
name = center;
position = "{420, 324}";
},
{
name = ogonek;
position = "{746, 10}";
},
{
name = top;
position = "{420, 648}";
},
{
name = topleft;
position = "{33, 649}";
},
{
name = topright;
position = "{807, 649}";
}
);
guideLines = (
{
position = "{420, -16}";
},
{
angle = 90;
position = "{420, 141}";
}
);
layerId = "F6EE3598-E048-4269-B54C-F84174B7F0FB";
paths = (
{
closed = 1;
nodes = (
"608 -16 OFFCURVE",
"760 136 OFFCURVE",
"760 324 CURVE SMOOTH",
"760 512 OFFCURVE",
"608 664 OFFCURVE",
"420 664 CURVE SMOOTH",
"232 664 OFFCURVE",
"80 512 OFFCURVE",
"80 324 CURVE SMOOTH",
"80 136 OFFCURVE",
"232 -16 OFFCURVE",
"420 -16 CURVE SMOOTH"
);
},
{
closed = 1;
nodes = (
"301 109 OFFCURVE",
"205 205 OFFCURVE",
"205 324 CURVE SMOOTH",
"205 443 OFFCURVE",
"301 539 OFFCURVE",
"420 539 CURVE SMOOTH",
"539 539 OFFCURVE",
"635 444 OFFCURVE",
"635 324 CURVE SMOOTH",
"635 205 OFFCURVE",
"538 109 OFFCURVE",
"420 109 CURVE SMOOTH"
);
}
);
width = 840;
}
);
leftKerningGroup = O;
note = O;
rightKerningGroup = O;
unicode = 004F;
},
{
glyphname = Oslash;
lastChange = "2023-01-12 08:32:11 +0000";
layers = (
{
guideLines = (
{
position = "{759, -15}";
},
{
position = "{493, 665}";
}
);
layerId = "DEEA460D-B437-4534-881A-9FF6A59DEC7E";
paths = (
{
closed = 1;
nodes = (
"157 0 LINE",
"718 649 LINE",
"702 649 LINE",
"141 0 LINE"
);
},
{
closed = 1;
nodes = (
"620 -16 OFFCURVE",
"770 134 OFFCURVE",
"770 324 CURVE SMOOTH",
"770 514 OFFCURVE",
"620 664 OFFCURVE",
"430 664 CURVE SMOOTH",
"240 664 OFFCURVE",
"90 514 OFFCURVE",
"90 324 CURVE SMOOTH",
"90 134 OFFCURVE",
"240 -16 OFFCURVE",
"430 -16 CURVE SMOOTH"
);
},
{
closed = 1;
nodes = (
"246 -4 OFFCURVE",
"102 140 OFFCURVE",
"102 324 CURVE SMOOTH",
"102 508 OFFCURVE",
"246 652 OFFCURVE",
"430 652 CURVE SMOOTH",
"614 652 OFFCURVE",
"758 508 OFFCURVE",
"758 324 CURVE SMOOTH",
"758 140 OFFCURVE",
"614 -4 OFFCURVE",
"430 -4 CURVE SMOOTH"
);
}
);
width = 860;
},
{
guideLines = (
{
position = "{768, -15}";
},
{
position = "{502, 665}";
}
);
layerId = "F6EE3598-E048-4269-B54C-F84174B7F0FB";
paths = (
{
closed = 1;
nodes = (
"222 0 LINE",
"783 649 LINE",
"637 649 LINE",
"76 0 LINE"
);
},
{
closed = 1;
nodes = (
"618 -16 OFFCURVE",
"770 136 OFFCURVE",
"770 324 CURVE SMOOTH",
"770 512 OFFCURVE",
"618 664 OFFCURVE",
"430 664 CURVE SMOOTH",
"242 664 OFFCURVE",
"90 512 OFFCURVE",
"90 324 CURVE SMOOTH",
"90 136 OFFCURVE",
"242 -16 OFFCURVE",
"430 -16 CURVE SMOOTH"
);
},
{
closed = 1;
nodes = (
"308 104 OFFCURVE",
"210 202 OFFCURVE",
"210 324 CURVE SMOOTH",
"210 446 OFFCURVE",
"308 544 OFFCURVE",
"430 544 CURVE SMOOTH",
"552 544 OFFCURVE",
"650 446 OFFCURVE",
"650 324 CURVE SMOOTH",
"650 202 OFFCURVE",
"551 104 OFFCURVE",
"430 104 CURVE SMOOTH"
);
}
);
width = 860;
}
);
leftKerningGroup = O;
rightKerningGroup = O;
unicode = 00D8;
},
{
glyphname = OE;
lastChange = "2023-01-12 08:32:11 +0000";
layers = (
{
layerId = "DEEA460D-B437-4534-881A-9FF6A59DEC7E";
paths = (
{
closed = 1;
nodes = (
"725 638 LINE",
"725 650 LINE",
"469 650 LINE",
"469 638 LINE"
);
},
{
closed = 1;
nodes = (
"725 0 LINE",
"725 12 LINE",
"469 12 LINE",
"469 0 LINE"
);
},
{
closed = 1;
nodes = (
"675 318 LINE",
"675 330 LINE",
"469 330 LINE",
"469 318 LINE"
);
},
{
closed = 1;
nodes = (
"481 0 LINE",
"481 650 LINE",
"469 650 LINE",
"469 0 LINE"
);
},
{
closed = 1;
nodes = (
"515 0 LINE",
"515 12 LINE",
"395 12 LINE SMOOTH",
"213 12 OFFCURVE",
"92 137 OFFCURVE",
"92 325 CURVE",
"80 325 LINE",
"80 130 OFFCURVE",
"206 0 OFFCURVE",
"395 0 CURVE SMOOTH"
);
},
{
closed = 1;
nodes = (
"92 325 LINE",
"92 515 OFFCURVE",
"214 638 OFFCURVE",
"395 638 CURVE SMOOTH",
"515 638 LINE",
"515 650 LINE",
"395 650 LINE SMOOTH",
"206 650 OFFCURVE",
"80 519 OFFCURVE",
"80 325 CURVE"
);
}
);
width = 825;
},
{
layerId = "F6EE3598-E048-4269-B54C-F84174B7F0FB";
paths = (
{
closed = 1;
nodes = (
"735 529 LINE",
"735 649 LINE",
"415 649 LINE",
"415 529 LINE"
);
},
{
closed = 1;
nodes = (
"735 0 LINE",
"735 120 LINE",
"415 120 LINE",
"415 0 LINE"
);
},
{
closed = 1;
nodes = (
"685 264 LINE",
"685 384 LINE",
"415 384 LINE",
"415 264 LINE"
);
},
{
closed = 1;
nodes = (
"535 0 LINE",
"535 650 LINE",
"415 650 LINE",
"415 0 LINE"
);
},
{
closed = 1;
nodes = (
"515 0 LINE",
"515 115 LINE",
"405 115 LINE SMOOTH",
"282 115 OFFCURVE",
"200 202 OFFCURVE",
"200 325 CURVE",
"80 325 LINE",
"80 130 OFFCURVE",
"206 0 OFFCURVE",
"395 0 CURVE SMOOTH"
);
},
{
closed = 1;
nodes = (
"200 325 LINE",
"200 447 OFFCURVE",
"282 535 OFFCURVE",
"405 535 CURVE SMOOTH",
"515 535 LINE",
"515 650 LINE",
"395 650 LINE SMOOTH",
"206 650 OFFCURVE",
"80 519 OFFCURVE",
"80 325 CURVE"
);
}
);
width = 825;
}
);
leftKerningGroup = O;
leftMetricsKey = O;
rightKerningGroup = E;
rightMetricsKey = E;
unicode = 0152;
},
{
glyphname = P;
lastChange = "2023-01-12 14:40:48 +0000";
layers = (
{
anchors = (
{
name = bottom;
position = "{313, 0}";
},
{
name = top;
position = "{313, 650}";
}
);
layerId = "DEEA460D-B437-4534-881A-9FF6A59DEC7E";
paths = (
{
closed = 1;
nodes = (
"320 214 LINE SMOOTH",
"449 214 OFFCURVE",
"535 301 OFFCURVE",
"535 432 CURVE SMOOTH",
"535 563 OFFCURVE",
"449 650 OFFCURVE",
"320 650 CURVE SMOOTH",
"120 650 LINE",
"120 638 LINE",
"320 638 LINE SMOOTH",
"443 638 OFFCURVE",
"523 557 OFFCURVE",
"523 432 CURVE SMOOTH",
"523 307 OFFCURVE",
"443 226 OFFCURVE",
"320 226 CURVE SMOOTH",
"120 226 LINE",
"120 214 LINE"
);
},
{
closed = 1;
nodes = (
"132 0 LINE",
"132 650 LINE",
"120 650 LINE",
"120 0 LINE"
);
}
);
width = 605;
},
{
anchors = (
{
name = bottom;
position = "{313, 0}";
},
{
name = top;
position = "{313, 650}";
}
);
layerId = "F6EE3598-E048-4269-B54C-F84174B7F0FB";
paths = (
{
closed = 1;
nodes = (
"320 214 LINE SMOOTH",
"449 214 OFFCURVE",
"535 301 OFFCURVE",
"535 432 CURVE SMOOTH",
"535 563 OFFCURVE",
"449 650 OFFCURVE",
"320 650 CURVE SMOOTH",
"100 650 LINE",
"100 535 LINE",
"315 535 LINE SMOOTH",
"375 535 OFFCURVE",
"415 491 OFFCURVE",
"415 432 CURVE SMOOTH",
"415 373 OFFCURVE",
"375 329 OFFCURVE",
"315 329 CURVE SMOOTH",
"100 329 LINE",
"100 214 LINE"
);
},
{
closed = 1;
nodes = (
"220 0 LINE",
"220 650 LINE",
"100 650 LINE",
"100 0 LINE"
);
}
);
width = 605;
}
);
leftMetricsKey = H;
note = P;
rightKerningGroup = P;
unicode = 0050;
},
{
glyphname = Thorn;
lastChange = "2023-01-10 09:58:15 +0000";
layers = (
{
anchors = (
{
name = bottom;
position = "{313, 0}";
},
{
name = top;
position = "{313, 649}";
}
);
layerId = "DEEA460D-B437-4534-881A-9FF6A59DEC7E";
paths = (
{
closed = 1;
nodes = (
"320 113 LINE SMOOTH",
"449 113 OFFCURVE",
"535 200 OFFCURVE",
"535 331 CURVE SMOOTH",
"535 462 OFFCURVE",
"449 549 OFFCURVE",
"320 549 CURVE SMOOTH",
"120 549 LINE",
"120 537 LINE",
"315 537 LINE SMOOTH",
"443 537 OFFCURVE",
"523 458 OFFCURVE",
"523 331 CURVE SMOOTH",
"523 204 OFFCURVE",
"443 125 OFFCURVE",
"315 125 CURVE SMOOTH",
"120 125 LINE",
"120 113 LINE"
);
},
{
closed = 1;
nodes = (
"132 0 LINE",
"132 701 LINE",
"120 701 LINE",
"120 0 LINE"
);
}
);
width = 600;
},
{
anchors = (
{
name = bottom;
position = "{313, 0}";
},
{
name = top;
position = "{313, 649}";
}
);
layerId = "F6EE3598-E048-4269-B54C-F84174B7F0FB";
paths = (
{
closed = 1;
nodes = (
"320 113 LINE SMOOTH",
"449 113 OFFCURVE",
"535 200 OFFCURVE",
"535 331 CURVE SMOOTH",
"535 462 OFFCURVE",
"449 549 OFFCURVE",
"320 549 CURVE SMOOTH",
"120 549 LINE",
"120 429 LINE",
"315 429 LINE SMOOTH",
"375 429 OFFCURVE",
"415 390 OFFCURVE",
"415 331 CURVE SMOOTH",
"415 273 OFFCURVE",
"374 233 OFFCURVE",
"315 233 CURVE SMOOTH",
"120 233 LINE",
"120 113 LINE"
);
},
{
closed = 1;
nodes = (
"220 0 LINE",
"220 701 LINE",
"100 701 LINE",
"100 0 LINE"
);
}
);
width = 600;
}
);
leftMetricsKey = H;
unicode = 00DE;
},
{
glyphname = Q;
lastChange = "2023-01-12 12:19:55 +0000";
layers = (
{
anchors = (
{
name = bottom;
position = "{420, -16}";
},
{
name = top;
position = "{420, 664}";
}
);
layerId = "DEEA460D-B437-4534-881A-9FF6A59DEC7E";
paths = (
{
closed = 1;
nodes = (
"727 0 LINE",
"515 219 LINE",
"507 210 LINE",
"712 0 LINE"
);
},
{
closed = 1;
nodes = (
"608 -16 OFFCURVE",
"760 136 OFFCURVE",
"760 324 CURVE SMOOTH",
"760 512 OFFCURVE",
"608 664 OFFCURVE",
"420 664 CURVE SMOOTH",
"232 664 OFFCURVE",
"80 512 OFFCURVE",
"80 324 CURVE SMOOTH",
"80 136 OFFCURVE",
"232 -16 OFFCURVE",
"420 -16 CURVE SMOOTH"
);
},
{
closed = 1;
nodes = (
"238 -4 OFFCURVE",
"92 142 OFFCURVE",
"92 324 CURVE SMOOTH",
"92 506 OFFCURVE",
"238 652 OFFCURVE",
"420 652 CURVE SMOOTH",
"602 652 OFFCURVE",
"748 506 OFFCURVE",
"748 324 CURVE SMOOTH",
"748 142 OFFCURVE",
"599 -4 OFFCURVE",
"420 -4 CURVE SMOOTH"
);
}
);
width = 875;
},
{
anchors = (
{
name = bottom;
position = "{420, -16}";
},
{
name = top;
position = "{420, 664}";
}
);
layerId = "F6EE3598-E048-4269-B54C-F84174B7F0FB";
paths = (
{
closed = 1;
nodes = (
"795 0 LINE",
"569 238 LINE",
"412 238 LINE",
"644 0 LINE"
);
},
{
closed = 1;
nodes = (
"608 -16 OFFCURVE",
"760 136 OFFCURVE",
"760 324 CURVE SMOOTH",
"760 512 OFFCURVE",
"608 664 OFFCURVE",
"420 664 CURVE SMOOTH",
"232 664 OFFCURVE",
"80 512 OFFCURVE",
"80 324 CURVE SMOOTH",
"80 136 OFFCURVE",
"232 -16 OFFCURVE",
"420 -16 CURVE SMOOTH"
);
},
{
closed = 1;
nodes = (
"301 109 OFFCURVE",
"205 205 OFFCURVE",
"205 324 CURVE SMOOTH",
"205 443 OFFCURVE",
"301 539 OFFCURVE",
"420 539 CURVE SMOOTH",
"539 539 OFFCURVE",
"635 444 OFFCURVE",
"635 324 CURVE SMOOTH",
"635 205 OFFCURVE",
"538 109 OFFCURVE",
"420 109 CURVE SMOOTH"
);
}
);
width = 875;
}
);
leftKerningGroup = O;
leftMetricsKey = O;
note = Q;
rightKerningGroup = A;
unicode = 0051;
},
{
glyphname = R;
lastChange = "2023-01-12 13:59:22 +0000";
layers = (
{
anchors = (
{
name = bottom;
position = "{319, 0}";
},
{
name = top;
position = "{289, 649}";
}
);
layerId = "DEEA460D-B437-4534-881A-9FF6A59DEC7E";
paths = (
{
closed = 1;
nodes = (
"469 0 LINE",
"360 221 LINE",
"347 221 LINE",
"456 0 LINE"
);
},
{
closed = 1;
nodes = (
"312 214 LINE SMOOTH",
"441 214 OFFCURVE",
"527 301 OFFCURVE",
"527 432 CURVE SMOOTH",
"527 563 OFFCURVE",
"441 650 OFFCURVE",
"312 650 CURVE SMOOTH",
"120 650 LINE",
"120 638 LINE",
"312 638 LINE SMOOTH",
"435 638 OFFCURVE",
"515 557 OFFCURVE",
"515 432 CURVE SMOOTH",
"515 307 OFFCURVE",
"435 226 OFFCURVE",
"312 226 CURVE SMOOTH",
"120 226 LINE",
"120 214 LINE"
);
},
{
closed = 1;
nodes = (
"132 0 LINE",
"132 650 LINE",
"120 650 LINE",
"120 0 LINE"
);
}
);
width = 617;
},
{
anchors = (
{
name = bottom;
position = "{319, 0}";
},
{
name = top;
position = "{289, 649}";
}
);
layerId = "F6EE3598-E048-4269-B54C-F84174B7F0FB";
paths = (
{
closed = 1;
nodes = (
"537 0 LINE",
"402 274 LINE",
"277 274 LINE",
"412 0 LINE"
);
},
{
closed = 1;
nodes = (
"320 214 LINE SMOOTH",
"449 214 OFFCURVE",
"535 301 OFFCURVE",
"535 432 CURVE SMOOTH",
"535 563 OFFCURVE",
"449 650 OFFCURVE",
"320 650 CURVE SMOOTH",
"100 650 LINE",
"100 535 LINE",
"315 535 LINE SMOOTH",
"375 535 OFFCURVE",
"415 491 OFFCURVE",
"415 432 CURVE SMOOTH",
"415 373 OFFCURVE",
"375 329 OFFCURVE",
"315 329 CURVE SMOOTH",
"100 329 LINE",
"100 214 LINE"
);
},
{
closed = 1;
nodes = (
"220 0 LINE",
"220 650 LINE",
"100 650 LINE",
"100 0 LINE"
);
}
);
width = 617;
}
);
leftMetricsKey = H;
note = R;
rightKerningGroup = R;
unicode = 0052;
},
{
glyphname = S;
lastChange = "2023-01-12 13:45:37 +0000";
layers = (
{
anchors = (
{
name = bottom;
position = "{280, 0}";
},
{
name = top;
position = "{280, 650}";
}
);
guideLines = (
{
angle = 90;
position = "{276, 637}";
}
);
layerId = "DEEA460D-B437-4534-881A-9FF6A59DEC7E";
paths = (
{
closed = 1;
nodes = (
"265 0 LINE SMOOTH",
"407 0 OFFCURVE",
"480 97 OFFCURVE",
"480 193 CURVE SMOOTH",
"480 288 OFFCURVE",
"409 382 OFFCURVE",
"265 382 CURVE SMOOTH",
"258 382 LINE",
"258 370 LINE",
"265 370 LINE SMOOTH",
"401 370 OFFCURVE",
"468 281 OFFCURVE",
"468 192 CURVE SMOOTH",
"468 102 OFFCURVE",
"400 12 OFFCURVE",
"265 12 CURVE SMOOTH",
"136 12 LINE",
"136 0 LINE"
);
},
{
closed = 1;
nodes = (
"302 268 LINE",
"302 280 LINE",
"295 280 LINE SMOOTH",
"160 280 OFFCURVE",
"92 369 OFFCURVE",
"92 458 CURVE SMOOTH",
"92 548 OFFCURVE",
"160 638 OFFCURVE",
"295 638 CURVE SMOOTH",
"393 638 LINE",
"393 650 LINE",
"295 650 LINE SMOOTH",
"152 650 OFFCURVE",
"80 553 OFFCURVE",
"80 457 CURVE SMOOTH",
"80 362 OFFCURVE",
"152 268 OFFCURVE",
"295 268 CURVE SMOOTH"
);
}
);
width = 560;
},
{
anchors = (
{
name = bottom;
position = "{316, 0}";
},
{
name = top;
position = "{316, 649}";
}
);
associatedMasterId = "DEEA460D-B437-4534-881A-9FF6A59DEC7E";
background = {
paths = (
{
closed = 1;
nodes = (
"323 0 LINE",
"441 3 OFFCURVE",
"536 100 OFFCURVE",
"536 218 CURVE SMOOTH",
"536 337 OFFCURVE",
"441 433 OFFCURVE",
"323 436 CURVE",
"312 436 LINE",
"312 330 LINE",
"258 333 OFFCURVE",
"216 377 OFFCURVE",
"216 431 CURVE SMOOTH",
"216 486 OFFCURVE",
"261 531 OFFCURVE",
"317 531 CURVE SMOOTH",
"323 531 LINE",
"429 531 LINE",
"429 649 LINE",
"312 649 LINE",
"193 646 OFFCURVE",
"99 549 OFFCURVE",
"99 431 CURVE SMOOTH",
"99 312 OFFCURVE",
"193 216 OFFCURVE",
"312 213 CURVE",
"323 213 LINE",
"323 319 LINE",
"376 316 OFFCURVE",
"418 272 OFFCURVE",
"418 218 CURVE SMOOTH",
"418 162 OFFCURVE",
"373 117 OFFCURVE",
"317 117 CURVE SMOOTH",
"312 117 LINE",
"152 117 LINE",
"153 0 LINE"
);
}
);
};
layerId = "3ADE24FC-2CC1-4FF5-BC47-CDE6332E0BE7";
name = "Jan 22 21, 11:14";
paths = (
{
closed = 1;
nodes = (
"414 218 LINE",
"414 158 OFFCURVE",
"374 119 OFFCURVE",
"313 120 CURVE",
"318 0 LINE",
"446 3 OFFCURVE",
"531 90 OFFCURVE",
"531 218 CURVE"
);
},
{
closed = 1;
nodes = (
"153 0 LINE",
"318 0 LINE",
"318 120 LINE",
"153 120 LINE"
);
},
{
closed = 1;
nodes = (
"531 346 OFFCURVE",
"446 436 OFFCURVE",
"318 436 CURVE SMOOTH",
"313 436 LINE",
"313 316 LINE",
"374 316 OFFCURVE",
"414 278 OFFCURVE",
"414 218 CURVE",
"531 218 LINE"
);
},
{
closed = 1;
nodes = (
"217 431 LINE",
"217 491 OFFCURVE",
"257 530 OFFCURVE",
"318 529 CURVE",
"313 649 LINE",
"185 646 OFFCURVE",
"100 559 OFFCURVE",
"100 431 CURVE"
);
},
{
closed = 1;
nodes = (
"428 649 LINE",
"313 649 LINE",
"313 529 LINE",
"428 529 LINE"
);
},
{
closed = 1;
nodes = (
"100 303 OFFCURVE",
"185 213 OFFCURVE",
"313 213 CURVE SMOOTH",
"318 213 LINE",
"318 333 LINE",
"257 333 OFFCURVE",
"217 371 OFFCURVE",
"217 431 CURVE",
"100 431 LINE"
);
}
);
width = 631;
},
{
anchors = (
{
name = bottom;
position = "{280, 0}";
},
{
name = top;
position = "{280, 650}";
}
);
guideLines = (
{
angle = 90;
position = "{393, 529}";
}
);
layerId = "F6EE3598-E048-4269-B54C-F84174B7F0FB";
paths = (
{
closed = 1;
nodes = (
"284 0 LINE SMOOTH",
"428 0 OFFCURVE",
"500 109 OFFCURVE",
"500 218 CURVE SMOOTH",
"500 327 OFFCURVE",
"428 426 OFFCURVE",
"284 426 CURVE SMOOTH",
"277 426 LINE",
"277 311 LINE",
"279 311 LINE SMOOTH",
"340 311 OFFCURVE",
"380 274 OFFCURVE",
"380 216 CURVE SMOOTH",
"380 155 OFFCURVE",
"339 115 OFFCURVE",
"275 115 CURVE SMOOTH",
"117 115 LINE",
"117 0 LINE"
);
},
{
closed = 1;
nodes = (
"283 223 LINE",
"283 338 LINE",
"281 338 LINE SMOOTH",
"220 338 OFFCURVE",
"180 375 OFFCURVE",
"180 433 CURVE SMOOTH",
"180 494 OFFCURVE",
"221 535 OFFCURVE",
"285 535 CURVE SMOOTH",
"393 535 LINE",
"393 650 LINE",
"276 650 LINE SMOOTH",
"132 650 OFFCURVE",
"60 540 OFFCURVE",
"60 431 CURVE SMOOTH",
"60 322 OFFCURVE",
"132 223 OFFCURVE",
"276 223 CURVE SMOOTH"
);
}
);
width = 560;
},
{
anchors = (
{
name = bottom;
position = "{316, 0}";
},
{
name = top;
position = "{316, 649}";
}
);
associatedMasterId = "F6EE3598-E048-4269-B54C-F84174B7F0FB";
background = {
paths = (
{
closed = 1;
nodes = (
"323 0 LINE",
"441 3 OFFCURVE",
"536 100 OFFCURVE",
"536 218 CURVE SMOOTH",
"536 337 OFFCURVE",
"441 433 OFFCURVE",
"323 436 CURVE",
"312 436 LINE",
"312 330 LINE",
"258 333 OFFCURVE",
"216 377 OFFCURVE",
"216 431 CURVE SMOOTH",
"216 486 OFFCURVE",
"261 531 OFFCURVE",
"317 531 CURVE SMOOTH",
"323 531 LINE",
"429 531 LINE",
"429 649 LINE",
"312 649 LINE",
"193 646 OFFCURVE",
"99 549 OFFCURVE",
"99 431 CURVE SMOOTH",
"99 312 OFFCURVE",
"193 216 OFFCURVE",
"312 213 CURVE",
"323 213 LINE",
"323 319 LINE",
"376 316 OFFCURVE",
"418 272 OFFCURVE",
"418 218 CURVE SMOOTH",
"418 162 OFFCURVE",
"373 117 OFFCURVE",
"317 117 CURVE SMOOTH",
"312 117 LINE",
"152 117 LINE",
"153 0 LINE"
);
}
);
};
layerId = "CB5BB051-83C9-4B1B-B89F-7A5BECD27F86";
name = "Jan 22 21, 11:14";
paths = (
{
closed = 1;
nodes = (
"414 218 LINE",
"414 158 OFFCURVE",
"374 119 OFFCURVE",
"313 120 CURVE",
"318 0 LINE",
"446 3 OFFCURVE",
"531 90 OFFCURVE",
"531 218 CURVE"
);
},
{
closed = 1;
nodes = (
"153 0 LINE",
"318 0 LINE",
"318 120 LINE",
"153 120 LINE"
);
},
{
closed = 1;
nodes = (
"531 346 OFFCURVE",
"446 436 OFFCURVE",
"318 436 CURVE SMOOTH",
"313 436 LINE",
"313 316 LINE",
"374 316 OFFCURVE",
"414 278 OFFCURVE",
"414 218 CURVE",
"531 218 LINE"
);
},
{
closed = 1;
nodes = (
"217 431 LINE",
"217 491 OFFCURVE",
"257 530 OFFCURVE",
"318 529 CURVE",
"313 649 LINE",
"185 646 OFFCURVE",
"100 559 OFFCURVE",
"100 431 CURVE"
);
},
{
closed = 1;
nodes = (
"428 649 LINE",
"313 649 LINE",
"313 529 LINE",
"428 529 LINE"
);
},
{
closed = 1;
nodes = (
"100 303 OFFCURVE",
"185 213 OFFCURVE",
"313 213 CURVE SMOOTH",
"318 213 LINE",
"318 333 LINE",
"257 333 OFFCURVE",
"217 371 OFFCURVE",
"217 431 CURVE",
"100 431 LINE"
);
}
);
width = 631;
},
{
anchors = (
{
name = bottom;
position = "{321, 0}";
},
{
name = top;
position = "{321, 649}";
}
);
associatedMasterId = "DEEA460D-B437-4534-881A-9FF6A59DEC7E";
background = {
paths = (
{
closed = 1;
nodes = (
"328 0 LINE",
"446 3 OFFCURVE",
"541 100 OFFCURVE",
"541 218 CURVE SMOOTH",
"541 337 OFFCURVE",
"446 433 OFFCURVE",
"328 436 CURVE",
"317 436 LINE",
"317 330 LINE",
"263 333 OFFCURVE",
"221 377 OFFCURVE",
"221 431 CURVE SMOOTH",
"221 486 OFFCURVE",
"266 531 OFFCURVE",
"322 531 CURVE SMOOTH",
"328 531 LINE",
"434 531 LINE",
"434 649 LINE",
"317 649 LINE",
"198 646 OFFCURVE",
"104 549 OFFCURVE",
"104 431 CURVE SMOOTH",
"104 312 OFFCURVE",
"198 216 OFFCURVE",
"317 213 CURVE",
"328 213 LINE",
"328 319 LINE",
"381 316 OFFCURVE",
"423 272 OFFCURVE",
"423 218 CURVE SMOOTH",
"423 162 OFFCURVE",
"378 117 OFFCURVE",
"322 117 CURVE SMOOTH",
"317 117 LINE",
"157 117 LINE",
"158 0 LINE"
);
}
);
};
guideLines = (
{
angle = 90;
position = "{433, 529}";
}
);
layerId = "C5CB1606-E747-44FA-AB43-9F5363C08985";
name = "Apr 28 21, 13:42";
paths = (
{
closed = 1;
nodes = (
"325 0 LINE SMOOTH",
"469 0 OFFCURVE",
"541 109 OFFCURVE",
"541 218 CURVE SMOOTH",
"541 327 OFFCURVE",
"469 436 OFFCURVE",
"325 436 CURVE SMOOTH",
"318 436 LINE",
"318 316 LINE",
"320 316 LINE SMOOTH",
"387 316 OFFCURVE",
"421 267 OFFCURVE",
"421 218 CURVE SMOOTH",
"421 168 OFFCURVE",
"387 120 OFFCURVE",
"320 120 CURVE SMOOTH",
"158 120 LINE",
"158 0 LINE"
);
},
{
closed = 1;
nodes = (
"323 213 LINE",
"323 333 LINE",
"321 333 LINE SMOOTH",
"254 333 OFFCURVE",
"220 382 OFFCURVE",
"220 431 CURVE SMOOTH",
"220 480 OFFCURVE",
"254 529 OFFCURVE",
"321 529 CURVE SMOOTH",
"433 529 LINE",
"433 649 LINE",
"316 649 LINE SMOOTH",
"172 649 OFFCURVE",
"100 540 OFFCURVE",
"100 431 CURVE SMOOTH",
"100 322 OFFCURVE",
"172 213 OFFCURVE",
"316 213 CURVE SMOOTH"
);
}
);
width = 641;
}
);
leftKerningGroup = S;
note = S;
rightKerningGroup = S;
unicode = 0053;
},
{
glyphname = Germandbls;
lastChange = "2023-01-12 07:26:18 +0000";
layers = (
{
layerId = "DEEA460D-B437-4534-881A-9FF6A59DEC7E";
paths = (
{
closed = 1;
nodes = (
"442 638 LINE",
"442 650 LINE",
"274 650 LINE",
"274 638 LINE"
);
},
{
closed = 1;
nodes = (
"180 650 OFFCURVE",
"120 581 OFFCURVE",
"120 475 CURVE",
"132 475 LINE",
"132 575 OFFCURVE",
"189 640 OFFCURVE",
"274 638 CURVE",
"274 650 LINE"
);
},
{
closed = 1;
nodes = (
"120 0 LINE",
"132 0 LINE",
"132 475 LINE",
"120 475 LINE"
);
},
{
closed = 1;
nodes = (
"349 0 LINE SMOOTH",
"470 0 OFFCURVE",
"565 96 OFFCURVE",
"565 218 CURVE SMOOTH",
"565 338 OFFCURVE",
"475 434 OFFCURVE",
"352 436 CURVE",
"352 424 LINE",
"467 420 OFFCURVE",
"553 336 OFFCURVE",
"553 218 CURVE SMOOTH",
"553 103 OFFCURVE",
"463 12 OFFCURVE",
"349 12 CURVE SMOOTH",
"290 12 LINE",
"290 0 LINE"
);
},
{
closed = 1;
nodes = (
"451 650 LINE",
"438 650 LINE",
"343 424 LINE",
"356 424 LINE"
);
}
);
width = 615;
},
{
associatedMasterId = "DEEA460D-B437-4534-881A-9FF6A59DEC7E";
layerId = "21CC3F41-9134-4EAA-8871-780EBC2FA05A";
name = "Jan 27 21, 10:13";
paths = (
{
closed = 1;
nodes = (
"305 0 LINE SMOOTH",
"431 0 OFFCURVE",
"515 84 OFFCURVE",
"515 210 CURVE SMOOTH",
"515 336 OFFCURVE",
"431 420 OFFCURVE",
"305 420 CURVE SMOOTH",
"190 420 LINE",
"190 300 LINE",
"305 300 LINE SMOOTH",
"359 300 OFFCURVE",
"395 264 OFFCURVE",
"395 210 CURVE SMOOTH",
"395 156 OFFCURVE",
"359 120 OFFCURVE",
"305 120 CURVE SMOOTH",
"190 120 LINE",
"190 0 LINE"
);
},
{
closed = 1;
nodes = (
"379 300 OFFCURVE",
"449 370 OFFCURVE",
"449 475 CURVE",
"329 475 LINE",
"329 441 OFFCURVE",
"307 419 OFFCURVE",
"275 420 CURVE",
"275 300 LINE"
);
},
{
closed = 1;
nodes = (
"449 529 LINE",
"449 649 LINE",
"174 649 LINE",
"174 529 LINE"
);
},
{
closed = 1;
nodes = (
"70 649 OFFCURVE",
"0 579 OFFCURVE",
"0 474 CURVE",
"120 474 LINE",
"120 508 OFFCURVE",
"142 530 OFFCURVE",
"174 529 CURVE",
"174 649 LINE"
);
},
{
closed = 1;
nodes = (
"0 0 LINE",
"120 0 LINE",
"120 474 LINE",
"0 474 LINE"
);
},
{
closed = 1;
nodes = (
"329 475 LINE",
"449 475 LINE",
"449 649 LINE",
"329 649 LINE"
);
}
);
width = 600;
},
{
associatedMasterId = "DEEA460D-B437-4534-881A-9FF6A59DEC7E";
layerId = "42432680-D803-4C03-8A96-23718D2A16AB";
name = "Apr 27 21, 22:08";
paths = (
{
closed = 1;
nodes = (
"462 529 LINE",
"462 649 LINE",
"274 649 LINE",
"274 529 LINE"
);
},
{
closed = 1;
nodes = (
"170 649 OFFCURVE",
"100 579 OFFCURVE",
"100 474 CURVE",
"220 474 LINE",
"220 508 OFFCURVE",
"242 530 OFFCURVE",
"274 529 CURVE",
"274 649 LINE"
);
},
{
closed = 1;
nodes = (
"100 0 LINE",
"220 0 LINE",
"220 474 LINE",
"100 474 LINE"
);
},
{
closed = 1;
nodes = (
"342 386 LINE",
"462 386 LINE",
"462 649 LINE",
"342 649 LINE"
);
},
{
closed = 1;
nodes = (
"349 0 LINE SMOOTH",
"493 0 OFFCURVE",
"565 109 OFFCURVE",
"565 218 CURVE SMOOTH",
"565 327 OFFCURVE",
"493 436 OFFCURVE",
"349 436 CURVE SMOOTH",
"342 436 LINE",
"342 316 LINE",
"344 316 LINE SMOOTH",
"411 316 OFFCURVE",
"445 267 OFFCURVE",
"445 218 CURVE SMOOTH",
"445 168 OFFCURVE",
"411 120 OFFCURVE",
"344 120 CURVE SMOOTH",
"290 120 LINE",
"290 0 LINE"
);
}
);
width = 665;
},
{
associatedMasterId = "DEEA460D-B437-4534-881A-9FF6A59DEC7E";
layerId = "0A424B83-BD7B-49BF-805A-D0E965CA0B63";
name = "Apr 27 21, 22:10";
paths = (
{
closed = 1;
nodes = (
"462 529 LINE",
"562 649 LINE",
"274 649 LINE",
"274 529 LINE"
);
},
{
closed = 1;
nodes = (
"170 649 OFFCURVE",
"100 579 OFFCURVE",
"100 474 CURVE",
"220 474 LINE",
"220 508 OFFCURVE",
"242 530 OFFCURVE",
"274 529 CURVE",
"274 649 LINE"
);
},
{
closed = 1;
nodes = (
"100 0 LINE",
"220 0 LINE",
"220 474 LINE",
"100 474 LINE"
);
},
{
closed = 1;
nodes = (
"349 0 LINE SMOOTH",
"493 0 OFFCURVE",
"565 109 OFFCURVE",
"565 218 CURVE SMOOTH",
"565 327 OFFCURVE",
"493 436 OFFCURVE",
"349 436 CURVE SMOOTH",
"342 436 LINE",
"342 316 LINE",
"344 316 LINE SMOOTH",
"411 316 OFFCURVE",
"445 267 OFFCURVE",
"445 218 CURVE SMOOTH",
"445 168 OFFCURVE",
"411 120 OFFCURVE",
"344 120 CURVE SMOOTH",
"290 120 LINE",
"290 0 LINE"
);
},
{
closed = 1;
nodes = (
"558 649 LINE",
"438 649 LINE",
"342 436 LINE",
"442 391 LINE"
);
}
);
width = 665;
},
{
layerId = "F6EE3598-E048-4269-B54C-F84174B7F0FB";
paths = (
{
closed = 1;
nodes = (
"462 535 LINE",
"462 650 LINE",
"274 650 LINE",
"274 535 LINE"
);
},
{
closed = 1;
nodes = (
"170 650 OFFCURVE",
"100 580 OFFCURVE",
"100 475 CURVE",
"220 475 LINE",
"220 509 OFFCURVE",
"242 536 OFFCURVE",
"274 535 CURVE",
"274 650 LINE"
);
},
{
closed = 1;
nodes = (
"100 0 LINE",
"220 0 LINE",
"220 475 LINE",
"100 475 LINE"
);
},
{
closed = 1;
nodes = (
"349 0 LINE SMOOTH",
"470 0 OFFCURVE",
"565 96 OFFCURVE",
"565 218 CURVE SMOOTH",
"565 337 OFFCURVE",
"469 431 OFFCURVE",
"347 431 CURVE",
"347 316 LINE",
"411 316 OFFCURVE",
"445 267 OFFCURVE",
"445 218 CURVE SMOOTH",
"445 168 OFFCURVE",
"411 115 OFFCURVE",
"344 115 CURVE SMOOTH",
"290 115 LINE",
"290 0 LINE"
);
},
{
closed = 1;
nodes = (
"557 650 LINE",
"438 650 LINE",
"298 316 LINE",
"417 316 LINE"
);
}
);
width = 615;
},
{
associatedMasterId = "F6EE3598-E048-4269-B54C-F84174B7F0FB";
layerId = "E00A3402-81D2-4903-84C4-6C98C95F1419";
name = "Jan 27 21, 10:13";
paths = (
{
closed = 1;
nodes = (
"305 0 LINE SMOOTH",
"431 0 OFFCURVE",
"515 84 OFFCURVE",
"515 210 CURVE SMOOTH",
"515 336 OFFCURVE",
"431 420 OFFCURVE",
"305 420 CURVE SMOOTH",
"190 420 LINE",
"190 300 LINE",
"305 300 LINE SMOOTH",
"359 300 OFFCURVE",
"395 264 OFFCURVE",
"395 210 CURVE SMOOTH",
"395 156 OFFCURVE",
"359 120 OFFCURVE",
"305 120 CURVE SMOOTH",
"190 120 LINE",
"190 0 LINE"
);
},
{
closed = 1;
nodes = (
"379 300 OFFCURVE",
"449 370 OFFCURVE",
"449 475 CURVE",
"329 475 LINE",
"329 441 OFFCURVE",
"307 419 OFFCURVE",
"275 420 CURVE",
"275 300 LINE"
);
},
{
closed = 1;
nodes = (
"449 529 LINE",
"449 649 LINE",
"174 649 LINE",
"174 529 LINE"
);
},
{
closed = 1;
nodes = (
"70 649 OFFCURVE",
"0 579 OFFCURVE",
"0 474 CURVE",
"120 474 LINE",
"120 508 OFFCURVE",
"142 530 OFFCURVE",
"174 529 CURVE",
"174 649 LINE"
);
},
{
closed = 1;
nodes = (
"0 0 LINE",
"120 0 LINE",
"120 474 LINE",
"0 474 LINE"
);
},
{
closed = 1;
nodes = (
"329 475 LINE",
"449 475 LINE",
"449 649 LINE",
"329 649 LINE"
);
}
);
width = 600;
},
{
associatedMasterId = "F6EE3598-E048-4269-B54C-F84174B7F0FB";
layerId = "D1632412-9801-4F11-9CB5-EDFC407F07D4";
name = "Apr 27 21, 22:08";
paths = (
{
closed = 1;
nodes = (
"462 529 LINE",
"462 649 LINE",
"274 649 LINE",
"274 529 LINE"
);
},
{
closed = 1;
nodes = (
"170 649 OFFCURVE",
"100 579 OFFCURVE",
"100 474 CURVE",
"220 474 LINE",
"220 508 OFFCURVE",
"242 530 OFFCURVE",
"274 529 CURVE",
"274 649 LINE"
);
},
{
closed = 1;
nodes = (
"100 0 LINE",
"220 0 LINE",
"220 474 LINE",
"100 474 LINE"
);
},
{
closed = 1;
nodes = (
"342 386 LINE",
"462 386 LINE",
"462 649 LINE",
"342 649 LINE"
);
},
{
closed = 1;
nodes = (
"349 0 LINE SMOOTH",
"493 0 OFFCURVE",
"565 109 OFFCURVE",
"565 218 CURVE SMOOTH",
"565 327 OFFCURVE",
"493 436 OFFCURVE",
"349 436 CURVE SMOOTH",
"342 436 LINE",
"342 316 LINE",
"344 316 LINE SMOOTH",
"411 316 OFFCURVE",
"445 267 OFFCURVE",
"445 218 CURVE SMOOTH",
"445 168 OFFCURVE",
"411 120 OFFCURVE",
"344 120 CURVE SMOOTH",
"290 120 LINE",
"290 0 LINE"
);
}
);
width = 665;
},
{
associatedMasterId = "F6EE3598-E048-4269-B54C-F84174B7F0FB";
layerId = "615C7999-57B7-4C2A-AEDC-CC224651A46B";
name = "Apr 27 21, 22:10";
paths = (
{
closed = 1;
nodes = (
"462 529 LINE",
"562 649 LINE",
"274 649 LINE",
"274 529 LINE"
);
},
{
closed = 1;
nodes = (
"170 649 OFFCURVE",
"100 579 OFFCURVE",
"100 474 CURVE",
"220 474 LINE",
"220 508 OFFCURVE",
"242 530 OFFCURVE",
"274 529 CURVE",
"274 649 LINE"
);
},
{
closed = 1;
nodes = (
"100 0 LINE",
"220 0 LINE",
"220 474 LINE",
"100 474 LINE"
);
},
{
closed = 1;
nodes = (
"349 0 LINE SMOOTH",
"493 0 OFFCURVE",
"565 109 OFFCURVE",
"565 218 CURVE SMOOTH",
"565 327 OFFCURVE",
"493 436 OFFCURVE",
"349 436 CURVE SMOOTH",
"342 436 LINE",
"342 316 LINE",
"344 316 LINE SMOOTH",
"411 316 OFFCURVE",
"445 267 OFFCURVE",
"445 218 CURVE SMOOTH",
"445 168 OFFCURVE",
"411 120 OFFCURVE",
"344 120 CURVE SMOOTH",
"290 120 LINE",
"290 0 LINE"
);
},
{
closed = 1;
nodes = (
"558 649 LINE",
"438 649 LINE",
"342 436 LINE",
"442 391 LINE"
);
}
);
width = 665;
},
{
associatedMasterId = "DEEA460D-B437-4534-881A-9FF6A59DEC7E";
layerId = "195CD27C-4CF6-4D04-8676-77F0AF0016DC";
name = "May 2 21, 17:19";
paths = (
{
closed = 1;
nodes = (
"422 637 LINE",
"422 649 LINE",
"274 649 LINE",
"274 637 LINE"
);
},
{
closed = 1;
nodes = (
"180 649 OFFCURVE",
"120 580 OFFCURVE",
"120 474 CURVE",
"132 474 LINE",
"132 574 OFFCURVE",
"189 639 OFFCURVE",
"274 637 CURVE",
"274 649 LINE"
);
},
{
closed = 1;
nodes = (
"120 0 LINE",
"132 0 LINE",
"132 474 LINE",
"120 474 LINE"
);
},
{
closed = 1;
nodes = (
"329 0 LINE SMOOTH",
"450 0 OFFCURVE",
"545 96 OFFCURVE",
"545 218 CURVE SMOOTH",
"545 338 OFFCURVE",
"455 434 OFFCURVE",
"332 436 CURVE",
"332 424 LINE",
"447 420 OFFCURVE",
"533 336 OFFCURVE",
"533 218 CURVE SMOOTH",
"533 103 OFFCURVE",
"443 12 OFFCURVE",
"329 12 CURVE SMOOTH",
"270 12 LINE",
"270 0 LINE"
);
},
{
closed = 1;
nodes = (
"431 649 LINE",
"418 649 LINE",
"278 316 LINE",
"291 316 LINE"
);
}
);
width = 665;
}
);
leftMetricsKey = H;
rightMetricsKey = A;
unicode = 1E9E;
},
{
glyphname = T;
lastChange = "2023-01-12 15:27:22 +0000";
layers = (
{
anchors = (
{
name = bottom;
position = "{268, 0}";
},
{
name = center;
position = "{268, 325}";
},
{
name = top;
position = "{268, 650}";
}
);
layerId = "DEEA460D-B437-4534-881A-9FF6A59DEC7E";
paths = (
{
closed = 1;
nodes = (
"485 638 LINE",
"485 650 LINE",
"50 650 LINE",
"50 638 LINE"
);
},
{
closed = 1;
nodes = (
"274 0 LINE",
"274 650 LINE",
"262 650 LINE",
"262 0 LINE"
);
}
);
width = 535;
},
{
anchors = (
{
name = bottom;
position = "{268, 0}";
},
{
name = center;
position = "{268, 325}";
},
{
name = top;
position = "{268, 650}";
}
);
layerId = "F6EE3598-E048-4269-B54C-F84174B7F0FB";
paths = (
{
closed = 1;
nodes = (
"485 535 LINE",
"485 650 LINE",
"50 650 LINE",
"50 535 LINE"
);
},
{
closed = 1;
nodes = (
"328 0 LINE",
"328 650 LINE",
"208 650 LINE",
"208 0 LINE"
);
}
);
width = 535;
}
);
leftKerningGroup = T;
leftMetricsKey = A;
note = T;
rightKerningGroup = T;
rightMetricsKey = A;
unicode = 0054;
},
{
glyphname = Tbar;
lastChange = "2023-01-10 09:58:15 +0000";
layers = (
{
anchors = (
{
name = bottom;
position = "{268, 0}";
},
{
name = center;
position = "{268, 325}";
},
{
name = top;
position = "{268, 650}";
}
);
layerId = "DEEA460D-B437-4534-881A-9FF6A59DEC7E";
paths = (
{
closed = 1;
nodes = (
"113 270 LINE",
"423 270 LINE",
"423 282 LINE",
"113 282 LINE"
);
},
{
closed = 1;
nodes = (
"485 638 LINE",
"485 650 LINE",
"50 650 LINE",
"50 638 LINE"
);
},
{
closed = 1;
nodes = (
"274 0 LINE",
"274 650 LINE",
"262 650 LINE",
"262 0 LINE"
);
}
);
width = 535;
},
{
anchors = (
{
name = bottom;
position = "{268, 0}";
},
{
name = center;
position = "{268, 325}";
},
{
name = top;
position = "{268, 650}";
}
);
layerId = "F6EE3598-E048-4269-B54C-F84174B7F0FB";
paths = (
{
closed = 1;
nodes = (
"113 226 LINE",
"423 226 LINE",
"423 326 LINE",
"113 326 LINE"
);
},
{
closed = 1;
nodes = (
"485 535 LINE",
"485 650 LINE",
"50 650 LINE",
"50 535 LINE"
);
},
{
closed = 1;
nodes = (
"328 0 LINE",
"328 650 LINE",
"208 650 LINE",
"208 0 LINE"
);
}
);
width = 535;
}
);
leftKerningGroup = T;
leftMetricsKey = A;
rightKerningGroup = T;
rightMetricsKey = A;
unicode = 0166;
},
{
glyphname = U;
lastChange = "2023-01-12 14:50:06 +0000";
layers = (
{
anchors = (
{
name = bottom;
position = "{345, 0}";
},
{
name = ogonek;
position = "{397, 0}";
},
{
name = top;
position = "{345, 649}";
},
{
name = topright;
position = "{670, 649}";
}
);
layerId = "DEEA460D-B437-4534-881A-9FF6A59DEC7E";
paths = (
{
closed = 1;
nodes = (
"472 -10 OFFCURVE",
"570 64 OFFCURVE",
"570 205 CURVE SMOOTH",
"570 650 LINE",
"558 650 LINE",
"558 205 LINE SMOOTH",
"558 81 OFFCURVE",
"475 2 OFFCURVE",
"345 2 CURVE",
"345 -10 LINE"
);
},
{
closed = 1;
nodes = (
"345 2 LINE",
"215 2 OFFCURVE",
"132 81 OFFCURVE",
"132 205 CURVE SMOOTH",
"132 650 LINE",
"120 650 LINE",
"120 205 LINE SMOOTH",
"120 64 OFFCURVE",
"218 -10 OFFCURVE",
"345 -10 CURVE"
);
}
);
width = 690;
},
{
anchors = (
{
name = bottom;
position = "{345, 0}";
},
{
name = ogonek;
position = "{397, 0}";
},
{
name = top;
position = "{345, 650}";
},
{
name = topright;
position = "{670, 650}";
}
);
guideLines = (
{
position = "{407, -15}";
}
);
layerId = "F6EE3598-E048-4269-B54C-F84174B7F0FB";
paths = (
{
closed = 1;
nodes = (
"492 -15 OFFCURVE",
"590 79 OFFCURVE",
"590 220 CURVE SMOOTH",
"590 650 LINE",
"470 650 LINE",
"470 230 LINE SMOOTH",
"470 153 OFFCURVE",
"421 102 OFFCURVE",
"345 102 CURVE",
"345 -15 LINE"
);
},
{
closed = 1;
nodes = (
"345 102 LINE",
"269 102 OFFCURVE",
"220 153 OFFCURVE",
"220 230 CURVE SMOOTH",
"220 650 LINE",
"100 650 LINE",
"100 220 LINE SMOOTH",
"100 79 OFFCURVE",
"198 -15 OFFCURVE",
"345 -15 CURVE"
);
}
);
width = 690;
}
);
leftKerningGroup = U;
leftMetricsKey = H;
note = U;
rightKerningGroup = U;
rightMetricsKey = H;
unicode = 0055;
},
{
glyphname = V;
lastChange = "2023-01-12 13:42:21 +0000";
layers = (
{
anchors = (
{
name = bottom;
position = "{320, 0}";
},
{
name = top;
position = "{320, 650}";
}
);
layerId = "DEEA460D-B437-4534-881A-9FF6A59DEC7E";
paths = (
{
closed = 1;
nodes = (
"577 650 LINE",
"352 12 LINE",
"289 12 LINE",
"63 650 LINE",
"50 650 LINE",
"280 0 LINE",
"360 0 LINE",
"590 650 LINE"
);
}
);
width = 640;
},
{
anchors = (
{
name = bottom;
position = "{320, 0}";
},
{
name = top;
position = "{320, 649}";
}
);
guideLines = (
{
position = "{410, 104}";
}
);
layerId = "F6EE3598-E048-4269-B54C-F84174B7F0FB";
paths = (
{
closed = 1;
nodes = (
"475 650 LINE",
"324 104 LINE",
"328 104 LINE",
"171 650 LINE",
"50 650 LINE",
"244 0 LINE",
"405 0 LINE",
"590 650 LINE"
);
}
);
width = 640;
}
);
leftKerningGroup = V;
leftMetricsKey = A;
note = V;
rightKerningGroup = V;
rightMetricsKey = A;
unicode = 0056;
},
{
glyphname = W;
lastChange = "2023-01-12 13:41:41 +0000";
layers = (
{
anchors = (
{
name = bottom;
position = "{440, 0}";
},
{
name = top;
position = "{440, 650}";
}
);
layerId = "DEEA460D-B437-4534-881A-9FF6A59DEC7E";
paths = (
{
closed = 1;
nodes = (
"360 0 LINE",
"570 650 LINE",
"557 650 LINE",
"352 12 LINE",
"288 12 LINE",
"62 650 LINE",
"50 650 LINE",
"280 0 LINE"
);
},
{
closed = 1;
nodes = (
"600 0 LINE",
"830 650 LINE",
"817 650 LINE",
"592 12 LINE",
"528 12 LINE",
"322 650 LINE",
"309 650 LINE",
"519 0 LINE"
);
}
);
width = 880;
},
{
anchors = (
{
name = bottom;
position = "{440, 0}";
},
{
name = top;
position = "{440, 650}";
}
);
guideLines = (
{
position = "{410, 104}";
}
);
layerId = "F6EE3598-E048-4269-B54C-F84174B7F0FB";
paths = (
{
closed = 1;
nodes = (
"395 0 LINE",
"600 650 LINE",
"489 650 LINE",
"327 104 LINE",
"332 104 LINE",
"171 650 LINE",
"50 650 LINE",
"254 0 LINE"
);
},
{
closed = 1;
nodes = (
"635 0 LINE",
"830 650 LINE",
"715 650 LINE",
"559 104 LINE",
"564 104 LINE",
"396 650 LINE",
"280 650 LINE",
"494 0 LINE"
);
}
);
width = 880;
}
);
leftKerningGroup = V;
leftMetricsKey = A;
note = W;
rightKerningGroup = V;
rightMetricsKey = A;
unicode = 0057;
},
{
glyphname = X;
lastChange = "2023-01-10 09:58:15 +0000";
layers = (
{
anchors = (
{
name = bottom;
position = "{269, 0}";
},
{
name = top;
position = "{269, 650}";
}
);
guideLines = (
{
position = "{287, 325}";
}
);
layerId = "DEEA460D-B437-4534-881A-9FF6A59DEC7E";
paths = (
{
closed = 1;
nodes = (
"64 650 LINE",
"50 650 LINE",
"262 325 LINE",
"276 325 LINE"
);
},
{
closed = 1;
nodes = (
"276 325 LINE",
"488 650 LINE",
"474 650 LINE",
"262 325 LINE"
);
},
{
closed = 1;
nodes = (
"262 325 LINE",
"50 0 LINE",
"64 0 LINE",
"276 325 LINE"
);
},
{
closed = 1;
nodes = (
"474 0 LINE",
"488 0 LINE",
"276 325 LINE",
"262 325 LINE"
);
}
);
width = 538;
},
{
anchors = (
{
name = bottom;
position = "{269, 0}";
},
{
name = top;
position = "{269, 650}";
}
);
guideLines = (
{
position = "{368, 326}";
}
);
layerId = "F6EE3598-E048-4269-B54C-F84174B7F0FB";
paths = (
{
closed = 1;
nodes = (
"172 650 LINE",
"50 650 LINE",
"207 317 LINE",
"329 317 LINE"
);
},
{
closed = 1;
nodes = (
"331 327 LINE",
"488 650 LINE",
"366 650 LINE",
"209 327 LINE"
);
},
{
closed = 1;
nodes = (
"207 333 LINE",
"50 0 LINE",
"172 0 LINE",
"329 333 LINE"
);
},
{
closed = 1;
nodes = (
"366 0 LINE",
"488 0 LINE",
"331 333 LINE",
"209 333 LINE"
);
}
);
width = 538;
}
);
leftKerningGroup = X;
leftMetricsKey = A;
note = X;
rightKerningGroup = X;
rightMetricsKey = A;
unicode = 0058;
},
{
glyphname = Y;
lastChange = "2023-01-12 14:47:37 +0000";
layers = (
{
anchors = (
{
name = bottom;
position = "{259, 0}";
},
{
name = top;
position = "{259, 650}";
},
{
name = topleft;
position = "{20, 650}";
}
);
layerId = "DEEA460D-B437-4534-881A-9FF6A59DEC7E";
paths = (
{
closed = 1;
nodes = (
"265 0 LINE",
"265 298 LINE",
"253 298 LINE",
"253 0 LINE"
);
},
{
closed = 1;
nodes = (
"218 286 LINE",
"299 286 LINE",
"477 650 LINE",
"464 650 LINE",
"291 298 LINE",
"226 298 LINE",
"53 650 LINE",
"40 650 LINE"
);
}
);
width = 517;
},
{
anchors = (
{
name = bottom;
position = "{259, 0}";
},
{
name = top;
position = "{259, 650}";
},
{
name = topleft;
position = "{20, 650}";
}
);
layerId = "F6EE3598-E048-4269-B54C-F84174B7F0FB";
paths = (
{
closed = 1;
nodes = (
"319 0 LINE",
"319 339 LINE",
"199 339 LINE",
"199 0 LINE"
);
},
{
closed = 1;
nodes = (
"200 323 LINE",
"318 323 LINE",
"477 650 LINE",
"355 650 LINE",
"257 448 LINE",
"261 448 LINE",
"162 650 LINE",
"40 650 LINE"
);
}
);
width = 517;
}
);
leftKerningGroup = Y;
note = Y;
rightKerningGroup = Y;
unicode = 0059;
},
{
glyphname = Z;
lastChange = "2023-01-12 14:45:53 +0000";
layers = (
{
anchors = (
{
name = bottom;
position = "{272, 0}";
},
{
name = center;
position = "{272, 325}";
},
{
name = top;
position = "{272, 650}";
}
);
guideLines = (
{
angle = 90;
position = "{524, 104}";
}
);
layerId = "DEEA460D-B437-4534-881A-9FF6A59DEC7E";
paths = (
{
closed = 1;
nodes = (
"74 0 LINE",
"474 650 LINE",
"460 650 LINE",
"60 0 LINE"
);
},
{
closed = 1;
nodes = (
"484 0 LINE",
"484 12 LINE",
"70 12 LINE",
"70 0 LINE"
);
},
{
closed = 1;
nodes = (
"464 638 LINE",
"464 650 LINE",
"70 650 LINE",
"70 638 LINE"
);
}
);
width = 544;
},
{
anchors = (
{
name = bottom;
position = "{272, 0}";
},
{
name = center;
position = "{272, 325}";
},
{
name = top;
position = "{272, 650}";
}
);
guideLines = (
{
angle = 90;
position = "{49, 13}";
}
);
layerId = "F6EE3598-E048-4269-B54C-F84174B7F0FB";
paths = (
{
closed = 1;
nodes = (
"178 0 LINE",
"494 650 LINE",
"366 650 LINE",
"50 0 LINE"
);
},
{
closed = 1;
nodes = (
"494 0 LINE",
"494 120 LINE",
"164 120 LINE",
"164 0 LINE"
);
},
{
closed = 1;
nodes = (
"380 530 LINE",
"380 650 LINE",
"60 650 LINE",
"60 530 LINE"
);
}
);
width = 544;
},
{
anchors = (
{
name = bottom;
position = "{322, 0}";
},
{
name = center;
position = "{322, 325}";
},
{
name = top;
position = "{322, 649}";
}
);
associatedMasterId = "DEEA460D-B437-4534-881A-9FF6A59DEC7E";
guideLines = (
{
angle = 90;
position = "{524, 104}";
}
);
layerId = "4B9AD302-493E-44C1-B62F-89B00729F46B";
name = "May 1 21, 18:44";
paths = (
{
closed = 1;
nodes = (
"124 0 LINE",
"534 649 LINE",
"520 649 LINE",
"110 0 LINE"
);
},
{
closed = 1;
nodes = (
"534 0 LINE",
"534 12 LINE",
"120 12 LINE",
"120 0 LINE"
);
},
{
closed = 1;
nodes = (
"524 637 LINE",
"524 649 LINE",
"110 649 LINE",
"110 637 LINE"
);
}
);
width = 644;
}
);
leftKerningGroup = Z;
note = Z;
rightKerningGroup = Z;
unicode = 005A;
},
{
glyphname = K.ss02;
lastChange = "2023-01-12 07:46:54 +0000";
layers = (
{
anchors = (
{
name = bottom;
position = "{308, 0}";
},
{
name = top;
position = "{308, 649}";
}
);
guideLines = (
{
position = "{370, 318}";
},
{
angle = 90;
position = "{517, 649}";
}
);
layerId = "DEEA460D-B437-4534-881A-9FF6A59DEC7E";
paths = (
{
closed = 1;
nodes = (
"414 306 LINE",
"414 318 LINE",
"120 318 LINE",
"120 306 LINE"
);
},
{
closed = 1;
nodes = (
"540 0 LINE",
"414 318 LINE",
"400 318 LINE",
"529 0 LINE"
);
},
{
closed = 1;
nodes = (
"322 311 LINE",
"420 649 LINE",
"407 649 LINE",
"309 311 LINE"
);
},
{
closed = 1;
nodes = (
"412 637 LINE",
"531 637 LINE",
"531 649 LINE",
"412 649 LINE"
);
},
{
closed = 1;
nodes = (
"132 0 LINE",
"132 650 LINE",
"120 650 LINE",
"120 0 LINE"
);
}
);
width = 590;
},
{
associatedMasterId = "DEEA460D-B437-4534-881A-9FF6A59DEC7E";
guideLines = (
{
position = "{339, 252}";
}
);
layerId = "E41AD72B-150C-40D3-9A8F-8EC23E8E92C7";
name = "Jan 21 21, 21:58";
paths = (
{
closed = 1;
nodes = (
"370 198 LINE",
"370 318 LINE",
"100 318 LINE",
"100 198 LINE"
);
},
{
closed = 1;
nodes = (
"520 649 LINE",
"404 649 LINE",
"219 252 LINE",
"335 252 LINE"
);
},
{
closed = 1;
nodes = (
"417 0 LINE",
"535 0 LINE",
"344 389 LINE",
"310 213 LINE"
);
},
{
closed = 1;
nodes = (
"166 0 LINE",
"166 650 LINE",
"154 650 LINE",
"154 0 LINE"
);
}
);
width = 615;
},
{
anchors = (
{
name = bottom;
position = "{308, 0}";
},
{
name = top;
position = "{308, 649}";
}
);
guideLines = (
{
position = "{370, 318}";
}
);
layerId = "F6EE3598-E048-4269-B54C-F84174B7F0FB";
paths = (
{
closed = 1;
nodes = (
"395 203 LINE",
"395 318 LINE",
"100 318 LINE",
"100 203 LINE"
);
},
{
closed = 1;
nodes = (
"540 0 LINE",
"414 318 LINE",
"288 318 LINE",
"417 0 LINE"
);
},
{
closed = 1;
nodes = (
"352 252 LINE",
"467 649 LINE",
"347 649 LINE",
"232 252 LINE"
);
},
{
closed = 1;
nodes = (
"372 534 LINE",
"531 534 LINE",
"531 649 LINE",
"372 649 LINE"
);
},
{
closed = 1;
nodes = (
"220 0 LINE",
"220 650 LINE",
"100 650 LINE",
"100 0 LINE"
);
}
);
width = 590;
},
{
associatedMasterId = "F6EE3598-E048-4269-B54C-F84174B7F0FB";
guideLines = (
{
position = "{339, 252}";
}
);
layerId = "D1F4E6CB-F967-4E57-8A64-097CC3E10496";
name = "Jan 21 21, 21:58";
paths = (
{
closed = 1;
nodes = (
"370 198 LINE",
"370 318 LINE",
"100 318 LINE",
"100 198 LINE"
);
},
{
closed = 1;
nodes = (
"520 649 LINE",
"404 649 LINE",
"219 252 LINE",
"335 252 LINE"
);
},
{
closed = 1;
nodes = (
"417 0 LINE",
"535 0 LINE",
"344 389 LINE",
"310 213 LINE"
);
},
{
closed = 1;
nodes = (
"220 0 LINE",
"220 650 LINE",
"100 650 LINE",
"100 0 LINE"
);
}
);
width = 615;
},
{
anchors = (
{
name = bottom;
position = "{308, 0}";
},
{
name = top;
position = "{308, 649}";
}
);
associatedMasterId = "DEEA460D-B437-4534-881A-9FF6A59DEC7E";
guideLines = (
{
position = "{370, 318}";
},
{
angle = 90;
position = "{517, 649}";
}
);
layerId = "12871F14-B6E8-45A7-AB1F-99428582EA34";
name = "Apr 28 21, 17:54";
paths = (
{
closed = 1;
nodes = (
"280 306 LINE",
"522 649 LINE",
"507 649 LINE",
"265 306 LINE"
);
},
{
closed = 1;
nodes = (
"275 306 LINE",
"275 318 LINE",
"120 318 LINE",
"120 306 LINE"
);
},
{
closed = 1;
nodes = (
"540 0 LINE",
"281 318 LINE",
"264 318 LINE",
"526 0 LINE"
);
},
{
closed = 1;
nodes = (
"132 0 LINE",
"132 650 LINE",
"120 650 LINE",
"120 0 LINE"
);
}
);
width = 630;
},
{
anchors = (
{
name = bottom;
position = "{308, 0}";
},
{
name = top;
position = "{308, 649}";
}
);
associatedMasterId = "DEEA460D-B437-4534-881A-9FF6A59DEC7E";
guideLines = (
{
position = "{370, 318}";
},
{
angle = 90;
position = "{517, 649}";
}
);
layerId = "205E11A7-008B-4891-A0AC-EED37A5BF00B";
name = "Apr 28 21, 17:55";
paths = (
{
closed = 1;
nodes = (
"380 306 LINE",
"522 649 LINE",
"509 649 LINE",
"367 306 LINE"
);
},
{
closed = 1;
nodes = (
"375 306 LINE",
"375 318 LINE",
"120 318 LINE",
"120 306 LINE"
);
},
{
closed = 1;
nodes = (
"540 0 LINE",
"381 318 LINE",
"367 318 LINE",
"529 0 LINE"
);
},
{
closed = 1;
nodes = (
"132 0 LINE",
"132 650 LINE",
"120 650 LINE",
"120 0 LINE"
);
}
);
width = 630;
}
);
leftMetricsKey = H;
note = K;
rightKerningGroup = X;
rightMetricsKey = A;
},
{
glyphname = W.ss03;
lastChange = "2023-01-12 13:01:40 +0000";
layers = (
{
anchors = (
{
name = bottom;
position = "{440, 0}";
},
{
name = top;
position = "{440, 650}";
}
);
layerId = "DEEA460D-B437-4534-881A-9FF6A59DEC7E";
paths = (
{
closed = 1;
nodes = (
"224 0 LINE",
"305 0 LINE",
"409 508 LINE",
"471 508 LINE",
"575 0 LINE",
"656 0 LINE",
"830 649 LINE",
"818 649 LINE",
"648 12 LINE",
"584 12 LINE",
"481 520 LINE",
"399 520 LINE",
"296 12 LINE",
"233 12 LINE",
"63 649 LINE",
"50 649 LINE"
);
}
);
width = 880;
},
{
anchors = (
{
name = bottom;
position = "{440, 0}";
},
{
name = top;
position = "{440, 590}";
}
);
guideLines = (
{
position = "{19, 113}";
},
{
position = "{324, 457}";
},
{
position = "{418, 342}";
}
);
layerId = "F6EE3598-E048-4269-B54C-F84174B7F0FB";
paths = (
{
closed = 1;
nodes = (
"214 0 LINE",
"365 0 LINE",
"449 365 LINE",
"421 365 LINE",
"505 0 LINE",
"666 0 LINE",
"830 650 LINE",
"709 650 LINE",
"575 113 LINE",
"584 113 LINE",
"502 480 LINE",
"368 480 LINE",
"286 113 LINE",
"305 113 LINE",
"171 650 LINE",
"50 650 LINE"
);
}
);
width = 880;
},
{
associatedMasterId = "DEEA460D-B437-4534-881A-9FF6A59DEC7E";
layerId = "C47CE027-C6E9-463A-90DB-949AB8EB14BD";
name = "May 31 21, 10:06";
paths = (
{
closed = 1;
nodes = (
"708 649 LINE",
"574 12 LINE",
"514 12 LINE",
"445 339 LINE",
"394 339 LINE",
"394 327 LINE",
"435 327 LINE",
"504 0 LINE",
"584 0 LINE",
"720 649 LINE"
);
},
{
closed = 1;
nodes = (
"226 0 LINE",
"306 0 LINE",
"375 327 LINE",
"416 327 LINE",
"416 339 LINE",
"365 339 LINE",
"296 12 LINE",
"236 12 LINE",
"102 649 LINE",
"90 649 LINE"
);
}
);
width = 810;
},
{
anchors = (
{
name = bottom;
position = "{418, 0}";
},
{
name = top;
position = "{418, 649}";
}
);
associatedMasterId = "F6EE3598-E048-4269-B54C-F84174B7F0FB";
layerId = "CC348AFC-C8C6-4FD5-8612-B91E1F8CF3CA";
name = "May 31 21, 10:06";
paths = (
{
closed = 1;
nodes = (
"708 649 LINE",
"574 12 LINE",
"514 12 LINE",
"445 339 LINE",
"394 339 LINE",
"394 327 LINE",
"435 327 LINE",
"504 0 LINE",
"584 0 LINE",
"720 649 LINE"
);
},
{
closed = 1;
nodes = (
"226 0 LINE",
"306 0 LINE",
"375 327 LINE",
"416 327 LINE",
"416 339 LINE",
"365 339 LINE",
"296 12 LINE",
"236 12 LINE",
"102 649 LINE",
"90 649 LINE"
);
}
);
width = 836;
},
{
anchors = (
{
name = bottom;
position = "{418, 0}";
},
{
name = top;
position = "{418, 649}";
}
);
associatedMasterId = "DEEA460D-B437-4534-881A-9FF6A59DEC7E";
components = (
{
name = M;
transform = "{1, 0, 0, -1, 0, 650}";
}
);
layerId = "372620F9-A7D4-4532-AE26-87892B2BA255";
name = "May 31 21, 10:06";
width = 836;
},
{
anchors = (
{
name = bottom;
position = "{415, 0}";
},
{
name = top;
position = "{415, 590}";
}
);
associatedMasterId = "F6EE3598-E048-4269-B54C-F84174B7F0FB";
guideLines = (
{
position = "{19, 113}";
},
{
position = "{324, 457}";
},
{
position = "{418, 342}";
}
);
layerId = "8718E034-8404-441E-8861-6981EAE218C9";
name = "12 janv. 23 à 10:28";
paths = (
{
closed = 1;
nodes = (
"224 0 LINE",
"345 0 LINE",
"439 342 LINE",
"391 342 LINE",
"485 0 LINE",
"606 0 LINE",
"780 650 LINE",
"659 650 LINE",
"515 113 LINE",
"564 113 LINE",
"472 457 LINE",
"358 457 LINE",
"266 113 LINE",
"315 113 LINE",
"171 650 LINE",
"50 650 LINE"
);
}
);
width = 830;
}
);
leftKerningGroup = V;
leftMetricsKey = A;
note = W;
rightKerningGroup = V;
rightMetricsKey = A;
},
{
glyphname = O.ss04;
lastChange = "2023-01-10 09:58:15 +0000";
layers = (
{
anchors = (
{
name = bottom;
position = "{400, 0}";
},
{
name = center;
position = "{400, 325}";
},
{
name = ogonek;
position = "{482, 10}";
},
{
name = top;
position = "{400, 649}";
},
{
name = topleft;
position = "{10, 649}";
},
{
name = topright;
position = "{790, 649}";
}
);
guideLines = (
{
position = "{435, -16}";
},
{
angle = 90;
position = "{400, 213}";
}
);
layerId = "DEEA460D-B437-4534-881A-9FF6A59DEC7E";
paths = (
{
closed = 1;
nodes = (
"579 -16 OFFCURVE",
"720 134 OFFCURVE",
"720 324 CURVE SMOOTH",
"720 514 OFFCURVE",
"579 664 OFFCURVE",
"400 664 CURVE SMOOTH",
"221 664 OFFCURVE",
"80 514 OFFCURVE",
"80 324 CURVE SMOOTH",
"80 134 OFFCURVE",
"222 -16 OFFCURVE",
"400 -16 CURVE SMOOTH"
);
},
{
closed = 1;
nodes = (
"228 -4 OFFCURVE",
"92 140 OFFCURVE",
"92 324 CURVE SMOOTH",
"92 508 OFFCURVE",
"228 652 OFFCURVE",
"400 652 CURVE SMOOTH",
"572 652 OFFCURVE",
"708 508 OFFCURVE",
"708 324 CURVE SMOOTH",
"708 140 OFFCURVE",
"572 -4 OFFCURVE",
"400 -4 CURVE SMOOTH"
);
}
);
width = 800;
},
{
anchors = (
{
name = bottom;
position = "{400, 0}";
},
{
name = center;
position = "{400, 324}";
},
{
name = ogonek;
position = "{482, 10}";
},
{
name = top;
position = "{400, 649}";
},
{
name = topleft;
position = "{10, 649}";
},
{
name = topright;
position = "{790, 649}";
}
);
guideLines = (
{
position = "{400, -16}";
},
{
angle = 90;
position = "{400, 141}";
}
);
layerId = "F6EE3598-E048-4269-B54C-F84174B7F0FB";
paths = (
{
closed = 1;
nodes = (
"579 -16 OFFCURVE",
"720 134 OFFCURVE",
"720 324 CURVE SMOOTH",
"720 514 OFFCURVE",
"580 664 OFFCURVE",
"400 664 CURVE SMOOTH",
"221 664 OFFCURVE",
"80 514 OFFCURVE",
"80 324 CURVE SMOOTH",
"80 134 OFFCURVE",
"221 -16 OFFCURVE",
"400 -16 CURVE SMOOTH"
);
},
{
closed = 1;
nodes = (
"291 109 OFFCURVE",
"205 204 OFFCURVE",
"205 324 CURVE SMOOTH",
"205 444 OFFCURVE",
"291 539 OFFCURVE",
"400 539 CURVE SMOOTH",
"509 539 OFFCURVE",
"595 444 OFFCURVE",
"595 324 CURVE SMOOTH",
"595 204 OFFCURVE",
"509 109 OFFCURVE",
"400 109 CURVE SMOOTH"
);
}
);
width = 800;
},
{
anchors = (
{
name = bottom;
position = "{395, 0}";
},
{
name = center;
position = "{395, 324}";
},
{
name = ogonek;
position = "{477, 10}";
},
{
name = top;
position = "{395, 649}";
},
{
name = topleft;
position = "{5, 649}";
},
{
name = topright;
position = "{785, 649}";
}
);
associatedMasterId = "F6EE3598-E048-4269-B54C-F84174B7F0FB";
guideLines = (
{
position = "{395, -16}";
},
{
angle = 90;
position = "{395, 141}";
}
);
layerId = "C40F3EF1-7375-4B1A-B2C0-B9A125B1034E";
name = "May 29 21, 11:40";
paths = (
{
closed = 1;
nodes = (
"575 -15 OFFCURVE",
"699 134 OFFCURVE",
"700 324 CURVE SMOOTH",
"700 511 OFFCURVE",
"576 658 OFFCURVE",
"395 658 CURVE SMOOTH",
"214 658 OFFCURVE",
"90 511 OFFCURVE",
"90 324 CURVE SMOOTH",
"91 134 OFFCURVE",
"215 -15 OFFCURVE",
"395 -15 CURVE SMOOTH"
);
},
{
closed = 1;
nodes = (
"302 112 OFFCURVE",
"226 205 OFFCURVE",
"225 324 CURVE SMOOTH",
"224 440 OFFCURVE",
"300 532 OFFCURVE",
"395 532 CURVE SMOOTH",
"488 532 OFFCURVE",
"564 440 OFFCURVE",
"565 324 CURVE SMOOTH",
"566 205 OFFCURVE",
"490 112 OFFCURVE",
"395 112 CURVE SMOOTH"
);
}
);
width = 790;
}
);
leftKerningGroup = O;
note = O;
rightKerningGroup = O;
},
{
glyphname = Oslash.ss04;
lastChange = "2021-06-29 14:37:28 +0000";
layers = (
{
components = (
{
name = O.ss04;
}
);
guideLines = (
{
position = "{759, -15}";
},
{
position = "{493, 665}";
}
);
layerId = "DEEA460D-B437-4534-881A-9FF6A59DEC7E";
paths = (
{
closed = 1;
nodes = (
"168 0 LINE",
"689 649 LINE",
"673 649 LINE",
"152 0 LINE"
);
}
);
width = 820;
},
{
components = (
{
name = O.ss04;
}
);
guideLines = (
{
position = "{768, -15}";
},
{
position = "{502, 665}";
}
);
layerId = "F6EE3598-E048-4269-B54C-F84174B7F0FB";
paths = (
{
closed = 1;
nodes = (
"236 0 LINE",
"730 649 LINE",
"584 649 LINE",
"90 0 LINE"
);
}
);
width = 820;
}
);
leftKerningGroup = O;
rightKerningGroup = O;
},
{
glyphname = Q.ss04;
lastChange = "2023-01-12 13:03:09 +0000";
layers = (
{
anchors = (
{
name = bottom;
position = "{400, 0}";
},
{
name = top;
position = "{400, 650}";
}
);
layerId = "DEEA460D-B437-4534-881A-9FF6A59DEC7E";
paths = (
{
closed = 1;
nodes = (
"702 0 LINE",
"490 219 LINE",
"482 210 LINE",
"687 0 LINE"
);
},
{
closed = 1;
nodes = (
"579 -16 OFFCURVE",
"720 134 OFFCURVE",
"720 324 CURVE SMOOTH",
"720 514 OFFCURVE",
"579 664 OFFCURVE",
"400 664 CURVE SMOOTH",
"221 664 OFFCURVE",
"80 514 OFFCURVE",
"80 324 CURVE SMOOTH",
"80 134 OFFCURVE",
"222 -16 OFFCURVE",
"400 -16 CURVE SMOOTH"
);
},
{
closed = 1;
nodes = (
"228 -4 OFFCURVE",
"92 140 OFFCURVE",
"92 324 CURVE SMOOTH",
"92 508 OFFCURVE",
"228 652 OFFCURVE",
"400 652 CURVE SMOOTH",
"572 652 OFFCURVE",
"708 508 OFFCURVE",
"708 324 CURVE SMOOTH",
"708 140 OFFCURVE",
"572 -4 OFFCURVE",
"400 -4 CURVE SMOOTH"
);
}
);
width = 800;
},
{
anchors = (
{
name = bottom;
position = "{400, 0}";
},
{
name = top;
position = "{400, 650}";
}
);
guideLines = (
{
angle = 90;
position = "{715, 295}";
}
);
layerId = "F6EE3598-E048-4269-B54C-F84174B7F0FB";
paths = (
{
closed = 1;
nodes = (
"715 0 LINE",
"509 238 LINE",
"352 238 LINE",
"564 0 LINE"
);
},
{
closed = 1;
nodes = (
"579 -16 OFFCURVE",
"720 134 OFFCURVE",
"720 324 CURVE SMOOTH",
"720 514 OFFCURVE",
"580 664 OFFCURVE",
"400 664 CURVE SMOOTH",
"221 664 OFFCURVE",
"80 514 OFFCURVE",
"80 324 CURVE SMOOTH",
"80 134 OFFCURVE",
"221 -16 OFFCURVE",
"400 -16 CURVE SMOOTH"
);
},
{
closed = 1;
nodes = (
"291 109 OFFCURVE",
"205 204 OFFCURVE",
"205 324 CURVE SMOOTH",
"205 444 OFFCURVE",
"291 539 OFFCURVE",
"400 539 CURVE SMOOTH",
"509 539 OFFCURVE",
"595 444 OFFCURVE",
"595 324 CURVE SMOOTH",
"595 204 OFFCURVE",
"509 109 OFFCURVE",
"400 109 CURVE SMOOTH"
);
}
);
width = 800;
}
);
leftKerningGroup = O;
leftMetricsKey = O;
note = Q;
rightKerningGroup = A;
rightMetricsKey = O;
},
{
glyphname = O.ss05;
lastChange = "2023-01-10 09:58:15 +0000";
layers = (
{
anchors = (
{
name = bottom;
position = "{499, 0}";
},
{
name = center;
position = "{499, 325}";
},
{
name = ogonek;
position = "{906, 10}";
},
{
name = top;
position = "{499, 649}";
},
{
name = topleft;
position = "{10, 649}";
},
{
name = topright;
position = "{988, 649}";
}
);
guideLines = (
{
position = "{420, -16}";
},
{
angle = 90;
position = "{420, 141}";
}
);
layerId = "DEEA460D-B437-4534-881A-9FF6A59DEC7E";
paths = (
{
closed = 1;
nodes = (
"589 0 LINE SMOOTH",
"773 0 OFFCURVE",
"918 146 OFFCURVE",
"918 329 CURVE SMOOTH",
"918 504 OFFCURVE",
"765 649 OFFCURVE",
"589 649 CURVE SMOOTH",
"409 649 LINE SMOOTH",
"231 649 OFFCURVE",
"80 501 OFFCURVE",
"80 329 CURVE SMOOTH",
"80 148 OFFCURVE",
"222 0 OFFCURVE",
"409 0 CURVE SMOOTH"
);
},
{
closed = 1;
nodes = (
"232 12 OFFCURVE",
"92 152 OFFCURVE",
"92 329 CURVE SMOOTH",
"92 495 OFFCURVE",
"238 637 OFFCURVE",
"409 637 CURVE SMOOTH",
"589 637 LINE SMOOTH",
"760 637 OFFCURVE",
"906 495 OFFCURVE",
"906 329 CURVE SMOOTH",
"906 152 OFFCURVE",
"766 12 OFFCURVE",
"589 12 CURVE SMOOTH",
"409 12 LINE SMOOTH"
);
}
);
width = 998;
},
{
anchors = (
{
name = bottom;
position = "{499, 0}";
},
{
name = center;
position = "{499, 325}";
},
{
name = ogonek;
position = "{906, 10}";
},
{
name = top;
position = "{499, 649}";
},
{
name = topleft;
position = "{10, 649}";
},
{
name = topright;
position = "{988, 649}";
}
);
layerId = "F6EE3598-E048-4269-B54C-F84174B7F0FB";
paths = (
{
closed = 1;
nodes = (
"589 0 LINE SMOOTH",
"773 0 OFFCURVE",
"918 146 OFFCURVE",
"918 329 CURVE SMOOTH",
"918 504 OFFCURVE",
"765 649 OFFCURVE",
"589 649 CURVE SMOOTH",
"409 649 LINE SMOOTH",
"231 649 OFFCURVE",
"80 501 OFFCURVE",
"80 329 CURVE SMOOTH",
"80 148 OFFCURVE",
"222 0 OFFCURVE",
"409 0 CURVE SMOOTH"
);
},
{
closed = 1;
nodes = (
"294 125 OFFCURVE",
"205 214 OFFCURVE",
"205 329 CURVE SMOOTH",
"205 433 OFFCURVE",
"300 524 OFFCURVE",
"409 524 CURVE SMOOTH",
"589 524 LINE SMOOTH",
"698 524 OFFCURVE",
"793 433 OFFCURVE",
"793 329 CURVE SMOOTH",
"793 214 OFFCURVE",
"704 125 OFFCURVE",
"589 125 CURVE SMOOTH",
"409 125 LINE SMOOTH"
);
}
);
width = 998;
}
);
leftKerningGroup = O;
leftMetricsKey = O;
note = O;
rightKerningGroup = O;
rightMetricsKey = O;
},
{
glyphname = Oslash.ss05;
lastChange = "2021-06-02 18:53:12 +0000";
layers = (
{
components = (
{
name = O.ss05;
}
);
guideLines = (
{
position = "{759, -15}";
},
{
position = "{493, 665}";
}
);
layerId = "DEEA460D-B437-4534-881A-9FF6A59DEC7E";
paths = (
{
closed = 1;
nodes = (
"207 0 LINE",
"828 649 LINE",
"812 649 LINE",
"191 0 LINE"
);
}
);
width = 1018;
},
{
components = (
{
name = O.ss05;
}
);
guideLines = (
{
position = "{768, -15}";
},
{
position = "{502, 665}";
}
);
layerId = "F6EE3598-E048-4269-B54C-F84174B7F0FB";
paths = (
{
closed = 1;
nodes = (
"272 0 LINE",
"893 649 LINE",
"747 649 LINE",
"126 0 LINE"
);
}
);
width = 1018;
}
);
leftKerningGroup = O;
rightKerningGroup = O;
},
{
glyphname = Q.ss05;
lastChange = "2023-01-10 09:58:15 +0000";
layers = (
{
anchors = (
{
name = bottom;
position = "{499, 0}";
},
{
name = center;
position = "{499, 325}";
},
{
name = ogonek;
position = "{906, 10}";
},
{
name = top;
position = "{499, 649}";
},
{
name = topleft;
position = "{10, 649}";
},
{
name = topright;
position = "{988, 649}";
}
);
layerId = "DEEA460D-B437-4534-881A-9FF6A59DEC7E";
paths = (
{
closed = 1;
nodes = (
"928 0 LINE",
"716 219 LINE",
"708 210 LINE",
"913 0 LINE"
);
},
{
closed = 1;
nodes = (
"589 0 LINE SMOOTH",
"773 0 OFFCURVE",
"918 146 OFFCURVE",
"918 329 CURVE SMOOTH",
"918 504 OFFCURVE",
"765 649 OFFCURVE",
"589 649 CURVE SMOOTH",
"409 649 LINE SMOOTH",
"231 649 OFFCURVE",
"80 501 OFFCURVE",
"80 329 CURVE SMOOTH",
"80 148 OFFCURVE",
"222 0 OFFCURVE",
"409 0 CURVE SMOOTH"
);
},
{
closed = 1;
nodes = (
"232 12 OFFCURVE",
"92 152 OFFCURVE",
"92 329 CURVE SMOOTH",
"92 495 OFFCURVE",
"238 637 OFFCURVE",
"409 637 CURVE SMOOTH",
"589 637 LINE SMOOTH",
"760 637 OFFCURVE",
"906 495 OFFCURVE",
"906 329 CURVE SMOOTH",
"906 152 OFFCURVE",
"766 12 OFFCURVE",
"589 12 CURVE SMOOTH",
"409 12 LINE SMOOTH"
);
}
);
width = 1008;
},
{
anchors = (
{
name = bottom;
position = "{499, 0}";
},
{
name = center;
position = "{499, 325}";
},
{
name = ogonek;
position = "{906, 10}";
},
{
name = top;
position = "{499, 649}";
},
{
name = topleft;
position = "{10, 649}";
},
{
name = topright;
position = "{988, 649}";
}
);
layerId = "F6EE3598-E048-4269-B54C-F84174B7F0FB";
paths = (
{
closed = 1;
nodes = (
"928 0 LINE",
"775 161 LINE",
"699 80 LINE",
"777 0 LINE"
);
},
{
closed = 1;
nodes = (
"589 0 LINE SMOOTH",
"773 0 OFFCURVE",
"918 146 OFFCURVE",
"918 329 CURVE SMOOTH",
"918 504 OFFCURVE",
"765 649 OFFCURVE",
"589 649 CURVE SMOOTH",
"409 649 LINE SMOOTH",
"231 649 OFFCURVE",
"80 501 OFFCURVE",
"80 329 CURVE SMOOTH",
"80 148 OFFCURVE",
"222 0 OFFCURVE",
"409 0 CURVE SMOOTH"
);
},
{
closed = 1;
nodes = (
"294 125 OFFCURVE",
"205 214 OFFCURVE",
"205 329 CURVE SMOOTH",
"205 433 OFFCURVE",
"300 524 OFFCURVE",
"409 524 CURVE SMOOTH",
"589 524 LINE SMOOTH",
"698 524 OFFCURVE",
"793 433 OFFCURVE",
"793 329 CURVE SMOOTH",
"793 214 OFFCURVE",
"704 125 OFFCURVE",
"589 125 CURVE SMOOTH",
"409 125 LINE SMOOTH"
);
}
);
width = 1008;
}
);
leftKerningGroup = O;
leftMetricsKey = O;
note = Q;
rightKerningGroup = O;
rightMetricsKey = O;
},
{
glyphname = A_O_N.dlig;
lastChange = "2023-01-12 07:46:54 +0000";
layers = (
{
anchors = (
{
name = bottom_1;
position = "{1623, 0}";
},
{
name = bottom_2;
position = "{320, 0}";
},
{
name = ogonek_1;
position = "{1813, 0}";
},
{
name = ogonek_2;
position = "{584, 10}";
},
{
name = top_1;
position = "{1623, 649}";
},
{
name = top_2;
position = "{320, 650}";
},
{
name = topleft_1;
position = "{1674, 649}";
}
);
guideLines = (
{
angle = 90;
position = "{1250, 615}";
}
);
layerId = "DEEA460D-B437-4534-881A-9FF6A59DEC7E";
paths = (
{
closed = 1;
nodes = (
"1109 -16 OFFCURVE",
"1250 134 OFFCURVE",
"1250 324 CURVE SMOOTH",
"1250 514 OFFCURVE",
"1109 664 OFFCURVE",
"930 664 CURVE SMOOTH",
"751 664 OFFCURVE",
"610 514 OFFCURVE",
"610 324 CURVE SMOOTH",
"610 134 OFFCURVE",
"752 -16 OFFCURVE",
"930 -16 CURVE SMOOTH"
);
},
{
closed = 1;
nodes = (
"633 210 LINE",
"633 222 LINE",
"446 222 LINE",
"446 210 LINE"
);
},
{
closed = 1;
nodes = (
"758 -4 OFFCURVE",
"622 140 OFFCURVE",
"622 324 CURVE SMOOTH",
"622 508 OFFCURVE",
"758 652 OFFCURVE",
"930 652 CURVE SMOOTH",
"1102 652 OFFCURVE",
"1238 508 OFFCURVE",
"1238 324 CURVE SMOOTH",
"1238 140 OFFCURVE",
"1102 -4 OFFCURVE",
"930 -4 CURVE SMOOTH"
);
},
{
closed = 1;
nodes = (
"1830 311 LINE",
"1830 323 LINE",
"1756 323 LINE",
"1515 650 LINE",
"1435 650 LINE",
"1435 638 LINE",
"1509 638 LINE",
"1750 311 LINE"
);
},
{
closed = 1;
nodes = (
"1447 0 LINE",
"1447 650 LINE",
"1435 650 LINE",
"1435 0 LINE"
);
},
{
closed = 1;
nodes = (
"1830 0 LINE",
"1830 650 LINE",
"1818 650 LINE",
"1818 0 LINE"
);
},
{
closed = 1;
nodes = (
"505 210 LINE",
"505 222 LINE",
"135 222 LINE",
"135 210 LINE"
);
},
{
closed = 1;
nodes = (
"360 650 LINE",
"280 650 LINE",
"50 0 LINE",
"63 0 LINE",
"289 638 LINE",
"352 638 LINE",
"577 0 LINE",
"590 0 LINE"
);
}
);
width = 1950;
},
{
anchors = (
{
name = bottom_1;
position = "{1636, 0}";
},
{
name = bottom_2;
position = "{320, 0}";
},
{
name = ogonek_1;
position = "{1808, 0}";
},
{
name = ogonek_2;
position = "{584, 10}";
},
{
name = top_1;
position = "{1636, 649}";
},
{
name = top_2;
position = "{320, 650}";
},
{
name = topleft_1;
position = "{1650, 649}";
}
);
guideLines = (
{
angle = 90;
position = "{1175, 596}";
},
{
angle = 90;
position = "{1365, 849}";
}
);
layerId = "F6EE3598-E048-4269-B54C-F84174B7F0FB";
paths = (
{
closed = 1;
nodes = (
"1109 -16 OFFCURVE",
"1250 134 OFFCURVE",
"1250 324 CURVE SMOOTH",
"1250 514 OFFCURVE",
"1110 664 OFFCURVE",
"930 664 CURVE SMOOTH",
"751 664 OFFCURVE",
"610 514 OFFCURVE",
"610 324 CURVE SMOOTH",
"610 134 OFFCURVE",
"751 -16 OFFCURVE",
"930 -16 CURVE SMOOTH"
);
},
{
closed = 1;
nodes = (
"673 158 LINE",
"673 273 LINE",
"461 273 LINE",
"461 158 LINE"
);
},
{
closed = 1;
nodes = (
"821 109 OFFCURVE",
"735 204 OFFCURVE",
"735 324 CURVE SMOOTH",
"735 444 OFFCURVE",
"821 539 OFFCURVE",
"930 539 CURVE SMOOTH",
"1039 539 OFFCURVE",
"1125 444 OFFCURVE",
"1125 324 CURVE SMOOTH",
"1125 204 OFFCURVE",
"1039 109 OFFCURVE",
"930 109 CURVE SMOOTH"
);
},
{
closed = 1;
nodes = (
"1785 267 LINE",
"1785 382 LINE",
"1740 382 LINE",
"1545 650 LINE",
"1470 650 LINE",
"1470 535 LINE",
"1495 535 LINE",
"1690 267 LINE"
);
},
{
closed = 1;
nodes = (
"1545 0 LINE",
"1545 650 LINE",
"1425 650 LINE",
"1425 0 LINE"
);
},
{
closed = 1;
nodes = (
"1860 0 LINE",
"1860 650 LINE",
"1740 650 LINE",
"1740 0 LINE"
);
},
{
closed = 1;
nodes = (
"455 158 LINE",
"455 273 LINE",
"185 273 LINE",
"185 158 LINE"
);
},
{
closed = 1;
nodes = (
"405 650 LINE",
"244 650 LINE",
"50 0 LINE",
"171 0 LINE",
"328 546 LINE",
"324 546 LINE",
"475 0 LINE",
"590 0 LINE"
);
}
);
width = 1960;
},
{
associatedMasterId = "F6EE3598-E048-4269-B54C-F84174B7F0FB";
components = (
{
name = N;
transform = "{1, 0, 0, 1, 970, 0}";
}
);
guideLines = (
{
angle = 90;
position = "{880, 596}";
},
{
angle = 90;
position = "{1070, 849}";
}
);
layerId = "AD264306-C35A-4127-A87A-052E16E42F42";
name = "Jun 29 21, 13:14";
paths = (
{
closed = 1;
nodes = (
"211 0 LINE",
"390 541 LINE",
"342 529 LINE",
"492 529 LINE",
"492 649 LINE",
"304 649 LINE",
"90 0 LINE"
);
},
{
closed = 1;
nodes = (
"495 158 LINE",
"495 273 LINE",
"225 273 LINE",
"225 158 LINE"
);
},
{
closed = 1;
nodes = (
"545 650 LINE",
"425 650 LINE",
"425 0 LINE",
"545 0 LINE"
);
},
{
closed = 1;
nodes = (
"754 0 OFFCURVE",
"880 130 OFFCURVE",
"880 325 CURVE",
"760 325 LINE",
"760 202 OFFCURVE",
"678 115 OFFCURVE",
"555 115 CURVE SMOOTH",
"445 115 LINE",
"445 0 LINE",
"565 0 LINE SMOOTH"
);
},
{
closed = 1;
nodes = (
"880 519 OFFCURVE",
"754 650 OFFCURVE",
"565 650 CURVE SMOOTH",
"445 650 LINE",
"445 535 LINE",
"555 535 LINE SMOOTH",
"678 535 OFFCURVE",
"760 447 OFFCURVE",
"760 325 CURVE",
"880 325 LINE"
);
}
);
width = 1605;
},
{
associatedMasterId = "F6EE3598-E048-4269-B54C-F84174B7F0FB";
components = (
{
alignment = -1;
name = N;
transform = "{1, 0, 0, 1, 720, 0}";
}
);
guideLines = (
{
angle = 90;
position = "{630, 596}";
},
{
angle = 90;
position = "{820, 849}";
}
);
layerId = "CE20B665-EDB2-4530-941E-F877A38E450A";
name = "Jul 5 21, 17:46";
paths = (
{
closed = 1;
nodes = (
"445 650 LINE",
"284 650 LINE",
"90 0 LINE",
"211 0 LINE",
"368 546 LINE",
"364 546 LINE",
"515 0 LINE",
"630 0 LINE"
);
},
{
closed = 1;
nodes = (
"437 -10 OFFCURVE",
"494 47 OFFCURVE",
"494 119 CURVE SMOOTH",
"494 191 OFFCURVE",
"437 248 OFFCURVE",
"365 248 CURVE SMOOTH",
"293 248 OFFCURVE",
"236 191 OFFCURVE",
"236 119 CURVE SMOOTH",
"236 47 OFFCURVE",
"293 -10 OFFCURVE",
"365 -10 CURVE SMOOTH"
);
},
{
closed = 1;
nodes = (
"341 75 OFFCURVE",
"321 95 OFFCURVE",
"321 119 CURVE SMOOTH",
"321 144 OFFCURVE",
"341 165 OFFCURVE",
"365 165 CURVE SMOOTH",
"390 165 OFFCURVE",
"411 144 OFFCURVE",
"411 119 CURVE SMOOTH",
"411 95 OFFCURVE",
"390 75 OFFCURVE",
"365 75 CURVE SMOOTH"
);
}
);
width = 1355;
},
{
associatedMasterId = "F6EE3598-E048-4269-B54C-F84174B7F0FB";
components = (
{
alignment = -1;
name = N;
transform = "{1, 0, 0, 1, 720, 0}";
},
{
name = o;
transform = "{1, 0, 0, 1, 10, 300}";
}
);
guideLines = (
{
angle = 90;
position = "{630, 596}";
},
{
angle = 90;
position = "{820, 849}";
}
);
layerId = "C7DB74CB-13AE-44C0-894B-BC703E77AA04";
name = "Jul 5 21, 17:47";
paths = (
{
closed = 1;
nodes = (
"440 650 LINE",
"279 650 LINE",
"85 0 LINE",
"206 0 LINE",
"363 546 LINE",
"359 546 LINE",
"510 0 LINE",
"625 0 LINE"
);
}
);
width = 1355;
},
{
associatedMasterId = "DEEA460D-B437-4534-881A-9FF6A59DEC7E";
components = (
{
alignment = -1;
name = N;
transform = "{1, 0, 0, 1, 720, 0}";
}
);
layerId = "1C45D108-CB5F-4086-BA5A-DC489B348438";
name = "Jul 5 21, 17:50";
paths = (
{
closed = 1;
nodes = (
"400 650 LINE",
"320 650 LINE",
"90 0 LINE",
"103 0 LINE",
"329 638 LINE",
"392 638 LINE",
"617 0 LINE",
"630 0 LINE"
);
},
{
closed = 1;
nodes = (
"437 -10 OFFCURVE",
"494 47 OFFCURVE",
"494 119 CURVE SMOOTH",
"494 191 OFFCURVE",
"437 248 OFFCURVE",
"365 248 CURVE SMOOTH",
"293 248 OFFCURVE",
"236 191 OFFCURVE",
"236 119 CURVE SMOOTH",
"236 47 OFFCURVE",
"293 -10 OFFCURVE",
"365 -10 CURVE SMOOTH"
);
},
{
closed = 1;
nodes = (
"299 3 OFFCURVE",
"249 54 OFFCURVE",
"249 119 CURVE SMOOTH",
"249 184 OFFCURVE",
"299 235 OFFCURVE",
"364 235 CURVE SMOOTH",
"428 235 OFFCURVE",
"480 184 OFFCURVE",
"481 119 CURVE SMOOTH",
"480 54 OFFCURVE",
"428 3 OFFCURVE",
"364 3 CURVE SMOOTH"
);
}
);
width = 1355;
},
{
associatedMasterId = "F6EE3598-E048-4269-B54C-F84174B7F0FB";
components = (
{
alignment = -1;
name = N;
transform = "{1, 0, 0, 1, 865, 0}";
},
{
name = A;
}
);
guideLines = (
{
angle = 90;
position = "{775, 596}";
},
{
angle = 90;
position = "{965, 849}";
}
);
layerId = "9E41BA43-496B-405A-A797-F413FD97FBF5";
name = "Jul 5 21, 17:52";
paths = (
{
closed = 1;
nodes = (
"631 1 LINE",
"767 45 OFFCURVE",
"865 173 OFFCURVE",
"865 324 CURVE SMOOTH",
"865 512 OFFCURVE",
"713 664 OFFCURVE",
"525 664 CURVE SMOOTH",
"490 664 OFFCURVE",
"457 659 OFFCURVE",
"425 649 CURVE SMOOTH",
"403 642 OFFCURVE",
"381 633 OFFCURVE",
"361 622 CURVE",
"409 505 LINE",
"424 514 OFFCURVE",
"439 521 OFFCURVE",
"455 527 CURVE SMOOTH",
"477 535 OFFCURVE",
"500 539 OFFCURVE",
"525 539 CURVE SMOOTH",
"644 539 OFFCURVE",
"740 444 OFFCURVE",
"740 324 CURVE SMOOTH",
"740 227 OFFCURVE",
"675 145 OFFCURVE",
"587 118 CURVE"
);
}
);
width = 1500;
},
{
associatedMasterId = "DEEA460D-B437-4534-881A-9FF6A59DEC7E";
components = (
{
alignment = -1;
name = N;
transform = "{1, 0, 0, 1, 865, 0}";
},
{
name = A;
}
);
layerId = "FDE09049-A9B7-4A8E-8CCC-A4A1774EBD71";
name = "Jul 5 21, 17:52";
paths = (
{
closed = 1;
nodes = (
"631 1 LINE",
"767 45 OFFCURVE",
"865 173 OFFCURVE",
"865 324 CURVE SMOOTH",
"865 512 OFFCURVE",
"713 664 OFFCURVE",
"525 664 CURVE SMOOTH",
"490 664 OFFCURVE",
"457 659 OFFCURVE",
"425 649 CURVE SMOOTH",
"403 642 OFFCURVE",
"381 633 OFFCURVE",
"361 622 CURVE",
"409 505 LINE",
"424 514 OFFCURVE",
"439 521 OFFCURVE",
"455 527 CURVE SMOOTH",
"477 535 OFFCURVE",
"500 539 OFFCURVE",
"525 539 CURVE SMOOTH",
"644 539 OFFCURVE",
"740 444 OFFCURVE",
"740 324 CURVE SMOOTH",
"740 227 OFFCURVE",
"675 145 OFFCURVE",
"587 118 CURVE"
);
}
);
width = 1500;
}
);
leftKerningGroup = A;
leftMetricsKey = A;
rightMetricsKey = N;
},
{
glyphname = Eacute_E.dlig;
lastChange = "2023-01-10 09:58:15 +0000";
layers = (
{
anchors = (
{
name = _top;
position = "{359, 649}";
},
{
name = top;
position = "{359, 800}";
}
);
guideLines = (
{
angle = 90;
position = "{354, 693}";
}
);
layerId = "DEEA460D-B437-4534-881A-9FF6A59DEC7E";
paths = (
{
closed = 1;
nodes = (
"610 637 LINE",
"610 649 LINE",
"110 649 LINE",
"110 637 LINE"
);
},
{
closed = 1;
nodes = (
"610 0 LINE",
"610 12 LINE",
"110 12 LINE",
"110 0 LINE"
);
},
{
closed = 1;
nodes = (
"560 318 LINE",
"560 330 LINE",
"160 330 LINE",
"160 318 LINE"
);
},
{
closed = 1;
nodes = (
"366 0 LINE",
"366 649 LINE",
"354 649 LINE",
"354 0 LINE"
);
},
{
closed = 1;
nodes = (
"368 700 LINE",
"424 800 LINE",
"410 800 LINE",
"354 700 LINE"
);
}
);
width = 720;
},
{
anchors = (
{
name = _top;
position = "{360, 650}";
},
{
name = top;
position = "{360, 810}";
}
);
guideLines = (
{
angle = 90;
position = "{209, 442}";
}
);
layerId = "F6EE3598-E048-4269-B54C-F84174B7F0FB";
paths = (
{
closed = 1;
nodes = (
"630 529 LINE",
"630 649 LINE",
"90 649 LINE",
"90 529 LINE"
);
},
{
closed = 1;
nodes = (
"630 0 LINE",
"630 120 LINE",
"90 120 LINE",
"90 0 LINE"
);
},
{
closed = 1;
nodes = (
"580 264 LINE",
"580 384 LINE",
"140 384 LINE",
"140 264 LINE"
);
},
{
closed = 1;
nodes = (
"420 0 LINE",
"420 649 LINE",
"300 649 LINE",
"300 0 LINE"
);
},
{
closed = 1;
nodes = (
"420 710 LINE",
"475 810 LINE",
"360 810 LINE",
"305 710 LINE"
);
}
);
width = 720;
}
);
},
{
glyphname = F_V_E.dlig;
lastChange = "2023-01-10 09:58:15 +0000";
layers = (
{
anchors = (
{
name = bottom_1;
position = "{260, 0}";
},
{
name = bottom_2;
position = "{1127, 0}";
},
{
name = ogonek_2;
position = "{1255, 0}";
},
{
name = "placement accent_2";
position = "{1089, 712}";
},
{
name = top_1;
position = "{260, 650}";
},
{
name = top_2;
position = "{1127, 650}";
},
{
name = topleft_2;
position = "{892, 650}";
}
);
layerId = "DEEA460D-B437-4534-881A-9FF6A59DEC7E";
paths = (
{
closed = 1;
nodes = (
"529 0 LINE",
"610 0 LINE",
"815 649 LINE",
"803 649 LINE",
"601 12 LINE",
"538 12 LINE",
"433 326 LINE",
"421 326 LINE"
);
},
{
closed = 1;
nodes = (
"430 638 LINE",
"430 650 LINE",
"120 650 LINE",
"120 638 LINE"
);
},
{
closed = 1;
nodes = (
"430 314 LINE",
"430 326 LINE",
"120 326 LINE",
"120 314 LINE"
);
},
{
closed = 1;
nodes = (
"132 0 LINE",
"132 650 LINE",
"120 650 LINE",
"120 0 LINE"
);
},
{
closed = 1;
nodes = (
"1272 638 LINE",
"1272 650 LINE",
"972 650 LINE",
"972 638 LINE"
);
},
{
closed = 1;
nodes = (
"1272 0 LINE",
"1272 12 LINE",
"972 12 LINE",
"972 0 LINE"
);
},
{
closed = 1;
nodes = (
"1222 318 LINE",
"1222 330 LINE",
"972 330 LINE",
"972 318 LINE"
);
},
{
closed = 1;
nodes = (
"984 0 LINE",
"984 650 LINE",
"972 650 LINE",
"972 0 LINE"
);
}
);
width = 1372;
},
{
anchors = (
{
name = bottom_1;
position = "{260, 0}";
},
{
name = bottom_2;
position = "{1117, 0}";
},
{
name = ogonek_2;
position = "{1240, 0}";
},
{
name = "placement accent_2";
position = "{1069, 712}";
},
{
name = top_1;
position = "{260, 650}";
},
{
name = top_2;
position = "{1117, 649}";
},
{
name = topleft_2;
position = "{872, 649}";
}
);
guideLines = (
{
angle = 90;
position = "{762, 733}";
},
{
angle = 90;
position = "{952, 703}";
}
);
layerId = "F6EE3598-E048-4269-B54C-F84174B7F0FB";
paths = (
{
closed = 1;
nodes = (
"436 0 LINE",
"557 0 LINE",
"762 649 LINE",
"647 649 LINE",
"477 113 LINE",
"520 113 LINE",
"432 377 LINE",
"311 377 LINE"
);
},
{
closed = 1;
nodes = (
"430 535 LINE",
"430 650 LINE",
"100 650 LINE",
"100 535 LINE"
);
},
{
closed = 1;
nodes = (
"430 262 LINE",
"430 377 LINE",
"100 377 LINE",
"100 262 LINE"
);
},
{
closed = 1;
nodes = (
"220 0 LINE",
"220 650 LINE",
"100 650 LINE",
"100 0 LINE"
);
},
{
closed = 1;
nodes = (
"1282 535 LINE",
"1282 650 LINE",
"952 650 LINE",
"952 535 LINE"
);
},
{
closed = 1;
nodes = (
"1282 0 LINE",
"1282 115 LINE",
"952 115 LINE",
"952 0 LINE"
);
},
{
closed = 1;
nodes = (
"1232 267 LINE",
"1232 382 LINE",
"952 382 LINE",
"952 267 LINE"
);
},
{
closed = 1;
nodes = (
"1072 0 LINE",
"1072 650 LINE",
"952 650 LINE",
"952 0 LINE"
);
}
);
width = 1372;
}
);
leftMetricsKey = F;
rightMetricsKey = E;
},
{
glyphname = I_E.dlig;
lastChange = "2023-01-10 09:58:15 +0000";
layers = (
{
anchors = (
{
name = _top;
position = "{185, 649}";
}
);
layerId = "DEEA460D-B437-4534-881A-9FF6A59DEC7E";
paths = (
{
closed = 1;
nodes = (
"191 0 LINE",
"191 649 LINE",
"179 649 LINE",
"179 0 LINE"
);
},
{
closed = 1;
nodes = (
"420 637 LINE",
"420 649 LINE",
"236 649 LINE",
"236 637 LINE"
);
},
{
closed = 1;
nodes = (
"420 0 LINE",
"420 12 LINE",
"179 12 LINE",
"179 0 LINE"
);
},
{
closed = 1;
nodes = (
"370 319 LINE",
"370 331 LINE",
"179 331 LINE",
"179 319 LINE"
);
},
{
closed = 1;
nodes = (
"197 740 OFFCURVE",
"206 749 OFFCURVE",
"206 761 CURVE SMOOTH",
"206 773 OFFCURVE",
"197 782 OFFCURVE",
"185 782 CURVE SMOOTH",
"173 782 OFFCURVE",
"164 773 OFFCURVE",
"164 761 CURVE SMOOTH",
"164 749 OFFCURVE",
"173 740 OFFCURVE",
"185 740 CURVE SMOOTH"
);
}
);
width = 520;
},
{
anchors = (
{
name = _top;
position = "{160, 650}";
}
);
guideLines = (
{
angle = 90;
position = "{430, 755}";
},
{
angle = 90;
position = "{630, 762}";
}
);
layerId = "F6EE3598-E048-4269-B54C-F84174B7F0FB";
paths = (
{
closed = 1;
nodes = (
"220 0 LINE",
"220 649 LINE",
"100 649 LINE",
"100 0 LINE"
);
},
{
closed = 1;
nodes = (
"430 534 LINE",
"430 649 LINE",
"265 649 LINE",
"265 534 LINE"
);
},
{
closed = 1;
nodes = (
"430 0 LINE",
"430 115 LINE",
"100 115 LINE",
"100 0 LINE"
);
},
{
closed = 1;
nodes = (
"380 267 LINE",
"380 382 LINE",
"100 382 LINE",
"100 267 LINE"
);
},
{
closed = 1;
nodes = (
"194 711 OFFCURVE",
"220 737 OFFCURVE",
"220 771 CURVE SMOOTH",
"220 805 OFFCURVE",
"194 831 OFFCURVE",
"160 831 CURVE SMOOTH",
"126 831 OFFCURVE",
"100 805 OFFCURVE",
"100 771 CURVE SMOOTH",
"100 737 OFFCURVE",
"126 711 OFFCURVE",
"160 711 CURVE SMOOTH"
);
}
);
width = 520;
},
{
associatedMasterId = "F6EE3598-E048-4269-B54C-F84174B7F0FB";
components = (
{
name = L;
transform = "{1, 0, 0, 1, 520, 0}";
},
{
name = dotaccentcomb;
transform = "{1, 0, 0, 1, 0, 40}";
}
);
guideLines = (
{
angle = 90;
position = "{420, 755}";
},
{
angle = 90;
position = "{620, 762}";
}
);
layerId = "885E2474-E9A2-44CF-B568-08CEC7C0C208";
name = "Jun 28 21, 10:22";
paths = (
{
closed = 1;
nodes = (
"420 519 LINE",
"420 639 LINE",
"90 639 LINE",
"90 519 LINE"
);
},
{
closed = 1;
nodes = (
"420 0 LINE",
"420 120 LINE",
"90 120 LINE",
"90 0 LINE"
);
},
{
closed = 1;
nodes = (
"370 264 LINE",
"370 384 LINE",
"90 384 LINE",
"90 264 LINE"
);
},
{
closed = 1;
nodes = (
"210 0 LINE",
"210 689 LINE",
"90 689 LINE",
"90 0 LINE"
);
}
);
width = 1095;
}
);
rightKerningGroup = L;
rightMetricsKey = E;
},
{
glyphname = M_P.dlig;
lastChange = "2023-01-10 09:58:15 +0000";
layers = (
{
layerId = "DEEA460D-B437-4534-881A-9FF6A59DEC7E";
paths = (
{
closed = 1;
nodes = (
"405 311 LINE",
"405 323 LINE",
"365 323 LINE",
"181 650 LINE",
"100 650 LINE",
"100 638 LINE",
"174 638 LINE",
"358 311 LINE"
);
},
{
closed = 1;
nodes = (
"612 638 LINE",
"686 638 LINE",
"686 650 LINE",
"605 650 LINE",
"421 323 LINE",
"381 323 LINE",
"381 311 LINE",
"428 311 LINE"
);
},
{
closed = 1;
nodes = (
"112 0 LINE",
"112 650 LINE",
"100 650 LINE",
"100 0 LINE"
);
},
{
closed = 1;
nodes = (
"686 0 LINE",
"686 650 LINE",
"674 650 LINE",
"674 0 LINE"
);
},
{
closed = 1;
nodes = (
"875 214 LINE SMOOTH",
"1004 214 OFFCURVE",
"1090 301 OFFCURVE",
"1090 432 CURVE SMOOTH",
"1090 563 OFFCURVE",
"1004 650 OFFCURVE",
"875 650 CURVE SMOOTH",
"674 650 LINE",
"674 638 LINE",
"875 638 LINE SMOOTH",
"998 638 OFFCURVE",
"1078 557 OFFCURVE",
"1078 432 CURVE SMOOTH",
"1078 307 OFFCURVE",
"998 226 OFFCURVE",
"875 226 CURVE SMOOTH",
"674 226 LINE",
"674 214 LINE"
);
}
);
width = 1140;
},
{
layerId = "F6EE3598-E048-4269-B54C-F84174B7F0FB";
paths = (
{
closed = 1;
nodes = (
"463 267 LINE",
"463 382 LINE",
"418 382 LINE",
"220 650 LINE",
"145 650 LINE",
"145 535 LINE",
"170 535 LINE",
"368 267 LINE"
);
},
{
closed = 1;
nodes = (
"666 535 LINE",
"691 535 LINE",
"691 650 LINE",
"616 650 LINE",
"418 382 LINE",
"373 382 LINE",
"373 267 LINE",
"468 267 LINE"
);
},
{
closed = 1;
nodes = (
"220 0 LINE",
"220 650 LINE",
"100 650 LINE",
"100 0 LINE"
);
},
{
closed = 1;
nodes = (
"736 0 LINE",
"736 650 LINE",
"616 650 LINE",
"616 0 LINE"
);
},
{
closed = 1;
nodes = (
"835 214 LINE SMOOTH",
"964 214 OFFCURVE",
"1050 301 OFFCURVE",
"1050 432 CURVE SMOOTH",
"1050 563 OFFCURVE",
"964 650 OFFCURVE",
"835 650 CURVE SMOOTH",
"616 650 LINE",
"616 535 LINE",
"830 535 LINE SMOOTH",
"890 535 OFFCURVE",
"930 491 OFFCURVE",
"930 432 CURVE SMOOTH",
"930 373 OFFCURVE",
"890 329 OFFCURVE",
"830 329 CURVE SMOOTH",
"616 329 LINE",
"616 214 LINE"
);
}
);
width = 1140;
}
);
},
{
glyphname = N_E.dlig;
lastChange = "2023-01-10 09:58:15 +0000";
layers = (
{
layerId = "DEEA460D-B437-4534-881A-9FF6A59DEC7E";
paths = (
{
closed = 1;
nodes = (
"735 637 LINE",
"735 649 LINE",
"463 649 LINE",
"463 637 LINE"
);
},
{
closed = 1;
nodes = (
"735 0 LINE",
"735 12 LINE",
"463 12 LINE",
"463 0 LINE"
);
},
{
closed = 1;
nodes = (
"685 311 LINE",
"685 323 LINE",
"483 323 LINE",
"483 311 LINE"
);
},
{
closed = 1;
nodes = (
"495 311 LINE",
"495 323 LINE",
"421 323 LINE",
"180 650 LINE",
"120 650 LINE",
"120 638 LINE",
"174 638 LINE",
"415 311 LINE"
);
},
{
closed = 1;
nodes = (
"132 0 LINE",
"132 650 LINE",
"120 650 LINE",
"120 0 LINE"
);
},
{
closed = 1;
nodes = (
"475 0 LINE",
"475 650 LINE",
"463 650 LINE",
"463 0 LINE"
);
}
);
width = 835;
},
{
guideLines = (
{
position = "{314, 266}";
}
);
layerId = "F6EE3598-E048-4269-B54C-F84174B7F0FB";
paths = (
{
closed = 1;
nodes = (
"745 529 LINE",
"745 649 LINE",
"415 649 LINE",
"415 529 LINE"
);
},
{
closed = 1;
nodes = (
"745 0 LINE",
"745 120 LINE",
"415 120 LINE",
"415 0 LINE"
);
},
{
closed = 1;
nodes = (
"695 266 LINE",
"695 384 LINE",
"415 384 LINE",
"415 266 LINE"
);
},
{
closed = 1;
nodes = (
"460 267 LINE",
"460 382 LINE",
"415 382 LINE",
"220 650 LINE",
"145 650 LINE",
"145 535 LINE",
"170 535 LINE",
"365 267 LINE"
);
},
{
closed = 1;
nodes = (
"220 0 LINE",
"220 650 LINE",
"100 650 LINE",
"100 0 LINE"
);
},
{
closed = 1;
nodes = (
"535 0 LINE",
"535 650 LINE",
"415 650 LINE",
"415 0 LINE"
);
}
);
width = 835;
}
);
leftMetricsKey = N;
rightKerningGroup = E;
rightMetricsKey = E;
},
{
glyphname = T_E.dlig;
lastChange = "2023-01-10 09:58:15 +0000";
layers = (
{
layerId = "DEEA460D-B437-4534-881A-9FF6A59DEC7E";
paths = (
{
closed = 1;
nodes = (
"274 0 LINE",
"274 649 LINE",
"262 649 LINE",
"262 0 LINE"
);
},
{
closed = 1;
nodes = (
"845 0 LINE",
"845 12 LINE",
"535 12 LINE",
"535 0 LINE"
);
},
{
closed = 1;
nodes = (
"795 319 LINE",
"795 331 LINE",
"535 331 LINE",
"535 319 LINE"
);
},
{
closed = 1;
nodes = (
"547 0 LINE",
"547 592 LINE",
"535 592 LINE",
"535 0 LINE"
);
},
{
closed = 1;
nodes = (
"845 637 LINE",
"845 649 LINE",
"50 649 LINE",
"50 637 LINE"
);
}
);
width = 945;
},
{
layerId = "F6EE3598-E048-4269-B54C-F84174B7F0FB";
paths = (
{
closed = 1;
nodes = (
"328 0 LINE",
"328 649 LINE",
"208 649 LINE",
"208 0 LINE"
);
},
{
closed = 1;
nodes = (
"855 0 LINE",
"855 115 LINE",
"525 115 LINE",
"525 0 LINE"
);
},
{
closed = 1;
nodes = (
"805 267 LINE",
"805 382 LINE",
"525 382 LINE",
"525 267 LINE"
);
},
{
closed = 1;
nodes = (
"645 0 LINE",
"645 489 LINE",
"525 489 LINE",
"525 0 LINE"
);
},
{
closed = 1;
nodes = (
"855 534 LINE",
"855 649 LINE",
"50 649 LINE",
"50 534 LINE"
);
}
);
width = 945;
},
{
associatedMasterId = "F6EE3598-E048-4269-B54C-F84174B7F0FB";
components = (
{
name = E;
transform = "{1, 0, 0, 1, 465, 0}";
}
);
layerId = "6B2163EC-3ABC-4DD0-A7FA-31316C06F770";
name = "Jun 28 21, 14:36";
paths = (
{
closed = 1;
nodes = (
"575 534 LINE",
"575 649 LINE",
"90 649 LINE",
"90 534 LINE"
);
},
{
closed = 1;
nodes = (
"368 0 LINE",
"368 649 LINE",
"248 649 LINE",
"248 0 LINE"
);
}
);
width = 995;
}
);
leftKerningGroup = T;
leftMetricsKey = T;
rightKerningGroup = E;
rightMetricsKey = E;
},
{
glyphname = T_T.liga;
lastChange = "2023-01-10 09:58:15 +0000";
layers = (
{
layerId = "DEEA460D-B437-4534-881A-9FF6A59DEC7E";
paths = (
{
closed = 1;
nodes = (
"485 637 LINE",
"485 649 LINE",
"50 649 LINE",
"50 637 LINE"
);
},
{
closed = 1;
nodes = (
"274 0 LINE",
"274 649 LINE",
"262 649 LINE",
"262 0 LINE"
);
},
{
closed = 1;
nodes = (
"890 637 LINE",
"890 649 LINE",
"445 649 LINE",
"445 637 LINE"
);
},
{
closed = 1;
nodes = (
"679 0 LINE",
"679 649 LINE",
"667 649 LINE",
"667 0 LINE"
);
}
);
width = 940;
},
{
layerId = "F6EE3598-E048-4269-B54C-F84174B7F0FB";
paths = (
{
closed = 1;
nodes = (
"485 534 LINE",
"485 649 LINE",
"50 649 LINE",
"50 534 LINE"
);
},
{
closed = 1;
nodes = (
"328 0 LINE",
"328 649 LINE",
"208 649 LINE",
"208 0 LINE"
);
},
{
closed = 1;
nodes = (
"890 534 LINE",
"890 649 LINE",
"455 649 LINE",
"455 534 LINE"
);
},
{
closed = 1;
nodes = (
"733 0 LINE",
"733 649 LINE",
"613 649 LINE",
"613 0 LINE"
);
}
);
width = 940;
}
);
leftKerningGroup = T;
leftMetricsKey = T;
rightKerningGroup = T;
rightMetricsKey = T;
},
{
glyphname = V_T_F.dlig;
lastChange = "2023-01-10 10:09:46 +0000";
layers = (
{
guideLines = (
{
position = "{1185, 449}";
},
{
position = "{620, -173}";
}
);
layerId = "DEEA460D-B437-4534-881A-9FF6A59DEC7E";
paths = (
{
closed = 1;
nodes = (
"678 476 LINE",
"451 -161 LINE",
"389 -161 LINE",
"162 476 LINE",
"150 476 LINE",
"380 -173 LINE",
"460 -173 LINE",
"690 476 LINE"
);
},
{
closed = 1;
nodes = (
"1536 637 LINE",
"1536 649 LINE",
"50 649 LINE",
"50 637 LINE"
);
},
{
closed = 1;
nodes = (
"804 0 LINE",
"804 649 LINE",
"792 649 LINE",
"792 0 LINE"
);
},
{
closed = 1;
nodes = (
"1436 464 LINE",
"1436 476 LINE",
"682 476 LINE",
"682 464 LINE"
);
},
{
closed = 1;
nodes = (
"1285 145 LINE",
"1285 157 LINE",
"955 157 LINE",
"955 145 LINE"
);
},
{
closed = 1;
nodes = (
"967 -173 LINE",
"967 476 LINE",
"955 476 LINE",
"955 -173 LINE"
);
}
);
width = 1636;
},
{
guideLines = (
{
position = "{1285, 449}";
}
);
layerId = "F6EE3598-E048-4269-B54C-F84174B7F0FB";
paths = (
{
closed = 1;
nodes = (
"575 449 LINE",
"405 -87 LINE",
"448 -87 LINE",
"271 449 LINE",
"150 449 LINE",
"364 -200 LINE",
"485 -200 LINE",
"690 449 LINE"
);
},
{
closed = 1;
nodes = (
"1546 534 LINE",
"1546 649 LINE",
"50 649 LINE",
"50 534 LINE"
);
},
{
closed = 1;
nodes = (
"858 0 LINE",
"858 649 LINE",
"738 649 LINE",
"738 0 LINE"
);
},
{
closed = 1;
nodes = (
"1436 329 LINE",
"1436 449 LINE",
"625 449 LINE",
"625 329 LINE"
);
},
{
closed = 1;
nodes = (
"1285 64 LINE",
"1285 184 LINE",
"955 184 LINE",
"955 64 LINE"
);
},
{
closed = 1;
nodes = (
"1075 -200 LINE",
"1075 449 LINE",
"955 449 LINE",
"955 -200 LINE"
);
}
);
width = 1636;
}
);
leftMetricsKey = V;
rightMetricsKey = F;
},
{
glyphname = a;
lastChange = "2023-01-12 15:32:07 +0000";
layers = (
{
anchors = (
{
name = bottom;
position = "{270, 0}";
},
{
name = ogonek;
position = "{453, 0}";
},
{
name = top;
position = "{239, 520}";
}
);
layerId = "DEEA460D-B437-4534-881A-9FF6A59DEC7E";
paths = (
{
closed = 1;
nodes = (
"460 260 LINE",
"459 427 OFFCURVE",
"367 520 OFFCURVE",
"239 520 CURVE SMOOTH",
"80 520 LINE",
"80 508 LINE",
"239 508 LINE SMOOTH",
"364 508 OFFCURVE",
"448 415 OFFCURVE",
"448 260 CURVE"
);
},
{
closed = 1;
nodes = (
"92 0 LINE",
"92 320 LINE",
"80 320 LINE",
"80 0 LINE"
);
},
{
closed = 1;
nodes = (
"460 0 LINE",
"460 12 LINE",
"80 12 LINE",
"80 0 LINE"
);
},
{
closed = 1;
nodes = (
"322 308 LINE",
"322 320 LINE",
"80 320 LINE",
"80 308 LINE"
);
},
{
closed = 1;
nodes = (
"460 0 LINE",
"460 260 LINE",
"448 260 LINE",
"448 0 LINE"
);
}
);
width = 540;
},
{
anchors = (
{
name = bottom;
position = "{270, 0}";
},
{
name = ogonek;
position = "{418, 0}";
},
{
name = top;
position = "{239, 520}";
}
);
layerId = "F6EE3598-E048-4269-B54C-F84174B7F0FB";
paths = (
{
closed = 1;
nodes = (
"460 260 LINE",
"461 428 OFFCURVE",
"364 520 OFFCURVE",
"239 520 CURVE SMOOTH",
"80 520 LINE",
"80 405 LINE",
"239 405 LINE SMOOTH",
"300 405 OFFCURVE",
"350 355 OFFCURVE",
"350 260 CURVE"
);
},
{
closed = 1;
nodes = (
"185 0 LINE",
"185 310 LINE",
"80 310 LINE",
"80 0 LINE"
);
},
{
closed = 1;
nodes = (
"445 0 LINE",
"445 105 LINE",
"154 105 LINE",
"154 0 LINE"
);
},
{
closed = 1;
nodes = (
"275 210 LINE",
"275 310 LINE",
"154 310 LINE",
"154 210 LINE"
);
},
{
closed = 1;
nodes = (
"460 0 LINE",
"460 260 LINE",
"350 260 LINE",
"350 0 LINE"
);
}
);
width = 540;
},
{
associatedMasterId = "F6EE3598-E048-4269-B54C-F84174B7F0FB";
layerId = "D7019C48-3CAE-4701-91D1-4E78B2A5939E";
name = "Jun 2 21, 11:19";
paths = (
{
closed = 1;
nodes = (
"299 395 LINE SMOOTH",
"359 395 OFFCURVE",
"410 349 OFFCURVE",
"410 255 CURVE",
"520 255 LINE",
"520 416 OFFCURVE",
"427 510 OFFCURVE",
"299 510 CURVE SMOOTH",
"140 510 LINE",
"140 395 LINE"
);
},
{
closed = 1;
nodes = (
"200 0 LINE",
"299 0 LINE SMOOTH",
"424 0 OFFCURVE",
"520 92 OFFCURVE",
"520 255 CURVE",
"410 255 LINE",
"410 164 OFFCURVE",
"360 115 OFFCURVE",
"299 115 CURVE SMOOTH",
"200 115 LINE"
);
},
{
closed = 1;
nodes = (
"140 310 LINE",
"140 0 LINE",
"250 0 LINE",
"250 310 LINE"
);
},
{
closed = 1;
nodes = (
"335 310 LINE",
"214 310 LINE",
"214 205 LINE",
"335 205 LINE"
);
}
);
width = 600;
}
);
leftKerningGroup = n;
rightKerningGroup = n;
unicode = 0061;
},
{
glyphname = ae;
lastChange = "2023-01-12 09:50:54 +0000";
layers = (
{
layerId = "DEEA460D-B437-4534-881A-9FF6A59DEC7E";
paths = (
{
closed = 1;
nodes = (
"400 260 LINE",
"400 415 OFFCURVE",
"484 508 OFFCURVE",
"609 508 CURVE SMOOTH",
"710 508 LINE",
"710 520 LINE",
"609 520 LINE SMOOTH",
"481 520 OFFCURVE",
"389 427 OFFCURVE",
"388 260 CURVE"
);
},
{
closed = 1;
nodes = (
"400 260 LINE",
"399 427 OFFCURVE",
"307 520 OFFCURVE",
"179 520 CURVE SMOOTH",
"80 520 LINE",
"80 508 LINE",
"179 508 LINE SMOOTH",
"304 508 OFFCURVE",
"388 415 OFFCURVE",
"388 260 CURVE"
);
},
{
closed = 1;
nodes = (
"92 0 LINE",
"92 320 LINE",
"80 320 LINE",
"80 0 LINE"
);
},
{
closed = 1;
nodes = (
"179 0 LINE SMOOTH",
"307 0 OFFCURVE",
"399 93 OFFCURVE",
"400 260 CURVE",
"388 260 LINE",
"388 105 OFFCURVE",
"304 12 OFFCURVE",
"179 12 CURVE SMOOTH",
"80 12 LINE",
"80 0 LINE"
);
},
{
closed = 1;
nodes = (
"263 308 LINE",
"263 320 LINE",
"80 320 LINE",
"80 308 LINE"
);
},
{
closed = 1;
nodes = (
"665 0 LINE",
"665 12 LINE",
"609 12 LINE SMOOTH",
"484 12 OFFCURVE",
"400 105 OFFCURVE",
"400 260 CURVE",
"388 260 LINE",
"389 93 OFFCURVE",
"481 0 OFFCURVE",
"609 0 CURVE SMOOTH"
);
},
{
closed = 1;
nodes = (
"710 200 LINE",
"710 212 LINE",
"526 212 LINE",
"526 200 LINE"
);
},
{
closed = 1;
nodes = (
"710 200 LINE",
"710 520 LINE",
"698 520 LINE",
"698 200 LINE"
);
}
);
width = 790;
},
{
layerId = "F6EE3598-E048-4269-B54C-F84174B7F0FB";
paths = (
{
closed = 1;
nodes = (
"450 260 LINE",
"450 355 OFFCURVE",
"500 405 OFFCURVE",
"561 405 CURVE SMOOTH",
"650 405 LINE",
"650 520 LINE",
"561 520 LINE SMOOTH",
"436 520 OFFCURVE",
"339 428 OFFCURVE",
"340 260 CURVE"
);
},
{
closed = 1;
nodes = (
"450 260 LINE",
"451 428 OFFCURVE",
"354 520 OFFCURVE",
"229 520 CURVE SMOOTH",
"80 520 LINE",
"80 405 LINE",
"229 405 LINE SMOOTH",
"290 405 OFFCURVE",
"340 355 OFFCURVE",
"340 260 CURVE"
);
},
{
closed = 1;
nodes = (
"185 0 LINE",
"185 310 LINE",
"80 310 LINE",
"80 0 LINE"
);
},
{
closed = 1;
nodes = (
"229 0 LINE SMOOTH",
"357 0 OFFCURVE",
"451 93 OFFCURVE",
"450 260 CURVE",
"340 260 LINE",
"340 161 OFFCURVE",
"289 115 OFFCURVE",
"229 115 CURVE SMOOTH",
"140 115 LINE",
"140 0 LINE"
);
},
{
closed = 1;
nodes = (
"265 210 LINE",
"265 310 LINE",
"154 310 LINE",
"154 210 LINE"
);
},
{
closed = 1;
nodes = (
"650 0 LINE",
"650 115 LINE",
"561 115 LINE SMOOTH",
"501 115 OFFCURVE",
"450 161 OFFCURVE",
"450 260 CURVE",
"340 260 LINE",
"339 93 OFFCURVE",
"433 0 OFFCURVE",
"561 0 CURVE SMOOTH"
);
},
{
closed = 1;
nodes = (
"636 210 LINE",
"636 310 LINE",
"525 310 LINE",
"525 210 LINE"
);
},
{
closed = 1;
nodes = (
"710 210 LINE",
"710 520 LINE",
"605 520 LINE",
"605 210 LINE"
);
}
);
width = 790;
}
);
leftKerningGroup = n;
leftMetricsKey = a;
rightKerningGroup = e;
rightMetricsKey = e;
unicode = 00E6;
},
{
glyphname = b;
lastChange = "2023-01-12 09:37:13 +0000";
layers = (
{
layerId = "DEEA460D-B437-4534-881A-9FF6A59DEC7E";
paths = (
{
closed = 1;
nodes = (
"90 0 LINE",
"279 0 LINE SMOOTH",
"407 0 OFFCURVE",
"499 93 OFFCURVE",
"500 260 CURVE",
"488 260 LINE",
"488 105 OFFCURVE",
"404 12 OFFCURVE",
"279 12 CURVE SMOOTH",
"90 12 LINE"
);
},
{
closed = 1;
nodes = (
"279 508 LINE SMOOTH",
"404 508 OFFCURVE",
"488 415 OFFCURVE",
"488 260 CURVE",
"500 260 LINE",
"499 427 OFFCURVE",
"407 520 OFFCURVE",
"279 520 CURVE SMOOTH",
"90 520 LINE",
"90 508 LINE"
);
},
{
closed = 1;
nodes = (
"90 0 LINE",
"102 0 LINE",
"102 720 LINE",
"90 720 LINE"
);
}
);
width = 560;
},
{
layerId = "F6EE3598-E048-4269-B54C-F84174B7F0FB";
paths = (
{
closed = 1;
nodes = (
"155 0 LINE",
"274 0 LINE SMOOTH",
"402 0 OFFCURVE",
"500 93 OFFCURVE",
"500 260 CURVE",
"385 260 LINE",
"385 161 OFFCURVE",
"334 110 OFFCURVE",
"274 110 CURVE SMOOTH",
"155 110 LINE"
);
},
{
closed = 1;
nodes = (
"274 410 LINE SMOOTH",
"335 410 OFFCURVE",
"385 355 OFFCURVE",
"385 260 CURVE",
"500 260 LINE",
"501 428 OFFCURVE",
"399 520 OFFCURVE",
"274 520 CURVE SMOOTH",
"155 520 LINE",
"155 410 LINE"
);
},
{
closed = 1;
nodes = (
"90 0 LINE",
"205 0 LINE",
"205 720 LINE",
"90 720 LINE"
);
}
);
width = 560;
},
{
associatedMasterId = "F6EE3598-E048-4269-B54C-F84174B7F0FB";
layerId = "D1CA5465-95FB-467D-880E-05874F7013C4";
name = "Jun 2 21, 11:42";
paths = (
{
closed = 1;
nodes = (
"445 510 LINE",
"154 510 LINE",
"154 400 LINE",
"445 400 LINE"
);
},
{
closed = 1;
nodes = (
"179 0 LINE",
"289 0 LINE SMOOTH",
"385 0 OFFCURVE",
"460 74 OFFCURVE",
"460 169 CURVE SMOOTH",
"460 510 LINE",
"345 510 LINE",
"345 169 LINE SMOOTH",
"345 136 OFFCURVE",
"320 110 OFFCURVE",
"289 110 CURVE SMOOTH",
"179 110 LINE"
);
},
{
closed = 1;
nodes = (
"90 -10 LINE",
"205 -10 LINE",
"205 710 LINE",
"90 710 LINE"
);
}
);
width = 565;
}
);
rightKerningGroup = o;
rightMetricsKey = o;
unicode = 0062;
},
{
glyphname = c;
lastChange = "2023-01-12 14:41:10 +0000";
layers = (
{
anchors = (
{
name = bottom;
position = "{281, 0}";
},
{
name = top;
position = "{281, 520}";
}
);
layerId = "DEEA460D-B437-4534-881A-9FF6A59DEC7E";
paths = (
{
closed = 1;
nodes = (
"281 12 LINE SMOOTH",
"156 12 OFFCURVE",
"72 105 OFFCURVE",
"72 260 CURVE",
"60 260 LINE",
"61 93 OFFCURVE",
"153 0 OFFCURVE",
"281 0 CURVE SMOOTH",
"380 0 LINE",
"380 12 LINE"
);
},
{
closed = 1;
nodes = (
"380 520 LINE",
"281 520 LINE SMOOTH",
"153 520 OFFCURVE",
"61 427 OFFCURVE",
"60 260 CURVE",
"72 260 LINE",
"72 415 OFFCURVE",
"156 508 OFFCURVE",
"281 508 CURVE SMOOTH",
"380 508 LINE"
);
}
);
width = 440;
},
{
anchors = (
{
name = bottom;
position = "{281, 0}";
},
{
name = top;
position = "{281, 520}";
}
);
layerId = "F6EE3598-E048-4269-B54C-F84174B7F0FB";
paths = (
{
closed = 1;
nodes = (
"281 110 LINE SMOOTH",
"221 110 OFFCURVE",
"170 161 OFFCURVE",
"170 260 CURVE",
"60 260 LINE",
"60 93 OFFCURVE",
"153 0 OFFCURVE",
"281 0 CURVE SMOOTH",
"380 0 LINE",
"380 110 LINE"
);
},
{
closed = 1;
nodes = (
"380 520 LINE",
"281 520 LINE SMOOTH",
"156 520 OFFCURVE",
"59 428 OFFCURVE",
"60 260 CURVE",
"170 260 LINE",
"170 355 OFFCURVE",
"220 410 OFFCURVE",
"281 410 CURVE SMOOTH",
"380 410 LINE"
);
}
);
width = 440;
}
);
leftKerningGroup = o;
leftMetricsKey = o;
rightKerningGroup = e;
unicode = 0063;
},
{
glyphname = d;
lastChange = "2023-01-11 10:34:20 +0000";
layers = (
{
layerId = "DEEA460D-B437-4534-881A-9FF6A59DEC7E";
paths = (
{
closed = 1;
nodes = (
"470 520 LINE",
"281 520 LINE SMOOTH",
"153 520 OFFCURVE",
"61 427 OFFCURVE",
"60 260 CURVE",
"72 260 LINE",
"72 416 OFFCURVE",
"156 508 OFFCURVE",
"281 508 CURVE SMOOTH",
"470 508 LINE"
);
},
{
closed = 1;
nodes = (
"281 12 LINE SMOOTH",
"156 12 OFFCURVE",
"72 105 OFFCURVE",
"72 260 CURVE",
"60 260 LINE",
"61 93 OFFCURVE",
"153 0 OFFCURVE",
"281 0 CURVE SMOOTH",
"470 0 LINE",
"470 12 LINE"
);
},
{
closed = 1;
nodes = (
"458 720 LINE",
"458 0 LINE",
"470 0 LINE",
"470 720 LINE"
);
}
);
width = 560;
},
{
layerId = "F6EE3598-E048-4269-B54C-F84174B7F0FB";
paths = (
{
closed = 1;
nodes = (
"395 520 LINE",
"281 520 LINE SMOOTH",
"153 520 OFFCURVE",
"60 427 OFFCURVE",
"60 260 CURVE",
"170 260 LINE",
"170 359 OFFCURVE",
"221 410 OFFCURVE",
"281 410 CURVE SMOOTH",
"395 410 LINE"
);
},
{
closed = 1;
nodes = (
"281 110 LINE SMOOTH",
"220 110 OFFCURVE",
"170 165 OFFCURVE",
"170 260 CURVE",
"60 260 LINE",
"60 92 OFFCURVE",
"156 0 OFFCURVE",
"281 0 CURVE SMOOTH",
"395 0 LINE",
"395 110 LINE"
);
},
{
closed = 1;
nodes = (
"355 720 LINE",
"355 0 LINE",
"470 0 LINE",
"470 720 LINE"
);
}
);
width = 560;
}
);
leftKerningGroup = o;
leftMetricsKey = o;
unicode = 0064;
},
{
glyphname = eth;
lastChange = "2023-01-12 08:33:36 +0000";
layers = (
{
guideLines = (
{
position = "{534, -5}";
}
);
layerId = "DEEA460D-B437-4534-881A-9FF6A59DEC7E";
paths = (
{
closed = 1;
nodes = (
"271 755 LINE",
"257 755 LINE",
"498 369 LINE",
"512 369 LINE"
);
},
{
closed = 1;
nodes = (
"92 650 LINE",
"92 638 LINE",
"472 638 LINE",
"472 650 LINE"
);
},
{
closed = 1;
nodes = (
"167 7 OFFCURVE",
"60 114 OFFCURVE",
"60 244 CURVE SMOOTH",
"60 374 OFFCURVE",
"167 481 OFFCURVE",
"297 481 CURVE SMOOTH",
"427 481 OFFCURVE",
"534 374 OFFCURVE",
"534 244 CURVE SMOOTH",
"534 114 OFFCURVE",
"427 7 OFFCURVE",
"297 7 CURVE SMOOTH"
);
},
{
closed = 1;
nodes = (
"434 -5 OFFCURVE",
"546 107 OFFCURVE",
"546 244 CURVE SMOOTH",
"546 381 OFFCURVE",
"434 493 OFFCURVE",
"297 493 CURVE SMOOTH",
"160 493 OFFCURVE",
"48 381 OFFCURVE",
"48 244 CURVE SMOOTH",
"48 107 OFFCURVE",
"160 -5 OFFCURVE",
"297 -5 CURVE SMOOTH"
);
}
);
width = 595;
},
{
associatedMasterId = "F6EE3598-E048-4269-B54C-F84174B7F0FB";
layerId = "848AF41C-1839-4230-8E18-D0B053DF08C1";
name = "Jun 24 21, 09:21";
paths = (
{
closed = 1;
nodes = (
"301 110 LINE SMOOTH",
"241 110 OFFCURVE",
"190 161 OFFCURVE",
"190 260 CURVE",
"80 260 LINE",
"80 93 OFFCURVE",
"173 0 OFFCURVE",
"301 0 CURVE SMOOTH",
"315 0 LINE",
"315 110 LINE"
);
},
{
closed = 1;
nodes = (
"310 520 LINE",
"301 520 LINE SMOOTH",
"176 520 OFFCURVE",
"79 428 OFFCURVE",
"80 260 CURVE",
"190 260 LINE",
"190 355 OFFCURVE",
"240 410 OFFCURVE",
"301 410 CURVE SMOOTH",
"310 410 LINE"
);
},
{
closed = 1;
nodes = (
"305 0 LINE",
"319 0 LINE SMOOTH",
"447 0 OFFCURVE",
"540 93 OFFCURVE",
"540 260 CURVE",
"430 260 LINE",
"430 161 OFFCURVE",
"379 110 OFFCURVE",
"319 110 CURVE SMOOTH",
"305 110 LINE"
);
},
{
closed = 1;
nodes = (
"501 520 OFFCURVE",
"418 651 OFFCURVE",
"323 755 CURVE",
"209 755 LINE",
"311 643 OFFCURVE",
"399 510 OFFCURVE",
"430 327 CURVE",
"534 327 LINE"
);
},
{
closed = 1;
nodes = (
"319 410 LINE SMOOTH",
"379 410 OFFCURVE",
"430 359 OFFCURVE",
"430 260 CURVE",
"540 260 LINE",
"540 427 OFFCURVE",
"447 520 OFFCURVE",
"319 520 CURVE SMOOTH",
"305 520 LINE",
"305 410 LINE"
);
},
{
closed = 1;
nodes = (
"170 650 LINE",
"170 580 LINE",
"550 580 LINE",
"550 650 LINE"
);
}
);
width = 600;
},
{
associatedMasterId = "F6EE3598-E048-4269-B54C-F84174B7F0FB";
layerId = "2ABE77F8-6890-40E5-BDEE-671F02200726";
name = "Jun 24 21, 09:21";
paths = (
{
closed = 1;
nodes = (
"301 110 LINE SMOOTH",
"241 110 OFFCURVE",
"190 161 OFFCURVE",
"190 260 CURVE",
"80 260 LINE",
"80 93 OFFCURVE",
"173 0 OFFCURVE",
"301 0 CURVE SMOOTH",
"315 0 LINE",
"315 110 LINE"
);
},
{
closed = 1;
nodes = (
"310 520 LINE",
"301 520 LINE SMOOTH",
"176 520 OFFCURVE",
"79 428 OFFCURVE",
"80 260 CURVE",
"190 260 LINE",
"190 355 OFFCURVE",
"240 410 OFFCURVE",
"301 410 CURVE SMOOTH",
"310 410 LINE"
);
},
{
closed = 1;
nodes = (
"305 0 LINE",
"319 0 LINE SMOOTH",
"447 0 OFFCURVE",
"540 93 OFFCURVE",
"540 260 CURVE",
"430 260 LINE",
"430 161 OFFCURVE",
"379 110 OFFCURVE",
"319 110 CURVE SMOOTH",
"305 110 LINE"
);
},
{
closed = 1;
nodes = (
"501 520 OFFCURVE",
"418 651 OFFCURVE",
"323 755 CURVE",
"209 755 LINE",
"311 643 OFFCURVE",
"399 510 OFFCURVE",
"430 327 CURVE",
"534 327 LINE"
);
},
{
closed = 1;
nodes = (
"319 410 LINE SMOOTH",
"379 410 OFFCURVE",
"430 359 OFFCURVE",
"430 260 CURVE",
"540 260 LINE",
"540 427 OFFCURVE",
"447 520 OFFCURVE",
"319 520 CURVE SMOOTH",
"305 520 LINE",
"305 410 LINE"
);
},
{
closed = 1;
nodes = (
"170 650 LINE",
"170 580 LINE",
"550 580 LINE",
"550 650 LINE"
);
}
);
width = 600;
},
{
guideLines = (
{
position = "{278, 495}";
},
{
position = "{318, -5}";
}
);
layerId = "F6EE3598-E048-4269-B54C-F84174B7F0FB";
paths = (
{
closed = 1;
nodes = (
"335 755 LINE",
"226 755 LINE",
"378 397 LINE",
"521 317 LINE"
);
},
{
closed = 1;
nodes = (
"112 650 LINE",
"112 580 LINE",
"502 580 LINE",
"502 650 LINE"
);
},
{
closed = 1;
nodes = (
"227 106 OFFCURVE",
"170 163 OFFCURVE",
"170 233 CURVE SMOOTH",
"170 304 OFFCURVE",
"227 360 OFFCURVE",
"297 360 CURVE SMOOTH",
"368 360 OFFCURVE",
"424 304 OFFCURVE",
"424 233 CURVE SMOOTH",
"424 163 OFFCURVE",
"368 106 OFFCURVE",
"297 106 CURVE SMOOTH"
);
},
{
closed = 1;
nodes = (
"428 -5 OFFCURVE",
"536 102 OFFCURVE",
"536 233 CURVE SMOOTH",
"536 364 OFFCURVE",
"428 472 OFFCURVE",
"297 472 CURVE SMOOTH",
"166 472 OFFCURVE",
"59 364 OFFCURVE",
"59 233 CURVE SMOOTH",
"59 102 OFFCURVE",
"166 -5 OFFCURVE",
"297 -5 CURVE SMOOTH"
);
}
);
width = 595;
},
{
associatedMasterId = "F6EE3598-E048-4269-B54C-F84174B7F0FB";
layerId = "06A92410-4D6F-44B1-9294-8FEA8CC1130A";
name = "12 janv. 23 à 09:24";
paths = (
{
closed = 1;
nodes = (
"343 755 LINE",
"234 755 LINE",
"391 390 LINE",
"500 390 LINE"
);
},
{
closed = 1;
nodes = (
"120 649 LINE",
"120 579 LINE",
"510 579 LINE",
"510 649 LINE"
);
},
{
closed = 1;
nodes = (
"228 110 OFFCURVE",
"175 176 OFFCURVE",
"175 260 CURVE SMOOTH",
"175 344 OFFCURVE",
"228 410 OFFCURVE",
"295 410 CURVE SMOOTH",
"362 410 OFFCURVE",
"415 344 OFFCURVE",
"415 260 CURVE SMOOTH",
"415 176 OFFCURVE",
"362 110 OFFCURVE",
"295 110 CURVE SMOOTH"
);
},
{
closed = 1;
nodes = (
"427 -5 OFFCURVE",
"530 112 OFFCURVE",
"530 260 CURVE SMOOTH",
"530 408 OFFCURVE",
"427 525 OFFCURVE",
"295 525 CURVE SMOOTH",
"163 525 OFFCURVE",
"60 408 OFFCURVE",
"60 260 CURVE SMOOTH",
"60 112 OFFCURVE",
"163 -5 OFFCURVE",
"295 -5 CURVE SMOOTH"
);
}
);
width = 590;
},
{
associatedMasterId = "DEEA460D-B437-4534-881A-9FF6A59DEC7E";
layerId = "8F4A5014-E720-4C1D-AA21-D594923804B7";
name = "12 janv. 23 à 09:24";
paths = (
{
closed = 1;
nodes = (
"279 755 LINE",
"265 755 LINE",
"485 400 LINE",
"499 400 LINE"
);
},
{
closed = 1;
nodes = (
"100 649 LINE",
"100 637 LINE",
"480 637 LINE",
"480 649 LINE"
);
},
{
closed = 1;
nodes = (
"156 7 OFFCURVE",
"72 121 OFFCURVE",
"72 260 CURVE SMOOTH",
"72 399 OFFCURVE",
"156 513 OFFCURVE",
"295 513 CURVE SMOOTH",
"434 513 OFFCURVE",
"518 399 OFFCURVE",
"518 260 CURVE SMOOTH",
"518 121 OFFCURVE",
"434 7 OFFCURVE",
"295 7 CURVE SMOOTH"
);
},
{
closed = 1;
nodes = (
"441 -5 OFFCURVE",
"530 114 OFFCURVE",
"530 260 CURVE SMOOTH",
"530 406 OFFCURVE",
"441 525 OFFCURVE",
"295 525 CURVE SMOOTH",
"149 525 OFFCURVE",
"60 406 OFFCURVE",
"60 260 CURVE SMOOTH",
"60 114 OFFCURVE",
"149 -5 OFFCURVE",
"295 -5 CURVE SMOOTH"
);
}
);
width = 590;
}
);
leftKerningGroup = o;
rightKerningGroup = o;
unicode = 00F0;
},
{
glyphname = dcroat;
lastChange = "2023-01-10 17:00:56 +0000";
layers = (
{
components = (
{
name = d;
}
);
layerId = "DEEA460D-B437-4534-881A-9FF6A59DEC7E";
paths = (
{
closed = 1;
nodes = (
"165 621 LINE",
"165 609 LINE",
"525 609 LINE",
"525 621 LINE"
);
}
);
width = 565;
},
{
components = (
{
name = d;
}
);
layerId = "F6EE3598-E048-4269-B54C-F84174B7F0FB";
paths = (
{
closed = 1;
nodes = (
"165 650 LINE",
"165 580 LINE",
"525 580 LINE",
"525 650 LINE"
);
}
);
width = 565;
}
);
leftKerningGroup = o;
leftMetricsKey = d;
unicode = 0111;
},
{
glyphname = e;
lastChange = "2023-01-12 13:51:02 +0000";
layers = (
{
anchors = (
{
name = bottom;
position = "{320, 0}";
},
{
name = ogonek;
position = "{373, 0}";
},
{
name = top;
position = "{320, 520}";
}
);
guideLines = (
{
position = "{485, 265}";
}
);
layerId = "DEEA460D-B437-4534-881A-9FF6A59DEC7E";
paths = (
{
closed = 1;
nodes = (
"72 260 LINE",
"72 415 OFFCURVE",
"156 508 OFFCURVE",
"281 508 CURVE SMOOTH",
"455 508 LINE",
"455 520 LINE",
"281 520 LINE SMOOTH",
"153 520 OFFCURVE",
"61 427 OFFCURVE",
"60 260 CURVE"
);
},
{
closed = 1;
nodes = (
"396 0 LINE",
"396 12 LINE",
"281 12 LINE SMOOTH",
"156 12 OFFCURVE",
"72 105 OFFCURVE",
"72 260 CURVE",
"60 260 LINE",
"61 93 OFFCURVE",
"153 0 OFFCURVE",
"281 0 CURVE SMOOTH"
);
},
{
closed = 1;
nodes = (
"455 200 LINE",
"455 212 LINE",
"198 212 LINE",
"198 200 LINE"
);
},
{
closed = 1;
nodes = (
"455 200 LINE",
"455 520 LINE",
"443 520 LINE",
"443 200 LINE"
);
}
);
width = 535;
},
{
anchors = (
{
name = bottom;
position = "{320, 0}";
},
{
name = ogonek;
position = "{353, 0}";
},
{
name = top;
position = "{320, 520}";
}
);
layerId = "F6EE3598-E048-4269-B54C-F84174B7F0FB";
paths = (
{
closed = 1;
nodes = (
"170 260 LINE",
"170 355 OFFCURVE",
"220 405 OFFCURVE",
"281 405 CURVE SMOOTH",
"395 405 LINE",
"395 520 LINE",
"281 520 LINE SMOOTH",
"156 520 OFFCURVE",
"59 428 OFFCURVE",
"60 260 CURVE"
);
},
{
closed = 1;
nodes = (
"396 0 LINE",
"396 115 LINE",
"281 115 LINE SMOOTH",
"221 115 OFFCURVE",
"170 161 OFFCURVE",
"170 260 CURVE",
"60 260 LINE",
"60 93 OFFCURVE",
"153 0 OFFCURVE",
"281 0 CURVE SMOOTH"
);
},
{
closed = 1;
nodes = (
"381 210 LINE",
"381 310 LINE",
"245 310 LINE",
"245 210 LINE"
);
},
{
closed = 1;
nodes = (
"455 210 LINE",
"455 520 LINE",
"350 520 LINE",
"350 210 LINE"
);
}
);
width = 535;
}
);
leftKerningGroup = o;
leftMetricsKey = o;
rightKerningGroup = e;
unicode = 0065;
},
{
glyphname = f;
lastChange = "2023-01-10 17:21:47 +0000";
layers = (
{
layerId = "DEEA460D-B437-4534-881A-9FF6A59DEC7E";
paths = (
{
closed = 1;
nodes = (
"320 710 LINE",
"90 710 LINE",
"90 698 LINE",
"320 698 LINE"
);
},
{
closed = 1;
nodes = (
"320 520 LINE",
"90 520 LINE",
"90 508 LINE",
"320 508 LINE"
);
},
{
closed = 1;
nodes = (
"102 0 LINE",
"102 710 LINE",
"90 710 LINE",
"90 0 LINE"
);
}
);
width = 380;
},
{
layerId = "F6EE3598-E048-4269-B54C-F84174B7F0FB";
paths = (
{
closed = 1;
nodes = (
"320 710 LINE",
"90 710 LINE",
"90 600 LINE",
"320 600 LINE"
);
},
{
closed = 1;
nodes = (
"320 520 LINE",
"90 520 LINE",
"90 410 LINE",
"320 410 LINE"
);
},
{
closed = 1;
nodes = (
"205 0 LINE",
"205 710 LINE",
"90 710 LINE",
"90 0 LINE"
);
}
);
width = 380;
}
);
rightKerningGroup = f;
unicode = 0066;
},
{
glyphname = g;
lastChange = "2023-01-12 14:44:10 +0000";
layers = (
{
anchors = (
{
name = bottom;
position = "{280, -175}";
},
{
name = top;
position = "{281, 540}";
}
);
guideLines = (
{
position = "{12, -175}";
},
{
angle = 90;
position = "{172, -218}";
}
);
layerId = "DEEA460D-B437-4534-881A-9FF6A59DEC7E";
paths = (
{
closed = 1;
nodes = (
"60 247 OFFCURVE",
"137 150 OFFCURVE",
"281 150 CURVE SMOOTH",
"425 150 OFFCURVE",
"502 247 OFFCURVE",
"502 345 CURVE",
"490 345 LINE",
"490 243 OFFCURVE",
"398 162 OFFCURVE",
"281 162 CURVE SMOOTH",
"164 162 OFFCURVE",
"72 243 OFFCURVE",
"72 345 CURVE",
"60 345 LINE"
);
},
{
closed = 1;
nodes = (
"72 345 LINE",
"72 447 OFFCURVE",
"164 528 OFFCURVE",
"281 528 CURVE SMOOTH",
"398 528 OFFCURVE",
"490 447 OFFCURVE",
"490 345 CURVE",
"502 345 LINE",
"502 442 OFFCURVE",
"425 540 OFFCURVE",
"281 540 CURVE SMOOTH",
"137 540 OFFCURVE",
"60 443 OFFCURVE",
"60 345 CURVE"
);
},
{
closed = 1;
nodes = (
"490 345 LINE",
"502 345 LINE",
"502 620 LINE",
"490 620 LINE"
);
},
{
closed = 1;
nodes = (
"204 0 LINE",
"204 170 LINE",
"192 170 LINE",
"192 0 LINE"
);
},
{
closed = 1;
nodes = (
"72 0 LINE",
"540 0 LINE",
"540 12 LINE",
"72 12 LINE"
);
},
{
closed = 1;
nodes = (
"528 -24 LINE SMOOTH",
"528 -107 OFFCURVE",
"469 -163 OFFCURVE",
"381 -163 CURVE SMOOTH",
"172 -163 LINE",
"172 -175 LINE",
"381 -175 LINE SMOOTH",
"476 -175 OFFCURVE",
"540 -114 OFFCURVE",
"540 -24 CURVE SMOOTH",
"540 12 LINE",
"528 12 LINE"
);
}
);
width = 610;
},
{
anchors = (
{
name = bottom;
position = "{280, -175}";
},
{
name = top;
position = "{281, 540}";
}
);
layerId = "F6EE3598-E048-4269-B54C-F84174B7F0FB";
paths = (
{
closed = 1;
nodes = (
"60 247 OFFCURVE",
"137 150 OFFCURVE",
"281 150 CURVE SMOOTH",
"425 150 OFFCURVE",
"502 247 OFFCURVE",
"502 345 CURVE",
"392 345 LINE",
"392 292 OFFCURVE",
"343 255 OFFCURVE",
"281 255 CURVE SMOOTH",
"219 255 OFFCURVE",
"170 292 OFFCURVE",
"170 345 CURVE",
"60 345 LINE"
);
},
{
closed = 1;
nodes = (
"170 345 LINE",
"170 398 OFFCURVE",
"219 435 OFFCURVE",
"281 435 CURVE SMOOTH",
"343 435 OFFCURVE",
"392 398 OFFCURVE",
"392 345 CURVE",
"502 345 LINE",
"503 442 OFFCURVE",
"425 540 OFFCURVE",
"281 540 CURVE SMOOTH",
"137 540 OFFCURVE",
"60 443 OFFCURVE",
"60 345 CURVE"
);
},
{
closed = 1;
nodes = (
"432 420 LINE",
"532 420 LINE",
"532 620 LINE",
"432 620 LINE"
);
},
{
closed = 1;
nodes = (
"250 0 LINE",
"250 200 LINE",
"140 200 LINE",
"140 0 LINE"
);
},
{
closed = 1;
nodes = (
"72 0 LINE",
"505 0 LINE",
"505 100 LINE",
"72 100 LINE"
);
},
{
closed = 1;
nodes = (
"440 22 LINE SMOOTH",
"440 -31 OFFCURVE",
"410 -75 OFFCURVE",
"328 -75 CURVE",
"172 -75 LINE",
"172 -175 LINE",
"328 -175 LINE",
"469 -177 OFFCURVE",
"540 -90 OFFCURVE",
"540 22 CURVE SMOOTH",
"540 100 LINE",
"440 100 LINE"
);
}
);
width = 610;
},
{
associatedMasterId = "F6EE3598-E048-4269-B54C-F84174B7F0FB";
layerId = "D9E1B96F-7817-48DD-892C-9E3D0B902876";
name = "Jun 2 21, 12:59";
paths = (
{
closed = 1;
nodes = (
"80 209 OFFCURVE",
"157 100 OFFCURVE",
"301 100 CURVE SMOOTH",
"445 100 OFFCURVE",
"522 209 OFFCURVE",
"522 318 CURVE",
"402 318 LINE",
"402 268 OFFCURVE",
"368 220 OFFCURVE",
"301 220 CURVE SMOOTH",
"234 220 OFFCURVE",
"200 268 OFFCURVE",
"200 318 CURVE",
"80 318 LINE"
);
},
{
closed = 1;
nodes = (
"200 318 LINE",
"200 368 OFFCURVE",
"234 416 OFFCURVE",
"301 416 CURVE SMOOTH",
"368 416 OFFCURVE",
"402 368 OFFCURVE",
"402 318 CURVE",
"522 318 LINE",
"522 427 OFFCURVE",
"445 536 OFFCURVE",
"301 536 CURVE SMOOTH",
"157 536 OFFCURVE",
"80 427 OFFCURVE",
"80 318 CURVE"
);
},
{
closed = 1;
nodes = (
"362 510 LINE",
"552 510 LINE",
"552 610 LINE",
"362 610 LINE"
);
},
{
closed = 1;
nodes = (
"307 0 LINE",
"307 200 LINE",
"192 200 LINE",
"192 0 LINE"
);
},
{
closed = 1;
nodes = (
"192 -50 LINE",
"558 -50 LINE",
"558 50 LINE",
"192 50 LINE"
);
},
{
closed = 1;
nodes = (
"192 -200 LINE",
"366 -200 LINE SMOOTH",
"478 -200 OFFCURVE",
"558 -119 OFFCURVE",
"558 22 CURVE",
"463 22 LINE",
"463 -60 OFFCURVE",
"419 -100 OFFCURVE",
"366 -100 CURVE SMOOTH",
"192 -100 LINE"
);
}
);
width = 602;
},
{
associatedMasterId = "F6EE3598-E048-4269-B54C-F84174B7F0FB";
layerId = "40123C60-04FF-41EF-889A-AA2F22FC6090";
name = "Jun 2 21, 16:08";
paths = (
{
closed = 1;
nodes = (
"80 209 OFFCURVE",
"157 100 OFFCURVE",
"301 100 CURVE SMOOTH",
"445 100 OFFCURVE",
"522 209 OFFCURVE",
"522 318 CURVE",
"402 318 LINE",
"402 268 OFFCURVE",
"368 220 OFFCURVE",
"301 220 CURVE SMOOTH",
"234 220 OFFCURVE",
"200 268 OFFCURVE",
"200 318 CURVE",
"80 318 LINE"
);
},
{
closed = 1;
nodes = (
"200 318 LINE",
"200 368 OFFCURVE",
"234 416 OFFCURVE",
"301 416 CURVE SMOOTH",
"368 416 OFFCURVE",
"402 368 OFFCURVE",
"402 318 CURVE",
"522 318 LINE",
"522 427 OFFCURVE",
"445 536 OFFCURVE",
"301 536 CURVE SMOOTH",
"157 536 OFFCURVE",
"80 427 OFFCURVE",
"80 318 CURVE"
);
},
{
closed = 1;
nodes = (
"362 510 LINE",
"552 510 LINE",
"552 610 LINE",
"362 610 LINE"
);
},
{
closed = 1;
nodes = (
"307 0 LINE",
"307 200 LINE",
"192 200 LINE",
"192 0 LINE"
);
},
{
closed = 1;
nodes = (
"92 -50 LINE",
"498 -50 LINE",
"498 50 LINE",
"92 50 LINE"
);
},
{
closed = 1;
nodes = (
"192 -200 LINE",
"366 -200 LINE SMOOTH",
"478 -200 OFFCURVE",
"558 -119 OFFCURVE",
"558 22 CURVE",
"558 50 LINE",
"463 50 LINE",
"463 22 LINE",
"463 -60 OFFCURVE",
"419 -100 OFFCURVE",
"366 -100 CURVE SMOOTH",
"192 -100 LINE"
);
}
);
width = 602;
},
{
associatedMasterId = "F6EE3598-E048-4269-B54C-F84174B7F0FB";
layerId = "1CDD5B1F-7748-427B-95D9-0FFE134F6283";
name = "Jun 2 21, 16:10";
paths = (
{
closed = 1;
nodes = (
"80 205 OFFCURVE",
"157 100 OFFCURVE",
"301 100 CURVE SMOOTH",
"445 100 OFFCURVE",
"522 205 OFFCURVE",
"522 310 CURVE",
"402 310 LINE",
"402 262 OFFCURVE",
"368 215 OFFCURVE",
"301 215 CURVE SMOOTH",
"234 215 OFFCURVE",
"200 262 OFFCURVE",
"200 310 CURVE",
"80 310 LINE"
);
},
{
closed = 1;
nodes = (
"200 310 LINE",
"200 358 OFFCURVE",
"234 405 OFFCURVE",
"301 405 CURVE SMOOTH",
"368 405 OFFCURVE",
"402 358 OFFCURVE",
"402 310 CURVE",
"522 310 LINE",
"522 415 OFFCURVE",
"445 520 OFFCURVE",
"301 520 CURVE SMOOTH",
"157 520 OFFCURVE",
"80 415 OFFCURVE",
"80 310 CURVE"
);
},
{
closed = 1;
nodes = (
"362 510 LINE",
"552 510 LINE",
"552 610 LINE",
"362 610 LINE"
);
},
{
closed = 1;
nodes = (
"307 0 LINE",
"307 200 LINE",
"192 200 LINE",
"192 0 LINE"
);
},
{
closed = 1;
nodes = (
"92 -50 LINE",
"498 -50 LINE",
"498 50 LINE",
"92 50 LINE"
);
},
{
closed = 1;
nodes = (
"192 -200 LINE",
"366 -200 LINE SMOOTH",
"478 -200 OFFCURVE",
"558 -119 OFFCURVE",
"558 22 CURVE",
"558 50 LINE",
"463 50 LINE",
"463 22 LINE",
"463 -60 OFFCURVE",
"419 -100 OFFCURVE",
"366 -100 CURVE SMOOTH",
"192 -100 LINE"
);
}
);
width = 602;
},
{
associatedMasterId = "F6EE3598-E048-4269-B54C-F84174B7F0FB";
layerId = "BEF9EF93-49BC-4CA4-929C-829EB3BD0A72";
name = "Jun 2 21, 16:13";
paths = (
{
closed = 1;
nodes = (
"80 205 OFFCURVE",
"157 100 OFFCURVE",
"301 100 CURVE SMOOTH",
"445 100 OFFCURVE",
"522 205 OFFCURVE",
"522 310 CURVE",
"402 310 LINE",
"402 262 OFFCURVE",
"368 215 OFFCURVE",
"301 215 CURVE SMOOTH",
"234 215 OFFCURVE",
"200 262 OFFCURVE",
"200 310 CURVE",
"80 310 LINE"
);
},
{
closed = 1;
nodes = (
"200 310 LINE",
"200 358 OFFCURVE",
"234 405 OFFCURVE",
"301 405 CURVE SMOOTH",
"368 405 OFFCURVE",
"402 358 OFFCURVE",
"402 310 CURVE",
"522 310 LINE",
"522 415 OFFCURVE",
"445 520 OFFCURVE",
"301 520 CURVE SMOOTH",
"157 520 OFFCURVE",
"80 415 OFFCURVE",
"80 310 CURVE"
);
},
{
closed = 1;
nodes = (
"362 510 LINE",
"552 510 LINE",
"552 610 LINE",
"362 610 LINE"
);
},
{
closed = 1;
nodes = (
"307 0 LINE",
"307 200 LINE",
"192 200 LINE",
"192 0 LINE"
);
},
{
closed = 1;
nodes = (
"92 -50 LINE",
"528 -50 LINE",
"528 50 LINE",
"92 50 LINE"
);
},
{
closed = 1;
nodes = (
"463 -8 LINE SMOOTH",
"463 -61 OFFCURVE",
"423 -105 OFFCURVE",
"341 -105 CURVE",
"192 -105 LINE",
"192 -200 LINE",
"341 -200 LINE",
"482 -202 OFFCURVE",
"563 -120 OFFCURVE",
"563 -8 CURVE SMOOTH",
"563 50 LINE",
"463 50 LINE"
);
}
);
width = 602;
},
{
associatedMasterId = "F6EE3598-E048-4269-B54C-F84174B7F0FB";
layerId = "B7C44292-8603-4A07-843E-CEDC694C149E";
name = "Jun 2 21, 16:14";
paths = (
{
closed = 1;
nodes = (
"80 208 OFFCURVE",
"157 105 OFFCURVE",
"301 105 CURVE SMOOTH",
"445 105 OFFCURVE",
"522 208 OFFCURVE",
"522 310 CURVE",
"402 310 LINE",
"402 263 OFFCURVE",
"365 220 OFFCURVE",
"301 220 CURVE SMOOTH",
"237 220 OFFCURVE",
"200 263 OFFCURVE",
"200 310 CURVE",
"80 310 LINE"
);
},
{
closed = 1;
nodes = (
"200 310 LINE",
"200 357 OFFCURVE",
"237 400 OFFCURVE",
"301 400 CURVE SMOOTH",
"365 400 OFFCURVE",
"402 357 OFFCURVE",
"402 310 CURVE",
"522 310 LINE",
"522 413 OFFCURVE",
"445 515 OFFCURVE",
"301 515 CURVE SMOOTH",
"157 515 OFFCURVE",
"80 413 OFFCURVE",
"80 310 CURVE"
);
},
{
closed = 1;
nodes = (
"362 510 LINE",
"552 510 LINE",
"552 610 LINE",
"362 610 LINE"
);
},
{
closed = 1;
nodes = (
"307 0 LINE",
"307 200 LINE",
"192 200 LINE",
"192 0 LINE"
);
},
{
closed = 1;
nodes = (
"92 -50 LINE",
"528 -50 LINE",
"528 50 LINE",
"92 50 LINE"
);
},
{
closed = 1;
nodes = (
"463 -8 LINE SMOOTH",
"463 -61 OFFCURVE",
"423 -105 OFFCURVE",
"341 -105 CURVE",
"192 -105 LINE",
"192 -200 LINE",
"341 -200 LINE",
"482 -202 OFFCURVE",
"563 -120 OFFCURVE",
"563 -8 CURVE SMOOTH",
"563 50 LINE",
"463 50 LINE"
);
}
);
width = 602;
},
{
associatedMasterId = "F6EE3598-E048-4269-B54C-F84174B7F0FB";
layerId = "7DF750C1-0E1B-464D-AA6D-022C93844409";
name = "Jun 2 21, 16:27";
paths = (
{
closed = 1;
nodes = (
"80 213 OFFCURVE",
"157 110 OFFCURVE",
"301 110 CURVE SMOOTH",
"445 110 OFFCURVE",
"522 213 OFFCURVE",
"522 315 CURVE",
"402 315 LINE",
"402 268 OFFCURVE",
"365 225 OFFCURVE",
"301 225 CURVE SMOOTH",
"237 225 OFFCURVE",
"200 268 OFFCURVE",
"200 315 CURVE",
"80 315 LINE"
);
},
{
closed = 1;
nodes = (
"200 315 LINE",
"200 362 OFFCURVE",
"237 405 OFFCURVE",
"301 405 CURVE SMOOTH",
"365 405 OFFCURVE",
"402 362 OFFCURVE",
"402 315 CURVE",
"522 315 LINE",
"523 418 OFFCURVE",
"445 520 OFFCURVE",
"301 520 CURVE SMOOTH",
"157 520 OFFCURVE",
"80 418 OFFCURVE",
"80 315 CURVE"
);
},
{
closed = 1;
nodes = (
"362 510 LINE",
"552 510 LINE",
"552 610 LINE",
"362 610 LINE"
);
},
{
closed = 1;
nodes = (
"359 0 LINE",
"359 200 LINE",
"244 200 LINE",
"244 0 LINE"
);
},
{
closed = 1;
nodes = (
"92 0 LINE",
"528 0 LINE",
"528 105 LINE",
"92 105 LINE"
);
},
{
closed = 1;
nodes = (
"463 42 LINE SMOOTH",
"463 -11 OFFCURVE",
"423 -55 OFFCURVE",
"341 -55 CURVE",
"192 -55 LINE",
"192 -150 LINE",
"341 -150 LINE",
"482 -152 OFFCURVE",
"563 -70 OFFCURVE",
"563 42 CURVE SMOOTH",
"563 105 LINE",
"463 105 LINE"
);
}
);
width = 602;
},
{
associatedMasterId = "F6EE3598-E048-4269-B54C-F84174B7F0FB";
layerId = "4628CA21-070F-4287-81A8-9C4170C650FE";
name = "Jun 2 21, 16:36";
paths = (
{
closed = 1;
nodes = (
"80 213 OFFCURVE",
"157 110 OFFCURVE",
"301 110 CURVE SMOOTH",
"445 110 OFFCURVE",
"522 213 OFFCURVE",
"522 315 CURVE",
"412 315 LINE",
"412 259 OFFCURVE",
"363 215 OFFCURVE",
"301 215 CURVE SMOOTH",
"239 215 OFFCURVE",
"190 259 OFFCURVE",
"190 315 CURVE",
"80 315 LINE"
);
},
{
closed = 1;
nodes = (
"190 315 LINE",
"190 371 OFFCURVE",
"239 415 OFFCURVE",
"301 415 CURVE SMOOTH",
"363 415 OFFCURVE",
"412 371 OFFCURVE",
"412 315 CURVE",
"522 315 LINE",
"523 418 OFFCURVE",
"445 520 OFFCURVE",
"301 520 CURVE SMOOTH",
"157 520 OFFCURVE",
"80 418 OFFCURVE",
"80 315 CURVE"
);
},
{
closed = 1;
nodes = (
"362 510 LINE",
"552 510 LINE",
"552 610 LINE",
"362 610 LINE"
);
},
{
closed = 1;
nodes = (
"359 0 LINE",
"359 200 LINE",
"249 200 LINE",
"249 0 LINE"
);
},
{
closed = 1;
nodes = (
"272 0 LINE",
"528 0 LINE",
"528 100 LINE",
"272 100 LINE"
);
},
{
closed = 1;
nodes = (
"463 22 LINE SMOOTH",
"463 -31 OFFCURVE",
"433 -75 OFFCURVE",
"351 -75 CURVE",
"192 -75 LINE",
"192 -175 LINE",
"351 -175 LINE",
"492 -177 OFFCURVE",
"563 -90 OFFCURVE",
"563 22 CURVE SMOOTH",
"563 100 LINE",
"463 100 LINE"
);
}
);
width = 602;
},
{
associatedMasterId = "F6EE3598-E048-4269-B54C-F84174B7F0FB";
layerId = "D2505903-C5FB-4C6C-B81A-E3FBBCA5B3DA";
name = "Jun 2 21, 16:43";
paths = (
{
closed = 1;
nodes = (
"80 237 OFFCURVE",
"157 140 OFFCURVE",
"301 140 CURVE SMOOTH",
"445 140 OFFCURVE",
"522 237 OFFCURVE",
"522 335 CURVE",
"412 335 LINE",
"412 282 OFFCURVE",
"363 245 OFFCURVE",
"301 245 CURVE SMOOTH",
"239 245 OFFCURVE",
"190 282 OFFCURVE",
"190 335 CURVE",
"80 335 LINE"
);
},
{
closed = 1;
nodes = (
"190 335 LINE",
"190 388 OFFCURVE",
"239 425 OFFCURVE",
"301 425 CURVE SMOOTH",
"363 425 OFFCURVE",
"412 388 OFFCURVE",
"412 335 CURVE",
"522 335 LINE",
"523 433 OFFCURVE",
"445 530 OFFCURVE",
"301 530 CURVE SMOOTH",
"157 530 OFFCURVE",
"80 433 OFFCURVE",
"80 335 CURVE"
);
},
{
closed = 1;
nodes = (
"362 510 LINE",
"552 510 LINE",
"552 610 LINE",
"362 610 LINE"
);
},
{
closed = 1;
nodes = (
"270 0 LINE",
"270 200 LINE",
"160 200 LINE",
"160 0 LINE"
);
},
{
closed = 1;
nodes = (
"92 0 LINE",
"528 0 LINE",
"528 100 LINE",
"92 100 LINE"
);
},
{
closed = 1;
nodes = (
"463 22 LINE SMOOTH",
"463 -31 OFFCURVE",
"433 -75 OFFCURVE",
"351 -75 CURVE",
"192 -75 LINE",
"192 -175 LINE",
"351 -175 LINE",
"492 -177 OFFCURVE",
"563 -90 OFFCURVE",
"563 22 CURVE SMOOTH",
"563 100 LINE",
"463 100 LINE"
);
}
);
width = 602;
},
{
associatedMasterId = "DEEA460D-B437-4534-881A-9FF6A59DEC7E";
guideLines = (
{
position = "{32, -175}";
},
{
angle = 90;
position = "{192, -218}";
}
);
layerId = "73CB7078-761F-4905-91DE-756357928D36";
name = "Jun 7 21, 16:33";
paths = (
{
closed = 1;
nodes = (
"80 247 OFFCURVE",
"157 150 OFFCURVE",
"301 150 CURVE SMOOTH",
"445 150 OFFCURVE",
"522 247 OFFCURVE",
"522 345 CURVE",
"510 345 LINE",
"510 243 OFFCURVE",
"418 162 OFFCURVE",
"301 162 CURVE SMOOTH",
"184 162 OFFCURVE",
"92 243 OFFCURVE",
"92 345 CURVE",
"80 345 LINE"
);
},
{
closed = 1;
nodes = (
"92 345 LINE",
"92 447 OFFCURVE",
"184 528 OFFCURVE",
"301 528 CURVE SMOOTH",
"418 528 OFFCURVE",
"510 447 OFFCURVE",
"510 345 CURVE",
"522 345 LINE",
"523 442 OFFCURVE",
"445 540 OFFCURVE",
"301 540 CURVE SMOOTH",
"157 540 OFFCURVE",
"80 443 OFFCURVE",
"80 345 CURVE"
);
},
{
closed = 1;
nodes = (
"362 520 LINE",
"552 520 LINE",
"552 532 LINE",
"362 532 LINE"
);
},
{
closed = 1;
nodes = (
"221 0 LINE",
"221 170 LINE",
"209 170 LINE",
"209 0 LINE"
);
},
{
closed = 1;
nodes = (
"92 0 LINE",
"560 0 LINE",
"560 12 LINE",
"92 12 LINE"
);
},
{
closed = 1;
nodes = (
"548 -24 LINE SMOOTH",
"548 -107 OFFCURVE",
"489 -163 OFFCURVE",
"401 -163 CURVE SMOOTH",
"192 -163 LINE",
"192 -175 LINE",
"401 -175 LINE SMOOTH",
"496 -175 OFFCURVE",
"560 -114 OFFCURVE",
"560 -24 CURVE SMOOTH",
"560 12 LINE",
"548 12 LINE"
);
}
);
width = 640;
},
{
associatedMasterId = "DEEA460D-B437-4534-881A-9FF6A59DEC7E";
guideLines = (
{
position = "{32, -175}";
},
{
angle = 90;
position = "{192, -218}";
}
);
layerId = "CC90A20C-593E-421D-BD37-139ACE4FE483";
name = "Jun 7 21, 16:34";
paths = (
{
closed = 1;
nodes = (
"80 247 OFFCURVE",
"157 150 OFFCURVE",
"301 150 CURVE SMOOTH",
"445 150 OFFCURVE",
"522 247 OFFCURVE",
"522 345 CURVE",
"510 345 LINE",
"510 243 OFFCURVE",
"418 162 OFFCURVE",
"301 162 CURVE SMOOTH",
"184 162 OFFCURVE",
"92 243 OFFCURVE",
"92 345 CURVE",
"80 345 LINE"
);
},
{
closed = 1;
nodes = (
"92 345 LINE",
"92 447 OFFCURVE",
"184 528 OFFCURVE",
"301 528 CURVE SMOOTH",
"418 528 OFFCURVE",
"510 447 OFFCURVE",
"510 345 CURVE",
"522 345 LINE",
"523 442 OFFCURVE",
"445 540 OFFCURVE",
"301 540 CURVE SMOOTH",
"157 540 OFFCURVE",
"80 443 OFFCURVE",
"80 345 CURVE"
);
},
{
closed = 1;
nodes = (
"362 520 LINE",
"552 520 LINE",
"552 532 LINE",
"362 532 LINE"
);
},
{
closed = 1;
nodes = (
"204 0 LINE",
"204 175 LINE",
"192 175 LINE",
"192 0 LINE"
);
},
{
closed = 1;
nodes = (
"92 0 LINE",
"560 0 LINE",
"560 12 LINE",
"92 12 LINE"
);
},
{
closed = 1;
nodes = (
"548 -24 LINE SMOOTH",
"548 -107 OFFCURVE",
"489 -163 OFFCURVE",
"401 -163 CURVE SMOOTH",
"192 -163 LINE",
"192 -175 LINE",
"401 -175 LINE SMOOTH",
"496 -175 OFFCURVE",
"560 -114 OFFCURVE",
"560 -24 CURVE SMOOTH",
"560 12 LINE",
"548 12 LINE"
);
}
);
width = 640;
},
{
anchors = (
{
name = bottom;
position = "{300, -175}";
},
{
name = top;
position = "{301, 559}";
}
);
associatedMasterId = "F6EE3598-E048-4269-B54C-F84174B7F0FB";
layerId = "324F6BC0-7A4D-45D6-99DD-FF5618B3040E";
name = "Oct 29 21, 15:37";
paths = (
{
closed = 1;
nodes = (
"80 247 OFFCURVE",
"157 150 OFFCURVE",
"301 150 CURVE SMOOTH",
"445 150 OFFCURVE",
"522 247 OFFCURVE",
"522 345 CURVE",
"412 345 LINE",
"412 292 OFFCURVE",
"363 255 OFFCURVE",
"301 255 CURVE SMOOTH",
"239 255 OFFCURVE",
"190 292 OFFCURVE",
"190 345 CURVE",
"80 345 LINE"
);
},
{
closed = 1;
nodes = (
"190 345 LINE",
"190 398 OFFCURVE",
"239 435 OFFCURVE",
"301 435 CURVE SMOOTH",
"363 435 OFFCURVE",
"412 398 OFFCURVE",
"412 345 CURVE",
"522 345 LINE",
"523 442 OFFCURVE",
"445 540 OFFCURVE",
"301 540 CURVE SMOOTH",
"157 540 OFFCURVE",
"80 443 OFFCURVE",
"80 345 CURVE"
);
},
{
closed = 1;
nodes = (
"362 520 LINE",
"552 520 LINE",
"552 620 LINE",
"362 620 LINE"
);
},
{
closed = 1;
nodes = (
"270 0 LINE",
"270 200 LINE",
"160 200 LINE",
"160 0 LINE"
);
},
{
closed = 1;
nodes = (
"92 0 LINE",
"525 0 LINE",
"525 100 LINE",
"92 100 LINE"
);
},
{
closed = 1;
nodes = (
"460 22 LINE SMOOTH",
"460 -31 OFFCURVE",
"430 -75 OFFCURVE",
"348 -75 CURVE",
"192 -75 LINE",
"192 -175 LINE",
"348 -175 LINE",
"489 -177 OFFCURVE",
"560 -90 OFFCURVE",
"560 22 CURVE SMOOTH",
"560 100 LINE",
"460 100 LINE"
);
}
);
width = 640;
}
);
leftKerningGroup = g;
rightKerningGroup = g;
unicode = 0067;
},
{
glyphname = h;
lastChange = "2023-01-12 09:37:25 +0000";
layers = (
{
layerId = "DEEA460D-B437-4534-881A-9FF6A59DEC7E";
paths = (
{
closed = 1;
nodes = (
"299 508 LINE SMOOTH",
"382 508 OFFCURVE",
"438 449 OFFCURVE",
"438 361 CURVE SMOOTH",
"438 0 LINE",
"450 0 LINE",
"450 361 LINE SMOOTH",
"450 456 OFFCURVE",
"389 520 OFFCURVE",
"299 520 CURVE SMOOTH",
"90 520 LINE",
"90 508 LINE"
);
},
{
closed = 1;
nodes = (
"102 0 LINE",
"102 710 LINE",
"90 710 LINE",
"90 0 LINE"
);
}
);
width = 540;
},
{
layerId = "F6EE3598-E048-4269-B54C-F84174B7F0FB";
paths = (
{
closed = 1;
nodes = (
"289 410 LINE SMOOTH",
"320 410 OFFCURVE",
"345 384 OFFCURVE",
"345 351 CURVE SMOOTH",
"345 0 LINE",
"460 0 LINE",
"460 351 LINE SMOOTH",
"460 446 OFFCURVE",
"385 520 OFFCURVE",
"289 520 CURVE SMOOTH",
"179 520 LINE",
"179 410 LINE"
);
},
{
closed = 1;
nodes = (
"205 0 LINE",
"205 710 LINE",
"90 710 LINE",
"90 0 LINE"
);
}
);
width = 540;
},
{
associatedMasterId = "F6EE3598-E048-4269-B54C-F84174B7F0FB";
layerId = "DD5DAFCF-896B-4EBF-90E8-3D91692CEF4F";
name = "May 31 21, 12:30";
paths = (
{
closed = 1;
nodes = (
"249 395 LINE SMOOTH",
"311 395 OFFCURVE",
"350 354 OFFCURVE",
"350 301 CURVE SMOOTH",
"350 0 LINE",
"460 0 LINE",
"460 301 LINE SMOOTH",
"460 418 OFFCURVE",
"380 510 OFFCURVE",
"249 510 CURVE SMOOTH",
"189 510 LINE",
"189 395 LINE"
);
},
{
closed = 1;
nodes = (
"205 0 LINE",
"205 710 LINE",
"90 710 LINE",
"90 0 LINE"
);
}
);
width = 540;
}
);
leftMetricsKey = l;
rightKerningGroup = n;
rightMetricsKey = n;
unicode = 0068;
},
{
glyphname = hbar;
lastChange = "2021-06-18 11:52:36 +0000";
layers = (
{
components = (
{
name = h;
transform = "{1, 0, 0, 1, 10, 0}";
}
);
layerId = "DEEA460D-B437-4534-881A-9FF6A59DEC7E";
paths = (
{
closed = 1;
nodes = (
"50 621 LINE",
"50 609 LINE",
"410 609 LINE",
"410 621 LINE"
);
}
);
width = 540;
},
{
components = (
{
name = h;
}
);
layerId = "F6EE3598-E048-4269-B54C-F84174B7F0FB";
paths = (
{
closed = 1;
nodes = (
"40 650 LINE",
"40 580 LINE",
"400 580 LINE",
"400 650 LINE"
);
}
);
width = 540;
}
);
rightMetricsKey = h;
unicode = 0127;
},
{
glyphname = idotless;
lastChange = "2023-01-10 09:58:15 +0000";
layers = (
{
anchors = (
{
name = bottom;
position = "{147, 0}";
},
{
name = ogonek;
position = "{146, 0}";
},
{
name = top;
position = "{147, 520}";
}
);
layerId = "DEEA460D-B437-4534-881A-9FF6A59DEC7E";
paths = (
{
closed = 1;
nodes = (
"153 0 LINE",
"153 520 LINE",
"141 520 LINE",
"141 0 LINE"
);
}
);
width = 295;
},
{
anchors = (
{
name = bottom;
position = "{148, 0}";
},
{
name = ogonek;
position = "{163, 0}";
},
{
name = top;
position = "{148, 520}";
}
);
layerId = "F6EE3598-E048-4269-B54C-F84174B7F0FB";
paths = (
{
closed = 1;
nodes = (
"205 0 LINE",
"205 520 LINE",
"90 520 LINE",
"90 0 LINE"
);
}
);
width = 295;
}
);
unicode = 0131;
},
{
glyphname = jdotless;
lastChange = "2023-01-10 09:58:15 +0000";
layers = (
{
anchors = (
{
name = bottom;
position = "{144, -200}";
},
{
name = top;
position = "{144, 510}";
}
);
layerId = "DEEA460D-B437-4534-881A-9FF6A59DEC7E";
paths = (
{
closed = 1;
nodes = (
"150 -200 LINE",
"150 510 LINE",
"138 510 LINE",
"138 -200 LINE"
);
},
{
closed = 1;
nodes = (
"-16 -200 LINE",
"150 -200 LINE",
"150 -188 LINE",
"-16 -188 LINE"
);
}
);
width = 290;
},
{
anchors = (
{
name = bottom;
position = "{145, -200}";
},
{
name = top;
position = "{145, 520}";
}
);
layerId = "F6EE3598-E048-4269-B54C-F84174B7F0FB";
paths = (
{
closed = 1;
nodes = (
"200 -200 LINE",
"200 520 LINE",
"85 520 LINE",
"85 -200 LINE"
);
},
{
closed = 1;
nodes = (
"-15 -200 LINE",
"200 -200 LINE",
"200 -90 LINE",
"-15 -90 LINE"
);
}
);
width = 290;
}
);
unicode = 0237;
},
{
glyphname = k;
lastChange = "2023-01-10 17:55:04 +0000";
layers = (
{
anchors = (
{
name = bottom;
position = "{283, 0}";
},
{
name = top;
position = "{283, 710}";
}
);
layerId = "DEEA460D-B437-4534-881A-9FF6A59DEC7E";
paths = (
{
closed = 1;
nodes = (
"372 261 LINE",
"110 261 LINE",
"110 249 LINE",
"372 249 LINE"
);
},
{
closed = 1;
nodes = (
"362 249 LINE",
"375 249 LINE",
"505 520 LINE",
"492 520 LINE"
);
},
{
closed = 1;
nodes = (
"505 0 LINE",
"377 266 LINE",
"372 250 LINE",
"492 0 LINE"
);
},
{
closed = 1;
nodes = (
"122 0 LINE",
"122 710 LINE",
"110 710 LINE",
"110 0 LINE"
);
}
);
width = 565;
},
{
anchors = (
{
name = bottom;
position = "{283, 0}";
},
{
name = top;
position = "{283, 710}";
}
);
layerId = "F6EE3598-E048-4269-B54C-F84174B7F0FB";
paths = (
{
closed = 1;
nodes = (
"327 310 LINE",
"90 310 LINE",
"90 200 LINE",
"327 200 LINE"
);
},
{
closed = 1;
nodes = (
"223 247 LINE",
"339 247 LINE",
"470 520 LINE",
"354 520 LINE"
);
},
{
closed = 1;
nodes = (
"505 0 LINE",
"343 338 LINE",
"261 267 LINE",
"389 0 LINE"
);
},
{
closed = 1;
nodes = (
"205 0 LINE",
"205 710 LINE",
"90 710 LINE",
"90 0 LINE"
);
}
);
width = 565;
}
);
rightKerningGroup = x;
unicode = 006B;
},
{
glyphname = l;
lastChange = "2023-01-10 09:58:15 +0000";
layers = (
{
anchors = (
{
name = bottom;
position = "{200, 0}";
},
{
name = center;
position = "{96, 400}";
},
{
name = top;
position = "{96, 710}";
},
{
name = topright;
position = "{366, 800}";
}
);
layerId = "DEEA460D-B437-4534-881A-9FF6A59DEC7E";
paths = (
{
closed = 1;
nodes = (
"320 12 LINE",
"90 12 LINE",
"90 0 LINE",
"320 0 LINE"
);
},
{
closed = 1;
nodes = (
"102 0 LINE",
"102 710 LINE",
"90 710 LINE",
"90 0 LINE"
);
}
);
width = 390;
},
{
anchors = (
{
name = bottom;
position = "{205, 0}";
},
{
name = center;
position = "{150, 400}";
},
{
name = top;
position = "{150, 710}";
},
{
name = topright;
position = "{366, 710}";
}
);
layerId = "F6EE3598-E048-4269-B54C-F84174B7F0FB";
paths = (
{
closed = 1;
nodes = (
"320 110 LINE",
"90 110 LINE",
"90 0 LINE",
"320 0 LINE"
);
},
{
closed = 1;
nodes = (
"205 0 LINE",
"205 710 LINE",
"90 710 LINE",
"90 0 LINE"
);
}
);
width = 390;
}
);
rightKerningGroup = l;
unicode = 006C;
},
{
glyphname = lslash;
lastChange = "2021-11-29 16:58:26 +0000";
layers = (
{
components = (
{
name = l;
}
);
layerId = "DEEA460D-B437-4534-881A-9FF6A59DEC7E";
paths = (
{
closed = 1;
nodes = (
"285 359 LINE",
"285 374 LINE",
"50 196 LINE",
"50 180 LINE"
);
}
);
width = 386;
},
{
components = (
{
name = l;
}
);
layerId = "F6EE3598-E048-4269-B54C-F84174B7F0FB";
paths = (
{
closed = 1;
nodes = (
"285 367 LINE",
"285 455 LINE",
"50 277 LINE",
"50 188 LINE"
);
}
);
width = 386;
}
);
rightKerningGroup = l;
unicode = 0142;
},
{
glyphname = m;
lastChange = "2023-01-12 13:49:58 +0000";
layers = (
{
layerId = "DEEA460D-B437-4534-881A-9FF6A59DEC7E";
paths = (
{
closed = 1;
nodes = (
"524 508 LINE SMOOTH",
"607 508 OFFCURVE",
"663 449 OFFCURVE",
"663 361 CURVE SMOOTH",
"663 0 LINE",
"675 0 LINE",
"675 361 LINE SMOOTH",
"675 456 OFFCURVE",
"614 520 OFFCURVE",
"524 520 CURVE SMOOTH",
"90 520 LINE",
"90 508 LINE"
);
},
{
closed = 1;
nodes = (
"389 0 LINE",
"389 520 LINE",
"377 520 LINE",
"377 0 LINE"
);
},
{
closed = 1;
nodes = (
"102 0 LINE",
"102 520 LINE",
"90 520 LINE",
"90 0 LINE"
);
}
);
width = 765;
},
{
layerId = "F6EE3598-E048-4269-B54C-F84174B7F0FB";
paths = (
{
closed = 1;
nodes = (
"514 410 LINE SMOOTH",
"545 410 OFFCURVE",
"570 384 OFFCURVE",
"570 351 CURVE SMOOTH",
"570 0 LINE",
"685 0 LINE",
"685 351 LINE SMOOTH",
"685 446 OFFCURVE",
"610 520 OFFCURVE",
"514 520 CURVE SMOOTH",
"169 520 LINE",
"169 410 LINE"
);
},
{
closed = 1;
nodes = (
"440 0 LINE",
"440 520 LINE",
"325 520 LINE",
"325 0 LINE"
);
},
{
closed = 1;
nodes = (
"195 0 LINE",
"195 520 LINE",
"80 520 LINE",
"80 0 LINE"
);
}
);
width = 765;
},
{
associatedMasterId = "F6EE3598-E048-4269-B54C-F84174B7F0FB";
layerId = "61EBC606-3FA5-47D6-AD77-2B30F01A03D8";
name = "May 31 21, 12:25";
paths = (
{
closed = 1;
nodes = (
"449 395 LINE SMOOTH",
"511 395 OFFCURVE",
"550 354 OFFCURVE",
"550 301 CURVE SMOOTH",
"550 0 LINE",
"660 0 LINE",
"660 301 LINE SMOOTH",
"660 418 OFFCURVE",
"580 510 OFFCURVE",
"449 510 CURVE SMOOTH",
"189 510 LINE",
"189 395 LINE"
);
},
{
closed = 1;
nodes = (
"425 0 LINE",
"425 520 LINE",
"310 520 LINE",
"310 0 LINE"
);
},
{
closed = 1;
nodes = (
"205 0 LINE",
"205 520 LINE",
"90 520 LINE",
"90 0 LINE"
);
}
);
width = 750;
},
{
associatedMasterId = "DEEA460D-B437-4534-881A-9FF6A59DEC7E";
layerId = "036FD72C-00D6-4B2A-9605-1B1869607645";
name = "Jun 2 21, 11:56";
paths = (
{
closed = 1;
nodes = (
"489 498 LINE SMOOTH",
"572 498 OFFCURVE",
"628 439 OFFCURVE",
"628 351 CURVE SMOOTH",
"628 0 LINE",
"640 0 LINE",
"640 351 LINE SMOOTH",
"640 446 OFFCURVE",
"579 510 OFFCURVE",
"489 510 CURVE SMOOTH",
"90 510 LINE",
"90 498 LINE"
);
},
{
closed = 1;
nodes = (
"371 0 LINE",
"371 520 LINE",
"359 520 LINE",
"359 0 LINE"
);
},
{
closed = 1;
nodes = (
"102 0 LINE",
"102 520 LINE",
"90 520 LINE",
"90 0 LINE"
);
}
);
width = 730;
}
);
leftKerningGroup = n;
leftMetricsKey = n;
rightKerningGroup = n;
rightMetricsKey = n;
unicode = 006D;
},
{
glyphname = n;
lastChange = "2023-01-12 09:35:11 +0000";
layers = (
{
anchors = (
{
name = bottom;
position = "{280, 0}";
},
{
name = top;
position = "{270, 520}";
}
);
layerId = "DEEA460D-B437-4534-881A-9FF6A59DEC7E";
paths = (
{
closed = 1;
nodes = (
"299 508 LINE SMOOTH",
"382 508 OFFCURVE",
"438 449 OFFCURVE",
"438 361 CURVE SMOOTH",
"438 0 LINE",
"450 0 LINE",
"450 361 LINE SMOOTH",
"450 456 OFFCURVE",
"389 520 OFFCURVE",
"299 520 CURVE SMOOTH",
"90 520 LINE",
"90 508 LINE"
);
},
{
closed = 1;
nodes = (
"102 0 LINE",
"102 520 LINE",
"90 520 LINE",
"90 0 LINE"
);
}
);
width = 540;
},
{
anchors = (
{
name = bottom;
position = "{270, 0}";
},
{
name = top;
position = "{260, 520}";
}
);
layerId = "F6EE3598-E048-4269-B54C-F84174B7F0FB";
paths = (
{
closed = 1;
nodes = (
"289 410 LINE SMOOTH",
"320 410 OFFCURVE",
"345 384 OFFCURVE",
"345 351 CURVE SMOOTH",
"345 0 LINE",
"460 0 LINE",
"460 351 LINE SMOOTH",
"460 446 OFFCURVE",
"385 520 OFFCURVE",
"289 520 CURVE SMOOTH",
"179 520 LINE",
"179 410 LINE"
);
},
{
closed = 1;
nodes = (
"195 0 LINE",
"195 520 LINE",
"80 520 LINE",
"80 0 LINE"
);
}
);
width = 540;
},
{
associatedMasterId = "DEEA460D-B437-4534-881A-9FF6A59DEC7E";
layerId = "A8DA7DB0-A2B1-4064-9C4E-D655B7289026";
name = "May 31 21, 12:27";
paths = (
{
closed = 1;
nodes = (
"239 395 LINE SMOOTH",
"300 395 OFFCURVE",
"340 354 OFFCURVE",
"340 301 CURVE SMOOTH",
"340 0 LINE",
"450 0 LINE",
"450 301 LINE SMOOTH",
"450 418 OFFCURVE",
"370 510 OFFCURVE",
"239 510 CURVE SMOOTH",
"80 510 LINE",
"80 395 LINE"
);
},
{
closed = 1;
nodes = (
"92 0 LINE",
"92 520 LINE",
"80 520 LINE",
"80 0 LINE"
);
}
);
width = 530;
}
);
leftKerningGroup = n;
rightKerningGroup = n;
unicode = 006E;
},
{
glyphname = eng;
lastChange = "2023-01-12 09:51:14 +0000";
layers = (
{
components = (
{
name = n;
}
);
layerId = "DEEA460D-B437-4534-881A-9FF6A59DEC7E";
paths = (
{
closed = 1;
nodes = (
"450 -200 LINE",
"450 120 LINE",
"438 120 LINE",
"438 -200 LINE"
);
},
{
closed = 1;
nodes = (
"284 -200 LINE",
"450 -200 LINE",
"450 -188 LINE",
"284 -188 LINE"
);
}
);
width = 540;
},
{
components = (
{
name = n;
}
);
layerId = "F6EE3598-E048-4269-B54C-F84174B7F0FB";
paths = (
{
closed = 1;
nodes = (
"460 -200 LINE",
"460 120 LINE",
"345 120 LINE",
"345 -200 LINE"
);
},
{
closed = 1;
nodes = (
"245 -200 LINE",
"460 -200 LINE",
"460 -90 LINE",
"245 -90 LINE"
);
}
);
width = 540;
}
);
leftKerningGroup = n;
rightKerningGroup = n;
unicode = 014B;
},
{
glyphname = o;
lastChange = "2023-01-12 14:41:35 +0000";
layers = (
{
anchors = (
{
name = bottom;
position = "{325, 0}";
},
{
name = center;
position = "{325, 260}";
},
{
name = ogonek;
position = "{369, 0}";
},
{
name = top;
position = "{325, 520}";
},
{
name = topright;
position = "{650, 520}";
}
);
layerId = "DEEA460D-B437-4534-881A-9FF6A59DEC7E";
paths = (
{
closed = 1;
nodes = (
"186 7 OFFCURVE",
"72 121 OFFCURVE",
"72 260 CURVE SMOOTH",
"72 399 OFFCURVE",
"186 513 OFFCURVE",
"325 513 CURVE SMOOTH",
"464 513 OFFCURVE",
"578 399 OFFCURVE",
"578 260 CURVE SMOOTH",
"578 121 OFFCURVE",
"464 7 OFFCURVE",
"325 7 CURVE SMOOTH"
);
},
{
closed = 1;
nodes = (
"471 -5 OFFCURVE",
"590 114 OFFCURVE",
"590 260 CURVE SMOOTH",
"590 406 OFFCURVE",
"471 525 OFFCURVE",
"325 525 CURVE SMOOTH",
"179 525 OFFCURVE",
"60 406 OFFCURVE",
"60 260 CURVE SMOOTH",
"60 114 OFFCURVE",
"179 -5 OFFCURVE",
"325 -5 CURVE SMOOTH"
);
}
);
width = 650;
},
{
anchors = (
{
name = bottom;
position = "{325, 0}";
},
{
name = center;
position = "{325, 260}";
},
{
name = ogonek;
position = "{334, 0}";
},
{
name = top;
position = "{325, 520}";
},
{
name = topright;
position = "{650, 520}";
}
);
layerId = "F6EE3598-E048-4269-B54C-F84174B7F0FB";
paths = (
{
closed = 1;
nodes = (
"242 110 OFFCURVE",
"175 177 OFFCURVE",
"175 260 CURVE SMOOTH",
"175 343 OFFCURVE",
"242 410 OFFCURVE",
"325 410 CURVE SMOOTH",
"408 410 OFFCURVE",
"475 343 OFFCURVE",
"475 260 CURVE SMOOTH",
"475 177 OFFCURVE",
"408 110 OFFCURVE",
"325 110 CURVE SMOOTH"
);
},
{
closed = 1;
nodes = (
"471 -5 OFFCURVE",
"590 114 OFFCURVE",
"590 260 CURVE SMOOTH",
"590 406 OFFCURVE",
"471 525 OFFCURVE",
"325 525 CURVE SMOOTH",
"179 525 OFFCURVE",
"60 406 OFFCURVE",
"60 260 CURVE SMOOTH",
"60 114 OFFCURVE",
"179 -5 OFFCURVE",
"325 -5 CURVE SMOOTH"
);
}
);
width = 650;
}
);
leftKerningGroup = o;
rightKerningGroup = o;
unicode = 006F;
},
{
glyphname = oslash;
lastChange = "2023-01-11 10:34:00 +0000";
layers = (
{
layerId = "DEEA460D-B437-4534-881A-9FF6A59DEC7E";
paths = (
{
closed = 1;
nodes = (
"471 -5 OFFCURVE",
"590 114 OFFCURVE",
"590 260 CURVE SMOOTH",
"590 406 OFFCURVE",
"471 525 OFFCURVE",
"325 525 CURVE SMOOTH",
"179 525 OFFCURVE",
"60 406 OFFCURVE",
"60 260 CURVE SMOOTH",
"60 114 OFFCURVE",
"179 -5 OFFCURVE",
"325 -5 CURVE SMOOTH"
);
},
{
closed = 1;
nodes = (
"134 0 LINE",
"532 520 LINE",
"517 520 LINE",
"119 0 LINE"
);
},
{
closed = 1;
nodes = (
"186 7 OFFCURVE",
"72 121 OFFCURVE",
"72 260 CURVE SMOOTH",
"72 399 OFFCURVE",
"186 513 OFFCURVE",
"325 513 CURVE SMOOTH",
"464 513 OFFCURVE",
"578 399 OFFCURVE",
"578 260 CURVE SMOOTH",
"578 121 OFFCURVE",
"464 7 OFFCURVE",
"325 7 CURVE SMOOTH"
);
}
);
width = 650;
},
{
layerId = "F6EE3598-E048-4269-B54C-F84174B7F0FB";
paths = (
{
closed = 1;
nodes = (
"471 -5 OFFCURVE",
"590 114 OFFCURVE",
"590 260 CURVE SMOOTH",
"590 406 OFFCURVE",
"471 525 OFFCURVE",
"325 525 CURVE SMOOTH",
"179 525 OFFCURVE",
"60 406 OFFCURVE",
"60 260 CURVE SMOOTH",
"60 114 OFFCURVE",
"179 -5 OFFCURVE",
"325 -5 CURVE SMOOTH"
);
},
{
closed = 1;
nodes = (
"171 0 LINE",
"569 520 LINE",
"479 520 LINE",
"81 0 LINE"
);
},
{
closed = 1;
nodes = (
"236 100 OFFCURVE",
"165 171 OFFCURVE",
"165 260 CURVE SMOOTH",
"165 349 OFFCURVE",
"236 420 OFFCURVE",
"325 420 CURVE SMOOTH",
"414 420 OFFCURVE",
"485 349 OFFCURVE",
"485 260 CURVE SMOOTH",
"485 171 OFFCURVE",
"414 100 OFFCURVE",
"325 100 CURVE SMOOTH"
);
}
);
width = 650;
}
);
leftKerningGroup = o;
leftMetricsKey = o;
rightKerningGroup = o;
rightMetricsKey = o;
unicode = 00F8;
},
{
glyphname = oe;
lastChange = "2023-01-12 09:51:21 +0000";
layers = (
{
layerId = "DEEA460D-B437-4534-881A-9FF6A59DEC7E";
paths = (
{
closed = 1;
nodes = (
"161 7 OFFCURVE",
"72 118 OFFCURVE",
"72 260 CURVE SMOOTH",
"72 402 OFFCURVE",
"161 513 OFFCURVE",
"278 513 CURVE SMOOTH",
"392 513 OFFCURVE",
"479 402 OFFCURVE",
"479 260 CURVE SMOOTH",
"479 118 OFFCURVE",
"392 7 OFFCURVE",
"278 7 CURVE SMOOTH"
);
},
{
closed = 1;
nodes = (
"399 -5 OFFCURVE",
"491 112 OFFCURVE",
"491 260 CURVE SMOOTH",
"491 408 OFFCURVE",
"399 525 OFFCURVE",
"278 525 CURVE SMOOTH",
"155 525 OFFCURVE",
"60 408 OFFCURVE",
"60 260 CURVE SMOOTH",
"60 112 OFFCURVE",
"155 -5 OFFCURVE",
"278 -5 CURVE SMOOTH"
);
},
{
closed = 1;
nodes = (
"491 260 LINE",
"491 415 OFFCURVE",
"575 508 OFFCURVE",
"700 508 CURVE SMOOTH",
"801 508 LINE",
"801 520 LINE",
"700 520 LINE SMOOTH",
"572 520 OFFCURVE",
"480 427 OFFCURVE",
"479 260 CURVE"
);
},
{
closed = 1;
nodes = (
"756 0 LINE",
"756 12 LINE",
"700 12 LINE SMOOTH",
"575 12 OFFCURVE",
"491 105 OFFCURVE",
"491 260 CURVE",
"479 260 LINE",
"480 93 OFFCURVE",
"572 0 OFFCURVE",
"700 0 CURVE SMOOTH"
);
},
{
closed = 1;
nodes = (
"801 200 LINE",
"801 212 LINE",
"617 212 LINE",
"617 200 LINE"
);
},
{
closed = 1;
nodes = (
"801 200 LINE",
"801 520 LINE",
"789 520 LINE",
"789 200 LINE"
);
}
);
width = 881;
},
{
layerId = "F6EE3598-E048-4269-B54C-F84174B7F0FB";
paths = (
{
closed = 1;
nodes = (
"222 110 OFFCURVE",
"175 177 OFFCURVE",
"175 260 CURVE SMOOTH",
"175 343 OFFCURVE",
"222 410 OFFCURVE",
"295 410 CURVE SMOOTH",
"368 410 OFFCURVE",
"415 343 OFFCURVE",
"415 260 CURVE SMOOTH",
"415 177 OFFCURVE",
"368 110 OFFCURVE",
"295 110 CURVE SMOOTH"
);
},
{
closed = 1;
nodes = (
"436 -5 OFFCURVE",
"525 114 OFFCURVE",
"525 260 CURVE SMOOTH",
"525 406 OFFCURVE",
"436 525 OFFCURVE",
"295 525 CURVE SMOOTH",
"154 525 OFFCURVE",
"60 406 OFFCURVE",
"60 260 CURVE SMOOTH",
"60 114 OFFCURVE",
"154 -5 OFFCURVE",
"295 -5 CURVE SMOOTH"
);
},
{
closed = 1;
nodes = (
"525 260 LINE",
"525 355 OFFCURVE",
"575 405 OFFCURVE",
"636 405 CURVE SMOOTH",
"741 405 LINE",
"741 520 LINE",
"636 520 LINE SMOOTH",
"511 520 OFFCURVE",
"414 428 OFFCURVE",
"415 260 CURVE"
);
},
{
closed = 1;
nodes = (
"741 0 LINE",
"741 115 LINE",
"636 115 LINE SMOOTH",
"576 115 OFFCURVE",
"525 161 OFFCURVE",
"525 260 CURVE",
"415 260 LINE",
"414 93 OFFCURVE",
"508 0 OFFCURVE",
"636 0 CURVE SMOOTH"
);
},
{
closed = 1;
nodes = (
"727 210 LINE",
"727 310 LINE",
"600 310 LINE",
"600 210 LINE"
);
},
{
closed = 1;
nodes = (
"801 210 LINE",
"801 520 LINE",
"696 520 LINE",
"696 210 LINE"
);
}
);
width = 881;
},
{
associatedMasterId = "F6EE3598-E048-4269-B54C-F84174B7F0FB";
layerId = "F2543876-183D-4A43-A8A6-211836337AC3";
name = "Jun 22 21, 17:40";
paths = (
{
closed = 1;
nodes = (
"301 115 LINE SMOOTH",
"241 115 OFFCURVE",
"190 161 OFFCURVE",
"190 260 CURVE",
"80 260 LINE",
"80 93 OFFCURVE",
"173 0 OFFCURVE",
"301 0 CURVE SMOOTH",
"400 0 LINE",
"400 115 LINE"
);
},
{
closed = 1;
nodes = (
"400 520 LINE",
"301 520 LINE SMOOTH",
"176 520 OFFCURVE",
"79 428 OFFCURVE",
"80 260 CURVE",
"190 260 LINE",
"190 355 OFFCURVE",
"240 405 OFFCURVE",
"301 405 CURVE SMOOTH",
"400 405 LINE"
);
},
{
closed = 1;
nodes = (
"636 210 LINE",
"636 310 LINE",
"525 310 LINE",
"525 210 LINE"
);
},
{
closed = 1;
nodes = (
"710 210 LINE",
"710 520 LINE",
"605 520 LINE",
"605 210 LINE"
);
},
{
closed = 1;
nodes = (
"636 410 LINE",
"636 520 LINE",
"425 520 LINE",
"425 410 LINE"
);
},
{
closed = 1;
nodes = (
"636 0 LINE",
"636 110 LINE",
"425 110 LINE",
"425 0 LINE"
);
},
{
closed = 1;
nodes = (
"445 0 LINE",
"445 520 LINE",
"330 520 LINE",
"330 0 LINE"
);
}
);
width = 790;
},
{
associatedMasterId = "F6EE3598-E048-4269-B54C-F84174B7F0FB";
layerId = "AFC1DA35-26E6-4D05-91C3-DABC73BABF4A";
name = "Jul 13 21, 15:19";
paths = (
{
closed = 1;
nodes = (
"647 260 LINE",
"647 355 OFFCURVE",
"795 405 OFFCURVE",
"856 405 CURVE SMOOTH",
"961 405 LINE",
"961 520 LINE",
"856 520 LINE SMOOTH",
"731 520 OFFCURVE",
"634 428 OFFCURVE",
"635 260 CURVE"
);
},
{
closed = 1;
nodes = (
"961 0 LINE",
"961 115 LINE",
"856 115 LINE SMOOTH",
"796 115 OFFCURVE",
"647 161 OFFCURVE",
"647 260 CURVE",
"635 260 LINE",
"634 93 OFFCURVE",
"728 0 OFFCURVE",
"856 0 CURVE SMOOTH"
);
},
{
closed = 1;
nodes = (
"947 210 LINE",
"947 310 LINE",
"820 310 LINE",
"820 210 LINE"
);
},
{
closed = 1;
nodes = (
"1021 210 LINE",
"1021 520 LINE",
"916 520 LINE",
"916 210 LINE"
);
},
{
closed = 1;
nodes = (
"190 7 OFFCURVE",
"92 118 OFFCURVE",
"92 260 CURVE SMOOTH",
"92 402 OFFCURVE",
"190 513 OFFCURVE",
"315 513 CURVE SMOOTH",
"437 513 OFFCURVE",
"533 402 OFFCURVE",
"533 260 CURVE SMOOTH",
"533 118 OFFCURVE",
"437 7 OFFCURVE",
"315 7 CURVE SMOOTH"
);
},
{
closed = 1;
nodes = (
"444 -5 OFFCURVE",
"545 112 OFFCURVE",
"545 260 CURVE SMOOTH",
"545 408 OFFCURVE",
"444 525 OFFCURVE",
"315 525 CURVE SMOOTH",
"183 525 OFFCURVE",
"80 408 OFFCURVE",
"80 260 CURVE SMOOTH",
"80 112 OFFCURVE",
"183 -5 OFFCURVE",
"315 -5 CURVE SMOOTH"
);
}
);
width = 901;
}
);
leftKerningGroup = o;
leftMetricsKey = o;
rightKerningGroup = e;
rightMetricsKey = e;
unicode = 0153;
},
{
glyphname = p;
lastChange = "2023-01-12 09:51:33 +0000";
layers = (
{
layerId = "DEEA460D-B437-4534-881A-9FF6A59DEC7E";
paths = (
{
closed = 1;
nodes = (
"90 0 LINE",
"279 0 LINE SMOOTH",
"407 0 OFFCURVE",
"499 93 OFFCURVE",
"500 260 CURVE",
"488 260 LINE",
"488 104 OFFCURVE",
"404 12 OFFCURVE",
"279 12 CURVE SMOOTH",
"90 12 LINE"
);
},
{
closed = 1;
nodes = (
"279 508 LINE SMOOTH",
"404 508 OFFCURVE",
"488 415 OFFCURVE",
"488 260 CURVE",
"500 260 LINE",
"499 427 OFFCURVE",
"407 520 OFFCURVE",
"279 520 CURVE SMOOTH",
"90 520 LINE",
"90 508 LINE"
);
},
{
closed = 1;
nodes = (
"102 -200 LINE",
"102 520 LINE",
"90 520 LINE",
"90 -200 LINE"
);
}
);
width = 560;
},
{
layerId = "F6EE3598-E048-4269-B54C-F84174B7F0FB";
paths = (
{
closed = 1;
nodes = (
"165 0 LINE",
"279 0 LINE SMOOTH",
"407 0 OFFCURVE",
"500 93 OFFCURVE",
"500 260 CURVE",
"390 260 LINE",
"390 161 OFFCURVE",
"339 110 OFFCURVE",
"279 110 CURVE SMOOTH",
"165 110 LINE"
);
},
{
closed = 1;
nodes = (
"279 410 LINE SMOOTH",
"340 410 OFFCURVE",
"390 355 OFFCURVE",
"390 260 CURVE",
"500 260 LINE",
"500 428 OFFCURVE",
"404 520 OFFCURVE",
"279 520 CURVE SMOOTH",
"165 520 LINE",
"165 410 LINE"
);
},
{
closed = 1;
nodes = (
"205 -200 LINE",
"205 520 LINE",
"90 520 LINE",
"90 -200 LINE"
);
}
);
width = 560;
},
{
associatedMasterId = "F6EE3598-E048-4269-B54C-F84174B7F0FB";
layerId = "AEAE405A-2F64-44A7-B60B-747E77DE7F79";
name = "Jun 2 21, 11:42";
paths = (
{
closed = 1;
nodes = (
"154 110 LINE",
"154 0 LINE",
"445 0 LINE",
"445 110 LINE"
);
},
{
closed = 1;
nodes = (
"289 400 LINE SMOOTH",
"320 400 OFFCURVE",
"345 374 OFFCURVE",
"345 341 CURVE SMOOTH",
"345 0 LINE",
"460 0 LINE",
"460 341 LINE SMOOTH",
"460 436 OFFCURVE",
"385 510 OFFCURVE",
"289 510 CURVE SMOOTH",
"179 510 LINE",
"179 400 LINE"
);
},
{
closed = 1;
nodes = (
"205 -200 LINE",
"205 520 LINE",
"90 520 LINE",
"90 -200 LINE"
);
}
);
width = 565;
}
);
leftKerningGroup = n;
rightKerningGroup = o;
rightMetricsKey = o;
unicode = 0070;
},
{
glyphname = thorn;
lastChange = "2023-01-11 10:34:54 +0000";
layers = (
{
guideLines = (
{
position = "{205, 710}";
}
);
layerId = "DEEA460D-B437-4534-881A-9FF6A59DEC7E";
paths = (
{
closed = 1;
nodes = (
"90 0 LINE",
"279 0 LINE SMOOTH",
"407 0 OFFCURVE",
"499 93 OFFCURVE",
"500 260 CURVE",
"488 260 LINE",
"488 105 OFFCURVE",
"404 12 OFFCURVE",
"279 12 CURVE SMOOTH",
"90 12 LINE"
);
},
{
closed = 1;
nodes = (
"279 508 LINE SMOOTH",
"404 508 OFFCURVE",
"488 415 OFFCURVE",
"488 260 CURVE",
"500 260 LINE",
"499 427 OFFCURVE",
"407 520 OFFCURVE",
"279 520 CURVE SMOOTH",
"90 520 LINE",
"90 508 LINE"
);
},
{
closed = 1;
nodes = (
"102 -200 LINE",
"102 710 LINE",
"90 710 LINE",
"90 -200 LINE"
);
}
);
width = 560;
},
{
guideLines = (
{
position = "{205, 710}";
}
);
layerId = "F6EE3598-E048-4269-B54C-F84174B7F0FB";
paths = (
{
closed = 1;
nodes = (
"155 0 LINE",
"279 0 LINE SMOOTH",
"407 0 OFFCURVE",
"500 93 OFFCURVE",
"500 260 CURVE",
"390 260 LINE",
"390 161 OFFCURVE",
"339 115 OFFCURVE",
"279 115 CURVE SMOOTH",
"155 115 LINE"
);
},
{
closed = 1;
nodes = (
"279 405 LINE SMOOTH",
"340 405 OFFCURVE",
"390 355 OFFCURVE",
"390 260 CURVE",
"500 260 LINE",
"500 428 OFFCURVE",
"404 520 OFFCURVE",
"279 520 CURVE SMOOTH",
"155 520 LINE",
"155 405 LINE"
);
},
{
closed = 1;
nodes = (
"205 -200 LINE",
"205 710 LINE",
"90 710 LINE",
"90 -200 LINE"
);
}
);
width = 560;
}
);
rightKerningGroup = o;
rightMetricsKey = o;
unicode = 00FE;
},
{
glyphname = q;
lastChange = "2023-01-12 09:52:13 +0000";
layers = (
{
layerId = "DEEA460D-B437-4534-881A-9FF6A59DEC7E";
paths = (
{
closed = 1;
nodes = (
"480 520 LINE",
"291 520 LINE SMOOTH",
"163 520 OFFCURVE",
"71 427 OFFCURVE",
"70 260 CURVE",
"82 260 LINE",
"82 415 OFFCURVE",
"166 508 OFFCURVE",
"291 508 CURVE SMOOTH",
"480 508 LINE"
);
},
{
closed = 1;
nodes = (
"291 12 LINE SMOOTH",
"166 12 OFFCURVE",
"82 105 OFFCURVE",
"82 260 CURVE",
"70 260 LINE",
"71 93 OFFCURVE",
"163 0 OFFCURVE",
"291 0 CURVE SMOOTH",
"480 0 LINE",
"480 12 LINE"
);
},
{
closed = 1;
nodes = (
"480 520 LINE",
"468 520 LINE",
"468 -200 LINE",
"480 -200 LINE"
);
}
);
width = 570;
},
{
layerId = "F6EE3598-E048-4269-B54C-F84174B7F0FB";
paths = (
{
closed = 1;
nodes = (
"415 520 LINE",
"296 520 LINE SMOOTH",
"168 520 OFFCURVE",
"70 427 OFFCURVE",
"70 260 CURVE",
"185 260 LINE",
"185 359 OFFCURVE",
"236 410 OFFCURVE",
"296 410 CURVE SMOOTH",
"415 410 LINE"
);
},
{
closed = 1;
nodes = (
"296 110 LINE SMOOTH",
"235 110 OFFCURVE",
"185 165 OFFCURVE",
"185 260 CURVE",
"70 260 LINE",
"69 92 OFFCURVE",
"171 0 OFFCURVE",
"296 0 CURVE SMOOTH",
"415 0 LINE",
"415 110 LINE"
);
},
{
closed = 1;
nodes = (
"480 520 LINE",
"365 520 LINE",
"365 -200 LINE",
"480 -200 LINE"
);
}
);
width = 570;
}
);
leftKerningGroup = o;
rightKerningGroup = e;
unicode = 0071;
},
{
glyphname = r;
lastChange = "2023-01-12 14:45:12 +0000";
layers = (
{
anchors = (
{
name = bottom;
position = "{96, 0}";
},
{
name = top;
position = "{200, 520}";
}
);
layerId = "DEEA460D-B437-4534-881A-9FF6A59DEC7E";
paths = (
{
closed = 1;
nodes = (
"320 520 LINE",
"90 520 LINE",
"90 508 LINE",
"320 508 LINE"
);
},
{
closed = 1;
nodes = (
"102 0 LINE",
"102 520 LINE",
"90 520 LINE",
"90 0 LINE"
);
}
);
width = 380;
},
{
anchors = (
{
name = bottom;
position = "{145, 0}";
},
{
name = top;
position = "{193, 520}";
}
);
layerId = "F6EE3598-E048-4269-B54C-F84174B7F0FB";
paths = (
{
closed = 1;
nodes = (
"320 520 LINE",
"90 520 LINE",
"90 410 LINE",
"320 410 LINE"
);
},
{
closed = 1;
nodes = (
"205 0 LINE",
"205 520 LINE",
"90 520 LINE",
"90 0 LINE"
);
}
);
width = 380;
}
);
leftKerningGroup = n;
rightKerningGroup = r;
unicode = 0072;
},
{
glyphname = s;
lastChange = "2023-01-12 14:12:57 +0000";
layers = (
{
anchors = (
{
name = bottom;
position = "{259, 0}";
},
{
name = top;
position = "{259, 520}";
}
);
layerId = "DEEA460D-B437-4534-881A-9FF6A59DEC7E";
paths = (
{
closed = 1;
nodes = (
"60 350 LINE",
"60 255 OFFCURVE",
"134 180 OFFCURVE",
"228 180 CURVE SMOOTH",
"265 180 LINE",
"265 192 LINE",
"228 192 LINE SMOOTH",
"141 192 OFFCURVE",
"72 262 OFFCURVE",
"72 350 CURVE"
);
},
{
closed = 1;
nodes = (
"72 438 OFFCURVE",
"141 508 OFFCURVE",
"228 508 CURVE SMOOTH",
"390 508 LINE",
"390 520 LINE",
"228 520 LINE SMOOTH",
"134 520 OFFCURVE",
"60 445 OFFCURVE",
"60 350 CURVE",
"72 350 LINE"
);
},
{
closed = 1;
nodes = (
"465 170 LINE",
"465 265 OFFCURVE",
"391 340 OFFCURVE",
"297 340 CURVE SMOOTH",
"260 340 LINE",
"260 328 LINE",
"297 328 LINE SMOOTH",
"384 328 OFFCURVE",
"453 258 OFFCURVE",
"453 170 CURVE"
);
},
{
closed = 1;
nodes = (
"453 82 OFFCURVE",
"384 12 OFFCURVE",
"297 12 CURVE SMOOTH",
"85 12 LINE",
"85 0 LINE",
"297 0 LINE SMOOTH",
"391 0 OFFCURVE",
"465 75 OFFCURVE",
"465 170 CURVE",
"453 170 LINE"
);
}
);
width = 525;
},
{
anchors = (
{
name = bottom;
position = "{259, 0}";
},
{
name = top;
position = "{259, 520}";
}
);
guideLines = (
{
position = "{259, 335}";
},
{
angle = 90;
position = "{259, 357}";
}
);
layerId = "F6EE3598-E048-4269-B54C-F84174B7F0FB";
paths = (
{
closed = 1;
nodes = (
"60 350 LINE",
"60 243 OFFCURVE",
"144 180 OFFCURVE",
"228 180 CURVE SMOOTH",
"265 180 LINE",
"265 285 LINE",
"238 285 LINE SMOOTH",
"205 285 OFFCURVE",
"170 305 OFFCURVE",
"170 350 CURVE"
);
},
{
closed = 1;
nodes = (
"170 395 OFFCURVE",
"205 415 OFFCURVE",
"238 415 CURVE SMOOTH",
"390 415 LINE",
"390 520 LINE",
"228 520 LINE SMOOTH",
"144 520 OFFCURVE",
"60 457 OFFCURVE",
"60 350 CURVE",
"170 350 LINE"
);
},
{
closed = 1;
nodes = (
"465 170 LINE",
"465 277 OFFCURVE",
"381 340 OFFCURVE",
"297 340 CURVE SMOOTH",
"260 340 LINE",
"260 235 LINE",
"287 235 LINE SMOOTH",
"320 235 OFFCURVE",
"355 215 OFFCURVE",
"355 170 CURVE"
);
},
{
closed = 1;
nodes = (
"355 125 OFFCURVE",
"320 105 OFFCURVE",
"287 105 CURVE SMOOTH",
"85 105 LINE",
"85 0 LINE",
"297 0 LINE SMOOTH",
"381 0 OFFCURVE",
"465 63 OFFCURVE",
"465 170 CURVE",
"355 170 LINE"
);
}
);
width = 525;
},
{
associatedMasterId = "F6EE3598-E048-4269-B54C-F84174B7F0FB";
layerId = "0640EC56-8A41-477E-9469-711D3A79575C";
name = "Jun 2 21, 13:32";
paths = (
{
closed = 1;
nodes = (
"200 0 LINE",
"259 0 LINE SMOOTH",
"387 0 OFFCURVE",
"480 69 OFFCURVE",
"480 230 CURVE",
"370 230 LINE",
"370 136 OFFCURVE",
"319 115 OFFCURVE",
"259 115 CURVE SMOOTH",
"200 115 LINE"
);
},
{
closed = 1;
nodes = (
"400 510 LINE",
"301 510 LINE SMOOTH",
"176 510 OFFCURVE",
"80 443 OFFCURVE",
"80 280 CURVE",
"190 280 LINE",
"190 371 OFFCURVE",
"240 395 OFFCURVE",
"301 395 CURVE SMOOTH",
"400 395 LINE"
);
},
{
closed = 1;
nodes = (
"290 175 LINE",
"422 175 LINE",
"480 230 LINE",
"480 280 LINE",
"290 280 LINE"
);
},
{
closed = 1;
nodes = (
"300 335 LINE",
"138 335 LINE",
"80 280 LINE",
"80 230 LINE",
"300 230 LINE"
);
}
);
width = 600;
},
{
associatedMasterId = "F6EE3598-E048-4269-B54C-F84174B7F0FB";
layerId = "4AFEFF87-4B79-458F-ACE6-F864E084EDC1";
name = "Jun 2 21, 13:33";
paths = (
{
closed = 1;
nodes = (
"300 335 LINE",
"109 335 LINE",
"109 230 LINE",
"300 230 LINE"
);
},
{
closed = 1;
nodes = (
"90 510 LINE",
"90 230 LINE",
"200 230 LINE",
"200 510 LINE"
);
},
{
closed = 1;
nodes = (
"509 510 LINE",
"90 510 LINE",
"90 400 LINE",
"509 400 LINE"
);
},
{
closed = 1;
nodes = (
"491 0 LINE",
"491 105 LINE",
"90 105 LINE",
"90 0 LINE"
);
},
{
closed = 1;
nodes = (
"400 0 LINE",
"510 0 LINE",
"510 280 LINE",
"400 280 LINE"
);
},
{
closed = 1;
nodes = (
"510 170 LINE",
"510 280 LINE",
"294 280 LINE",
"294 170 LINE"
);
}
);
width = 600;
},
{
associatedMasterId = "F6EE3598-E048-4269-B54C-F84174B7F0FB";
layerId = "84146027-B516-477C-81C0-F5334B85DBAB";
name = "Jun 2 21, 13:35";
paths = (
{
closed = 1;
nodes = (
"509 510 LINE",
"90 510 LINE",
"90 400 LINE",
"509 400 LINE"
);
},
{
closed = 1;
nodes = (
"510 0 LINE",
"510 105 LINE",
"90 105 LINE",
"90 0 LINE"
);
},
{
closed = 1;
nodes = (
"311 285 LINE",
"250 285 OFFCURVE",
"200 309 OFFCURVE",
"200 400 CURVE",
"90 400 LINE",
"90 237 OFFCURVE",
"186 170 OFFCURVE",
"311 170 CURVE"
);
},
{
closed = 1;
nodes = (
"289 220 LINE",
"350 220 OFFCURVE",
"400 196 OFFCURVE",
"400 105 CURVE",
"510 105 LINE",
"510 268 OFFCURVE",
"414 335 OFFCURVE",
"289 335 CURVE"
);
}
);
width = 600;
},
{
associatedMasterId = "F6EE3598-E048-4269-B54C-F84174B7F0FB";
guideLines = (
{
position = "{289, 335}";
},
{
angle = 90;
position = "{289, 357}";
}
);
layerId = "18709401-DE58-4A1D-9F8D-82B28EB19084";
name = "Jun 2 21, 13:42";
paths = (
{
closed = 1;
nodes = (
"510 170 LINE",
"510 277 OFFCURVE",
"445 340 OFFCURVE",
"361 340 CURVE SMOOTH",
"290 340 LINE",
"290 235 LINE",
"351 235 LINE SMOOTH",
"384 235 OFFCURVE",
"400 215 OFFCURVE",
"400 170 CURVE"
);
},
{
closed = 1;
nodes = (
"400 125 OFFCURVE",
"384 105 OFFCURVE",
"351 105 CURVE SMOOTH",
"100 105 LINE",
"100 0 LINE",
"361 0 LINE SMOOTH",
"445 0 OFFCURVE",
"510 63 OFFCURVE",
"510 170 CURVE",
"400 170 LINE"
);
},
{
closed = 1;
nodes = (
"90 340 LINE",
"90 233 OFFCURVE",
"155 170 OFFCURVE",
"239 170 CURVE SMOOTH",
"310 170 LINE",
"310 275 LINE",
"249 275 LINE SMOOTH",
"216 275 OFFCURVE",
"200 295 OFFCURVE",
"200 340 CURVE"
);
},
{
closed = 1;
nodes = (
"200 385 OFFCURVE",
"216 405 OFFCURVE",
"249 405 CURVE SMOOTH",
"500 405 LINE",
"500 510 LINE",
"239 510 LINE SMOOTH",
"155 510 OFFCURVE",
"90 447 OFFCURVE",
"90 340 CURVE",
"200 340 LINE"
);
}
);
width = 600;
},
{
associatedMasterId = "F6EE3598-E048-4269-B54C-F84174B7F0FB";
guideLines = (
{
position = "{289, 335}";
},
{
angle = 90;
position = "{289, 357}";
}
);
layerId = "FCD56183-D64A-46FF-8207-56113699BE76";
name = "Jun 2 21, 13:44";
paths = (
{
closed = 1;
nodes = (
"75 340 LINE",
"75 233 OFFCURVE",
"155 170 OFFCURVE",
"239 170 CURVE SMOOTH",
"295 170 LINE",
"295 275 LINE",
"249 275 LINE SMOOTH",
"216 275 OFFCURVE",
"185 295 OFFCURVE",
"185 340 CURVE"
);
},
{
closed = 1;
nodes = (
"185 385 OFFCURVE",
"216 405 OFFCURVE",
"249 405 CURVE SMOOTH",
"385 405 LINE",
"385 510 LINE",
"239 510 LINE SMOOTH",
"155 510 OFFCURVE",
"75 447 OFFCURVE",
"75 340 CURVE",
"185 340 LINE"
);
},
{
closed = 1;
nodes = (
"510 170 LINE",
"510 277 OFFCURVE",
"430 340 OFFCURVE",
"346 340 CURVE SMOOTH",
"290 340 LINE",
"290 235 LINE",
"336 235 LINE SMOOTH",
"369 235 OFFCURVE",
"400 215 OFFCURVE",
"400 170 CURVE"
);
},
{
closed = 1;
nodes = (
"400 125 OFFCURVE",
"369 105 OFFCURVE",
"336 105 CURVE SMOOTH",
"200 105 LINE",
"200 0 LINE",
"346 0 LINE SMOOTH",
"430 0 OFFCURVE",
"510 63 OFFCURVE",
"510 170 CURVE",
"400 170 LINE"
);
}
);
width = 600;
}
);
leftKerningGroup = s;
leftMetricsKey = o;
rightKerningGroup = s;
rightMetricsKey = o;
unicode = 0073;
},
{
glyphname = germandbls;
lastChange = "2023-01-12 07:46:54 +0000";
layers = (
{
guideLines = (
{
angle = 90;
position = "{340, 227}";
}
);
layerId = "DEEA460D-B437-4534-881A-9FF6A59DEC7E";
paths = (
{
closed = 1;
nodes = (
"394 0 LINE SMOOTH",
"515 0 OFFCURVE",
"610 96 OFFCURVE",
"610 218 CURVE SMOOTH",
"610 338 OFFCURVE",
"520 434 OFFCURVE",
"397 436 CURVE",
"397 424 LINE",
"512 420 OFFCURVE",
"598 336 OFFCURVE",
"598 218 CURVE SMOOTH",
"598 103 OFFCURVE",
"508 12 OFFCURVE",
"394 12 CURVE SMOOTH",
"336 12 LINE",
"336 0 LINE"
);
},
{
closed = 1;
nodes = (
"166 359 LINE",
"166 371 LINE",
"60 371 LINE",
"60 359 LINE"
);
},
{
closed = 1;
nodes = (
"172 0 LINE",
"172 649 LINE",
"160 649 LINE",
"160 0 LINE"
);
},
{
closed = 1;
nodes = (
"359 300 LINE",
"485 649 LINE",
"472 649 LINE",
"346 300 LINE"
);
},
{
closed = 1;
nodes = (
"477 637 LINE",
"477 649 LINE",
"160 649 LINE",
"160 637 LINE"
);
}
);
width = 690;
},
{
layerId = "F6EE3598-E048-4269-B54C-F84174B7F0FB";
paths = (
{
closed = 1;
nodes = (
"405 0 LINE SMOOTH",
"531 0 OFFCURVE",
"610 83 OFFCURVE",
"610 210 CURVE SMOOTH",
"610 336 OFFCURVE",
"531 415 OFFCURVE",
"405 415 CURVE",
"405 305 LINE",
"459 305 OFFCURVE",
"495 264 OFFCURVE",
"495 210 CURVE SMOOTH",
"495 156 OFFCURVE",
"459 110 OFFCURVE",
"405 110 CURVE SMOOTH",
"340 110 LINE",
"340 0 LINE"
);
},
{
closed = 1;
nodes = (
"176 310 LINE",
"176 420 LINE",
"60 420 LINE",
"60 310 LINE"
);
},
{
closed = 1;
nodes = (
"275 0 LINE",
"275 649 LINE",
"160 649 LINE",
"160 0 LINE"
);
},
{
closed = 1;
nodes = (
"441 305 LINE",
"541 649 LINE",
"427 649 LINE",
"327 305 LINE"
);
},
{
closed = 1;
nodes = (
"476 539 LINE",
"476 649 LINE",
"160 649 LINE",
"160 539 LINE"
);
}
);
width = 690;
},
{
associatedMasterId = "F6EE3598-E048-4269-B54C-F84174B7F0FB";
layerId = "1812040B-3FD8-49ED-99BF-DF1EC7AE007F";
name = "Jun 18 21, 16:53";
paths = (
{
closed = 1;
nodes = (
"335 0 LINE SMOOTH",
"461 0 OFFCURVE",
"545 84 OFFCURVE",
"545 210 CURVE SMOOTH",
"545 336 OFFCURVE",
"461 415 OFFCURVE",
"335 415 CURVE SMOOTH",
"270 415 LINE",
"270 300 LINE",
"335 300 LINE SMOOTH",
"389 300 OFFCURVE",
"425 264 OFFCURVE",
"425 210 CURVE SMOOTH",
"425 156 OFFCURVE",
"389 115 OFFCURVE",
"335 115 CURVE SMOOTH",
"270 115 LINE",
"270 0 LINE"
);
},
{
closed = 1;
nodes = (
"305 534 LINE SMOOTH",
"333 534 OFFCURVE",
"359 505 OFFCURVE",
"359 476 CURVE SMOOTH",
"359 444 OFFCURVE",
"335 414 OFFCURVE",
"305 415 CURVE",
"305 300 LINE",
"400 300 OFFCURVE",
"479 378 OFFCURVE",
"479 476 CURVE SMOOTH",
"479 573 OFFCURVE",
"400 649 OFFCURVE",
"305 649 CURVE SMOOTH",
"130 649 LINE",
"130 534 LINE"
);
},
{
closed = 1;
nodes = (
"205 0 LINE",
"205 710 LINE",
"90 710 LINE",
"90 0 LINE"
);
}
);
width = 600;
},
{
associatedMasterId = "F6EE3598-E048-4269-B54C-F84174B7F0FB";
layerId = "28B38CA4-D997-497C-9768-B0998AE8B61E";
name = "Jun 18 21, 17:18";
paths = (
{
closed = 1;
nodes = (
"335 0 LINE SMOOTH",
"461 0 OFFCURVE",
"545 84 OFFCURVE",
"545 210 CURVE SMOOTH",
"545 336 OFFCURVE",
"461 415 OFFCURVE",
"335 415 CURVE SMOOTH",
"270 415 LINE",
"270 300 LINE",
"335 300 LINE SMOOTH",
"389 300 OFFCURVE",
"425 264 OFFCURVE",
"425 210 CURVE SMOOTH",
"425 156 OFFCURVE",
"389 115 OFFCURVE",
"335 115 CURVE SMOOTH",
"270 115 LINE",
"270 0 LINE"
);
},
{
closed = 1;
nodes = (
"205 546 LINE SMOOTH",
"205 574 OFFCURVE",
"235 600 OFFCURVE",
"264 600 CURVE SMOOTH",
"296 600 OFFCURVE",
"326 576 OFFCURVE",
"325 546 CURVE",
"440 546 LINE",
"440 641 OFFCURVE",
"362 720 OFFCURVE",
"264 720 CURVE SMOOTH",
"167 720 OFFCURVE",
"90 641 OFFCURVE",
"90 546 CURVE SMOOTH",
"90 371 LINE",
"205 371 LINE"
);
},
{
closed = 1;
nodes = (
"205 0 LINE",
"205 410 LINE",
"90 410 LINE",
"90 0 LINE"
);
},
{
closed = 1;
nodes = (
"30 399 LINE",
"134 399 LINE",
"134 490 LINE",
"30 490 LINE"
);
}
);
width = 625;
},
{
associatedMasterId = "F6EE3598-E048-4269-B54C-F84174B7F0FB";
layerId = "B1E07015-2623-4078-8B2C-813AB3034191";
name = "Jun 22 21, 17:28";
paths = (
{
closed = 1;
nodes = (
"335 0 LINE SMOOTH",
"461 0 OFFCURVE",
"545 84 OFFCURVE",
"545 210 CURVE SMOOTH",
"545 336 OFFCURVE",
"461 415 OFFCURVE",
"335 415 CURVE SMOOTH",
"270 415 LINE",
"270 300 LINE",
"335 300 LINE SMOOTH",
"389 300 OFFCURVE",
"425 264 OFFCURVE",
"425 210 CURVE SMOOTH",
"425 156 OFFCURVE",
"389 115 OFFCURVE",
"335 115 CURVE SMOOTH",
"270 115 LINE",
"270 0 LINE"
);
},
{
closed = 1;
nodes = (
"205 0 LINE",
"205 650 LINE",
"90 650 LINE",
"90 0 LINE"
);
},
{
closed = 1;
nodes = (
"30 399 LINE",
"134 399 LINE",
"134 490 LINE",
"30 490 LINE"
);
},
{
closed = 1;
nodes = (
"270 534 LINE SMOOTH",
"298 534 OFFCURVE",
"324 504 OFFCURVE",
"324 475 CURVE SMOOTH",
"324 443 OFFCURVE",
"300 413 OFFCURVE",
"270 414 CURVE",
"270 299 LINE",
"365 299 OFFCURVE",
"444 377 OFFCURVE",
"444 475 CURVE SMOOTH",
"444 572 OFFCURVE",
"365 649 OFFCURVE",
"270 649 CURVE SMOOTH",
"95 649 LINE",
"95 534 LINE"
);
}
);
width = 625;
}
);
unicode = 00DF;
},
{
glyphname = t;
lastChange = "2023-01-12 14:57:51 +0000";
layers = (
{
anchors = (
{
name = bottom;
position = "{291, 0}";
},
{
name = center;
position = "{240, 260}";
},
{
name = top;
position = "{146, 650}";
},
{
name = topright;
position = "{470, 520}";
}
);
layerId = "DEEA460D-B437-4534-881A-9FF6A59DEC7E";
paths = (
{
closed = 1;
nodes = (
"70 508 LINE",
"410 508 LINE",
"410 520 LINE",
"70 520 LINE"
);
},
{
closed = 1;
nodes = (
"291 12 LINE SMOOTH",
"208 12 OFFCURVE",
"152 71 OFFCURVE",
"152 159 CURVE SMOOTH",
"152 650 LINE",
"140 650 LINE",
"140 159 LINE SMOOTH",
"140 64 OFFCURVE",
"201 0 OFFCURVE",
"291 0 CURVE SMOOTH",
"410 0 LINE",
"410 12 LINE"
);
}
);
width = 490;
},
{
anchors = (
{
name = bottom;
position = "{310, 0}";
},
{
name = center;
position = "{195, 260}";
},
{
name = top;
position = "{195, 649}";
},
{
name = topright;
position = "{470, 520}";
}
);
layerId = "F6EE3598-E048-4269-B54C-F84174B7F0FB";
paths = (
{
closed = 1;
nodes = (
"70 410 LINE",
"410 410 LINE",
"410 520 LINE",
"70 520 LINE"
);
},
{
closed = 1;
nodes = (
"310 110 LINE SMOOTH",
"280 110 OFFCURVE",
"255 136 OFFCURVE",
"255 169 CURVE SMOOTH",
"255 649 LINE",
"140 649 LINE",
"140 169 LINE SMOOTH",
"140 74 OFFCURVE",
"204 0 OFFCURVE",
"310 0 CURVE SMOOTH",
"410 0 LINE",
"410 110 LINE"
);
}
);
width = 490;
}
);
leftKerningGroup = t;
rightKerningGroup = t;
unicode = 0074;
},
{
glyphname = tbar;
lastChange = "2023-01-12 09:52:02 +0000";
layers = (
{
components = (
{
name = t;
}
);
layerId = "DEEA460D-B437-4534-881A-9FF6A59DEC7E";
paths = (
{
closed = 1;
nodes = (
"90 301 LINE",
"90 289 LINE",
"400 289 LINE",
"400 301 LINE"
);
}
);
width = 500;
},
{
components = (
{
name = t;
}
);
layerId = "F6EE3598-E048-4269-B54C-F84174B7F0FB";
paths = (
{
closed = 1;
nodes = (
"90 330 LINE",
"90 260 LINE",
"400 260 LINE",
"400 330 LINE"
);
}
);
width = 500;
}
);
leftKerningGroup = t;
rightKerningGroup = t;
unicode = 0167;
},
{
glyphname = u;
lastChange = "2023-01-12 14:01:22 +0000";
layers = (
{
anchors = (
{
name = bottom;
position = "{265, 0}";
},
{
name = ogonek;
position = "{433, 0}";
},
{
name = top;
position = "{265, 510}";
},
{
name = topright;
position = "{510, 510}";
}
);
layerId = "DEEA460D-B437-4534-881A-9FF6A59DEC7E";
paths = (
{
closed = 1;
nodes = (
"241 12 LINE SMOOTH",
"158 12 OFFCURVE",
"102 71 OFFCURVE",
"102 159 CURVE SMOOTH",
"102 520 LINE",
"90 520 LINE",
"90 159 LINE SMOOTH",
"90 64 OFFCURVE",
"151 0 OFFCURVE",
"241 0 CURVE SMOOTH",
"450 0 LINE",
"450 12 LINE"
);
},
{
closed = 1;
nodes = (
"438 520 LINE",
"438 0 LINE",
"450 0 LINE",
"450 520 LINE"
);
}
);
width = 540;
},
{
anchors = (
{
name = bottom;
position = "{265, 0}";
},
{
name = ogonek;
position = "{418, 0}";
},
{
name = top;
position = "{265, 510}";
},
{
name = topright;
position = "{510, 510}";
}
);
layerId = "F6EE3598-E048-4269-B54C-F84174B7F0FB";
paths = (
{
closed = 1;
nodes = (
"251 110 LINE SMOOTH",
"220 110 OFFCURVE",
"195 136 OFFCURVE",
"195 169 CURVE SMOOTH",
"195 520 LINE",
"80 520 LINE",
"80 169 LINE SMOOTH",
"80 74 OFFCURVE",
"155 0 OFFCURVE",
"251 0 CURVE SMOOTH",
"361 0 LINE",
"361 110 LINE"
);
},
{
closed = 1;
nodes = (
"345 520 LINE",
"345 0 LINE",
"460 0 LINE",
"460 520 LINE"
);
}
);
width = 540;
}
);
leftKerningGroup = u;
rightKerningGroup = u;
unicode = 0075;
},
